<?xml version="1.0" encoding="UTF-8"?>
<!DOCTYPE svg PUBLIC "-//W3C//DTD SVG 1.1//EN" "http://www.w3.org/Graphics/SVG/1.1/DTD/svg11.dtd">
<!-- Creator: CorelDRAW X7 -->
<svg xmlns="http://www.w3.org/2000/svg" xml:space="preserve" width="210mm" height="297mm" version="1.1" style="shape-rendering:geometricPrecision; text-rendering:geometricPrecision; image-rendering:optimizeQuality; fill-rule:evenodd; clip-rule:evenodd"
viewBox="0 0 21000 29700"
 xmlns:xlink="http://www.w3.org/1999/xlink">
 <defs>
  <style type="text/css">
   <![CDATA[
    .str0 {stroke:black;stroke-width:7.62;stroke-linejoin:bevel}
    .fil0 {fill:none}
    .fil1 {fill:#2B2A29}
   ]]>
  </style>
 </defs>
 <g id="Слой_x0020_1">
  <metadata id="CorelCorpID_0Corel-Layer"/>
  <g id="_1727913356688">
   <g>
    <path class="fil0 str0" d="M8935 5120c322,-474 807,-895 1191,-1220"/>
    <path class="fil0 str0" d="M9690 6820c-240,554 -307,1314 -334,1801"/>
    <path class="fil0 str0" d="M9871 6846c-166,471 -240,1374 -213,1540"/>
    <path class="fil0 str0" d="M9658 8386c198,135 667,208 928,163"/>
    <path class="fil0 str0" d="M9680 7825c91,431 642,723 841,543"/>
    <path class="fil0 str0" d="M10399 7538c46,215 116,737 118,817"/>
    <path class="fil0 str0" d="M10607 8424c138,-3 315,50 366,89"/>
    <path class="fil0 str0" d="M10606 8425c-31,174 -40,265 -49,401"/>
    <path class="fil0 str0" d="M10556 8828c121,96 516,150 596,140"/>
    <path class="fil0 str0" d="M11152 8968c-16,-137 -118,-363 -169,-449"/>
    <path class="fil0 str0" d="M10970 8500c38,-350 86,-1660 -6,-2278"/>
    <path class="fil0 str0" d="M10964 6222c-45,-275 -376,-309 -491,-261"/>
    <path class="fil0 str0" d="M10496 6350c-13,212 -59,378 -135,491"/>
    <path class="fil0 str0" d="M10365 7123c-9,-88 -31,-242 -2,-280"/>
    <path class="fil0 str0" d="M10363 6843c18,-23 58,-50 72,-9"/>
    <path class="fil0 str0" d="M10435 6834c44,126 165,561 167,1070"/>
    <path class="fil0 str0" d="M10296 7247c96,-39 144,103 141,238"/>
    <line class="fil0 str0" x1="10517" y1="8355" x2="10607" y2= "8424" />
    <path class="fil0 str0" d="M10390 7537c-101,198 -225,295 -360,302"/>
    <path class="fil0 str0" d="M10118 7677c-77,166 -151,236 -212,214"/>
    <path class="fil0 str0" d="M10066 7429c-50,104 -120,279 -156,462"/>
    <path class="fil0 str0" d="M10066 7427c-111,2 -151,-34 -151,-126"/>
    <line class="fil0 str0" x1="10552" y1="7373" x2="10388" y2= "7533" />
    <path class="fil0 str0" d="M9924 7294c58,-9 82,29 131,34"/>
    <path class="fil0 str0" d="M10055 7328c59,7 66,-29 178,2"/>
    <path class="fil0 str0" d="M10233 7330c121,-160 173,-291 225,-408"/>
    <path class="fil0 str0" d="M10490 8107c258,398 448,125 505,47"/>
    <path class="fil0 str0" d="M8762 8310c567,513 1637,541 1794,518"/>
    <path class="fil0 str0" d="M9335 6853c193,-72 602,-37 693,76"/>
    <path class="fil0 str0" d="M9390 6761c61,-49 562,-77 683,98"/>
    <path class="fil0 str0" d="M9620 6374c112,-49 500,-6 581,86"/>
    <path class="fil0 str0" d="M9678 6295c211,-80 517,64 552,96"/>
    <path class="fil0 str0" d="M10359 6339c-50,-24 -119,37 -143,87"/>
    <path class="fil0 str0" d="M10216 6426c-24,51 -22,130 29,155"/>
    <path class="fil0 str0" d="M10245 6581c49,25 104,-32 129,-81"/>
    <path class="fil0 str0" d="M10374 6500c25,-52 37,-136 -15,-161"/>
    <line class="fil0 str0" x1="9915" y1="7301" x2="9924" y2= "7294" />
    <path class="fil0 str0" d="M10181 6827c-51,-24 -119,38 -144,88"/>
    <path class="fil0 str0" d="M10037 6915c-24,51 -21,129 29,155"/>
    <path class="fil0 str0" d="M10066 7070c50,25 104,-32 129,-82"/>
    <path class="fil0 str0" d="M10195 6988c26,-51 38,-136 -14,-161"/>
    <polygon class="fil0 str0" points="10359,6339 10359,6339 "/>
    <path class="fil0 str0" d="M9541 6814c-185,358 -371,1141 -391,1400"/>
    <polygon class="fil0 str0" points="10181,6827 10181,6827 "/>
    <path class="fil0 str0" d="M9142 8224c-128,9 -248,-72 -309,-137"/>
    <path class="fil0 str0" d="M9210 7807c-81,93 -246,226 -361,192"/>
    <path class="fil0 str0" d="M8772 8322c151,-628 634,-1784 1074,-2224"/>
    <path class="fil0 str0" d="M9685 6281c-97,-47 -160,42 -188,107"/>
    <path class="fil0 str0" d="M9497 6388c-16,38 -8,93 35,121"/>
    <path class="fil0 str0" d="M9392 6742c-43,-24 -113,38 -139,86"/>
    <path class="fil0 str0" d="M9253 6828c-28,52 -24,121 11,157"/>
    <path class="fil0 str0" d="M9239 6828c-129,-146 118,-149 273,-338"/>
    <path class="fil0 str0" d="M9208 7125c-277,198 -309,568 -464,513"/>
    <path class="fil0 str0" d="M9217 6803c0,0 -163,110 -210,162"/>
    <path class="fil0 str0" d="M9156 7163c-48,-135 -133,-311 -394,-124"/>
    <line class="fil0 str0" x1="9150" y1="8214" x2="9142" y2= "8224" />
    <path class="fil0 str0" d="M8622 7042c-29,159 164,114 164,114"/>
    <path class="fil0 str0" d="M8786 7156c0,0 -126,212 -92,370"/>
    <path class="fil0 str0" d="M8705 7527c-1,107 45,91 45,91"/>
    <path class="fil0 str0" d="M8755 7393c0,0 -47,105 -59,143"/>
    <path class="fil0 str0" d="M8834 7401c-33,48 -80,190 -89,232"/>
    <path class="fil0 str0" d="M8964 7057c-47,57 -97,201 -106,300"/>
    <path class="fil0 str0" d="M10496 5945c426,-372 1498,-214 1568,-190"/>
    <path class="fil0 str0" d="M10893 6055c254,-304 1015,-288 1164,-302"/>
    <path class="fil0 str0" d="M10681 5947c146,-135 448,-126 570,-104"/>
    <path class="fil0 str0" d="M9570 6728c31,-87 203,-373 203,-373"/>
    <path class="fil0 str0" d="M9827 6272c27,-52 115,-140 143,-177"/>
    <path class="fil0 str0" d="M9729 6717c21,-67 122,-277 172,-353"/>
    <path class="fil0 str0" d="M9955 6282c32,-57 84,-121 145,-184"/>
    <path class="fil0 str0" d="M9904 6751c25,-72 123,-294 164,-351"/>
    <path class="fil0 str0" d="M10109 6325c20,-47 112,-193 175,-234"/>
    <path class="fil0 str0" d="M9262 5589c74,66 127,133 141,178"/>
    <path class="fil0 str0" d="M9403 5767c19,61 -56,138 213,312"/>
    <path class="fil0 str0" d="M9616 6079c358,-23 589,57 761,-35"/>
    <path class="fil0 str0" d="M10377 6044c184,-98 291,-347 377,-713"/>
    <path class="fil0 str0" d="M10539 4949c363,-433 601,290 212,381"/>
    <path class="fil0 str0" d="M10656 5118c45,-29 115,-133 126,-198"/>
    <path class="fil0 str0" d="M9665 5856c21,38 107,4 206,-60"/>
    <path class="fil0 str0" d="M9871 5796c170,-108 377,-303 358,-365"/>
    <path class="fil0 str0" d="M10229 5431c61,143 37,442 -35,489"/>
    <path class="fil0 str0" d="M10194 5920c-96,63 -111,-144 -358,-99"/>
    <path class="fil0 str0" d="M9919 5813c36,-8 288,-100 186,-203"/>
    <path class="fil0 str0" d="M9645 5744c28,-49 113,-89 128,-84"/>
    <path class="fil0 str0" d="M9825 5450c-18,-205 205,-226 247,-209"/>
    <path class="fil0 str0" d="M9827 5444c32,-82 226,-196 244,-197"/>
    <path class="fil0 str0" d="M9913 5270c0,0 -8,49 6,73"/>
    <path class="fil0 str0" d="M9447 5735c-9,-143 121,-115 129,-99"/>
    <path class="fil0 str0" d="M9445 5734c4,-21 122,-102 131,-99"/>
    <polyline class="fil0 str0" points="8762,7039 8753,7042 8622,7042 "/>
    <path class="fil0 str0" d="M10193 6009c72,18 130,-81 142,-103"/>
    <path class="fil0 str0" d="M9124 5394c-25,104 -30,355 -30,355"/>
    <path class="fil0 str0" d="M9094 5749c118,-175 596,-425 771,-659"/>
    <path class="fil0 str0" d="M9865 5090c85,-115 56,-193 76,-451"/>
    <path class="fil0 str0" d="M9115 5397c295,-284 935,-908 1401,-1149"/>
    <path class="fil0 str0" d="M9917 4969c0,0 131,-162 228,-200"/>
    <path class="fil0 str0" d="M10043 4843c89,-3 356,14 503,104"/>
    <path class="fil0 str0" d="M10518 4251c297,126 386,482 366,614"/>
    <path class="fil0 str0" d="M10518 4251c-26,-90 -360,-325 -389,-354"/>
    <path class="fil0 str0" d="M10045 4566c191,-252 301,-1032 -53,-1344"/>
    <path class="fil0 str0" d="M9995 3222c-309,267 -1239,1503 -1344,1768"/>
    <path class="fil0 str0" d="M9995 3218c90,214 160,472 137,689"/>
    <path class="fil0 str0" d="M8656 4976c-55,144 212,137 294,138"/>
    <line class="fil0 str0" x1="9469" y1="5649" x2="9506" y2= "5680" />
    <path class="fil0 str0" d="M9059 5194c-132,81 16,154 62,202"/>
    <path class="fil0 str0" d="M9059 5184c0,0 604,-604 709,-687"/>
    <path class="fil0 str0" d="M9786 4581c-51,-57 -6,-164 53,-213"/>
    <path class="fil0 str0" d="M9839 4368c53,-44 162,-49 207,4"/>
    <path class="fil0 str0" d="M10046 4372c46,53 24,162 -28,210"/>
    <path class="fil0 str0" d="M10018 4582c-53,49 -183,53 -232,-1"/>
    <line class="fil0 str0" x1="8960" y1="5085" x2="9059" y2= "5194" />
    <path class="fil0 str0" d="M9064 5170c10,-34 10,-142 1,-179"/>
    <path class="fil0 str0" d="M9065 4991c0,0 127,19 172,15"/>
    <path class="fil0 str0" d="M9237 5006c12,-34 -1,-192 -1,-192"/>
    <path class="fil0 str0" d="M9236 4814c60,3 79,20 181,7"/>
    <path class="fil0 str0" d="M10817 5315c150,-80 586,175 558,379"/>
    <path class="fil0 str0" d="M10916 5197c127,0 1032,318 1144,554"/>
    <path class="fil0 str0" d="M9610 8720c24,40 46,64 46,116"/>
    <path class="fil0 str0" d="M9656 8836c1,121 -167,94 -186,351"/>
    <path class="fil0 str0" d="M9498 8962c-108,61 -165,185 -175,239"/>
    <path class="fil0 str0" d="M9473 9179c-45,22 -620,3 -680,-46"/>
    <path class="fil0 str0" d="M8790 9134c0,0 -24,-35 -31,-65"/>
    <path class="fil0 str0" d="M8759 9069c-12,-53 -14,-149 21,-190"/>
    <path class="fil0 str0" d="M8780 8879c14,-17 21,-13 40,-1"/>
    <path class="fil0 str0" d="M8820 8878c114,73 199,243 368,302"/>
    <path class="fil0 str0" d="M8954 8984c8,-55 133,-264 242,-245"/>
    <path class="fil0 str0" d="M9129 8554c-22,27 -46,139 68,185"/>
    <path class="fil0 str0" d="M10242 8835c-42,81 81,94 81,94"/>
    <path class="fil0 str0" d="M10316 8938c-134,109 -56,166 28,201"/>
    <path class="fil0 str0" d="M10343 9139c54,1 89,102 98,228"/>
    <path class="fil0 str0" d="M10292 9120c31,65 4,207 4,207"/>
    <path class="fil0 str0" d="M10296 9327c55,-24 109,-8 137,3"/>
    <path class="fil0 str0" d="M10438 9363c104,61 460,20 543,10"/>
    <path class="fil0 str0" d="M10446 9368c161,-6 338,-102 413,-189"/>
    <path class="fil0 str0" d="M10852 9177c48,35 139,113 121,204"/>
    <path class="fil0 str0" d="M10679 8886c54,67 151,205 153,317"/>
    <path class="fil0 str0" d="M10406 8957c51,-43 171,-84 233,-84"/>
    <path class="fil0 str0" d="M13715 6409c0,1250 -667,2406 -1750,3031"/>
    <path class="fil0 str0" d="M11965 9440c-1083,625 -2417,625 -3500,0"/>
    <path class="fil0 str0" d="M8465 9440c-1083,-625 -1750,-1781 -1750,-3031"/>
    <path class="fil0 str0" d="M6715 6409c0,-1251 667,-2406 1750,-3031"/>
    <path class="fil0 str0" d="M8465 3378c1083,-625 2417,-625 3500,0"/>
    <path class="fil0 str0" d="M11965 3378c1083,625 1750,1780 1750,3031"/>
    <polygon class="fil0 str0" points="9786,4581 9786,4581 "/>
    <polygon class="fil0 str0" points="13715,6409 13715,6409 "/>
   </g>
   <circle class="fil0" cx="10216" cy="6426" r="2650"/>
   <path class="fil1" d="M7617 7123l12 32 -457 360c-6,6 -8,12 -5,18l68 172c2,6 8,9 15,6 6,-2 9,-9 7,-14l-19 -47 571 -39 17 44c3,6 10,8 16,6 6,-3 9,-9 7,-15l-48 -121c-2,-5 -9,-8 -15,-6 -6,2 -10,9 -7,15l20 52 -557 39 437 -344 17 44c3,6 10,8 15,6 7,-3 10,-9 7,-15l-79 -202c-3,-6 -9,-9 -15,-6 -6,2 -10,9 -7,15zm-395 485l-30 -76 447 -353 30 77 -447 352zm310 -1098l4 34 -532 241c-7,3 -10,9 -9,15l24 184c0,6 6,11 13,10 7,-1 11,-7 10,-13l-6 -48 563 106 6 47c1,6 7,10 13,9 7,-1 11,-6 11,-12l-17 -130c-1,-6 -6,-10 -13,-9 -6,1 -11,6 -10,12l7 57 -149 -28 -31 -244 137 -63 6 47c1,6 8,11 13,10 7,-1 12,-7 11,-13l-28 -215c0,-6 -6,-11 -13,-10 -6,1 -11,7 -10,13zm-502 377l-10 -82 520 -235 10 82 -520 235zm393 93l-377 -72 348 -157 29 229zm150 -1055l-2 38 -568 109c-8,2 -12,7 -12,14l-15 187c0,5 5,11 11,11 7,1 13,-4 13,-10l4 -50 532 195 -4 54c-1,3 0,6 2,8 3,3 6,4 9,4l104 8c6,1 12,-5 12,-11 1,-7 -4,-14 -11,-14l-92 -7 40 -521 92 7c7,1 12,-5 13,-12 0,-6 -4,-13 -11,-13l-104 -8c-7,-1 -12,4 -13,11zm-559 171l554 -106 -6 84 -555 106 7 -84zm7 108l539 -104 -22 293 -517 -189zm752 -899l-14 40 -516 -174 12 -37c2,-7 -1,-14 -7,-16 -6,-2 -13,2 -15,8l-66 195c-2,6 1,14 7,16 6,2 13,-2 15,-8l11 -33 235 79 -69 204 -235 -80 14 -39c2,-6 -1,-13 -8,-15 -6,-2 -13,1 -15,8l-67 199c-3,8 0,15 7,17 6,2 12,-1 15,-9l12 -35 517 174 -15 44c-2,6 1,12 7,15 8,2 13,-1 15,-8l73 -216c3,-6 0,-12 -7,-15 -6,-2 -13,1 -15,8l-16 47 -259 -87 69 -204 259 87 -16 46c-2,7 1,14 8,16 6,2 13,-2 15,-8l71 -211c2,-7 -1,-14 -7,-16 -6,-2 -13,2 -15,8zm-159 470l-517 -175 26 -77 517 175 -26 77zm-405 -503l26 -77 516 174 -26 77 -516 -174zm279 -624c-99,156 -61,326 95,426 156,100 327,64 426,-92 100,-154 61,-325 -94,-424 -156,-100 -327,-64 -427,90zm388 429l-418 -268c3,-48 19,-99 50,-148 31,-48 70,-84 113,-107l418 269c-2,48 -18,98 -50,147 -31,48 -70,84 -113,107zm163 -285l-390 -250c77,-30 167,-19 252,36 85,55 133,131 138,214zm-442 262c-85,-55 -133,-131 -139,-215l390 250c-77,30 -167,19 -251,-35zm660 -509c-28,-26 -72,-24 -99,5 -28,28 -28,73 0,99 30,29 75,27 102,-2 8,-8 14,-18 17,-28 12,32 15,70 9,115 -1,8 3,12 9,13 8,0 10,-5 11,-12 13,-88 -6,-142 -45,-185l-4 -5zm-83 87c-17,-17 -17,-47 1,-66 17,-18 48,-20 65,-3 20,18 22,48 3,68 -19,20 -49,20 -69,1zm2853 -776l-42 -8 96 -537 42 8c6,1 12,-3 13,-10 1,-6 -3,-12 -9,-14l-159 -28c-5,-1 -10,1 -12,5l-323 475 90 -500 38 7c6,1 12,-3 13,-10 1,-5 -3,-12 -9,-13l-204 -37c-7,-1 -13,4 -14,10 -1,7 3,13 10,14l36 6 -96 537 -41 -7c-7,-2 -13,3 -14,9 -1,7 3,13 10,14l163 29c4,1 10,-1 12,-5l316 -466 -87 490 -44 -8c-7,-1 -13,4 -14,10 -1,6 3,12 10,13l215 39c6,1 12,-3 13,-10 1,-6 -3,-12 -9,-13zm-409 -627l80 14 -96 537 -80 -15 96 -536zm359 64l79 14 -96 537 -79 -14 96 -537zm1031 424l-385 -221c-5,-4 -13,-2 -17,3l-51 91c-4,6 -2,14 4,17 7,4 14,1 18,-5l46 -80 122 71 -272 473 -40 -24c-6,-3 -14,-2 -17,4 -3,6 -1,14 5,17l197 113c5,3 13,2 16,-4 3,-6 1,-14 -4,-17l-42 -24 272 -472 125 72 -46 80c-3,6 -1,14 5,17 6,4 14,1 17,-4l52 -91c3,-6 1,-13 -5,-16zm-442 402l-71 -41 272 -472 71 40 -272 473zm598 458l-27 -23 236 -534c3,-7 1,-13 -4,-18l-140 -121c-5,-4 -12,-3 -16,2 -5,5 -4,12 0,16l38 32 -491 297 -35 -31c-5,-4 -13,-3 -17,2 -4,5 -3,12 1,16l99 85c4,4 11,3 16,-2 4,-4 4,-12 -1,-16l-43 -37 130 -78 185 160 -60 139 -36 -31c-4,-4 -12,-3 -16,1 -4,5 -4,13 1,17l164 142c5,4 12,3 16,-2 4,-4 4,-12 0,-16zm121 -616l63 54 -231 522 -62 -54 230 -522zm-354 193l328 -198 -153 349 -175 -151zm411 649l-23 -33 444 -316 20 29c4,6 12,8 17,4 6,-4 7,-12 3,-17l-118 -166c-4,-5 -11,-7 -17,-3 -6,4 -6,11 -2,17l20 29 -444 316 -25 -35c-3,-5 -11,-6 -16,-3 -6,4 -6,12 -3,17l124 175c4,5 12,7 17,3 6,-4 6,-12 3,-17zm189 266l-14 -19 167 -407 219 9 36 50c4,6 11,7 17,3 5,-4 6,-11 2,-17l-85 -120c-4,-5 -11,-6 -17,-2 -5,3 -6,11 -2,16l31 44 -321 -14c-2,0 -5,1 -7,2 -2,2 -3,4 -4,7l-125 304 -24 -34c-4,-5 -11,-7 -16,-3 -6,4 -7,11 -3,17l127 178c4,5 11,7 17,3 5,-4 6,-11 2,-17zm170 -702l47 67 -444 316 -47 -67 444 -316zm-128 271l85 3 -157 385 -55 -76 127 -312zm324 1184c1,-3 1,-6 0,-9 -1,-3 -3,-5 -7,-7 -62,-29 -101,-78 -135,-179 -17,-48 -19,-97 -8,-141l469 -159c36,30 64,69 80,117 34,102 10,187 -59,210l-4 2c-8,2 -10,10 -8,16 2,5 8,10 16,8l131 -45c8,-2 9,-10 7,-16 -1,-5 -8,-10 -15,-8l-55 19c31,-47 35,-119 9,-194 -46,-137 -199,-238 -386,-175 -188,64 -246,237 -200,374 36,105 80,160 147,193 3,2 7,2 10,1 3,-1 6,-4 8,-7zm43 -537c92,-31 182,-19 250,24l-434 147c27,-77 93,-140 184,-171zm518 840c-14,-184 -147,-297 -332,-283 -184,14 -299,146 -285,330 14,184 147,297 331,283 185,-15 300,-146 286,-330zm-568 -108l496 -38c27,40 44,91 48,148 5,58 -5,109 -25,153l-496 38c-27,-40 -44,-90 -49,-147 -4,-58 6,-110 26,-154zm42 325l462 -35c-44,70 -122,115 -224,123 -100,8 -184,-25 -238,-88zm196 -475c100,-8 184,25 239,88l-462 35c44,-70 122,-115 223,-123zm320 1120c-10,55 27,108 83,118 6,1 12,-3 13,-10 1,-6 -3,-12 -9,-13 -43,-8 -71,-49 -63,-91 7,-44 48,-72 91,-65 6,1 12,-3 13,-9 1,-6 -3,-12 -9,-13 -56,-10 -109,27 -119,83zm-644 152l8 -42 536 96 -7 42c-1,7 3,13 10,14 5,1 12,-3 13,-10l29 -159c1,-4 -1,-10 -5,-12l-475 -322 500 89 -7 38c-1,6 3,12 9,13 6,1 13,-3 14,-9l36 -204c2,-6 -3,-12 -9,-14 -7,-1 -13,3 -14,10l-6 36 -537 -96 7 -41c1,-6 -3,-13 -9,-14 -7,-1 -13,3 -14,10l-29 163c-1,5 1,10 4,12l467 317 -490 -88 8 -44c1,-7 -4,-13 -10,-14 -7,-1 -12,3 -14,10l-38 215c-1,7 3,12 10,14 5,1 12,-3 13,-10zm627 -409l-14 80 -537 -96 15 -80 536 96zm-64 359l-14 79 -537 -96 14 -79 537 96zm-783 620l14 -35 575 63c8,1 13,-3 15,-10l69 -174c2,-5 -1,-12 -7,-14 -6,-3 -13,0 -15,6l-18 46 -451 -343 20 -50c1,-3 1,-6 0,-9 -2,-3 -5,-5 -7,-6l-97 -38c-6,-3 -13,1 -16,7 -2,6 0,14 7,16l86 34 -192 486 -86 -34c-6,-2 -13,1 -16,8 -2,6 0,13 7,16l97 38c6,3 13,0 15,-7zm586 2l-562 -62 31 -79 561 63 -30 78zm24 -105l-545 -60 107 -274 438 334zm-243 637c-19,28 -12,64 15,84 26,18 62,11 81,-16 20,-27 14,-63 -11,-82 -28,-19 -65,-14 -85,14zm-91 128c-20,28 -12,64 15,84 26,18 62,12 81,-15 19,-28 14,-64 -12,-82 -27,-20 -64,-15 -84,13zm166 -74c-10,15 -31,19 -45,9 -16,-12 -20,-32 -9,-48 12,-17 32,-20 49,-8 14,10 17,31 5,47zm-91 128c-11,15 -31,19 -45,9 -17,-11 -21,-32 -9,-48 11,-16 32,-19 49,-8 14,11 16,31 5,47zm-533 -271c4,-5 4,-13 -3,-18l-79 -56 115 -162 223 158 -98 137 -35 -25c-6,-4 -13,-2 -18,4 -3,5 -3,12 3,17l92 66c7,4 14,1 18,-4 3,-5 3,-13 -3,-17l-38 -27 98 -137 203 144 -112 157 -69 -49c-6,-4 -14,-1 -17,4 -4,4 -4,12 2,17l79 56c5,4 12,3 17,-4l216 -304c5,-6 2,-13 -3,-17 -5,-3 -12,-3 -16,3l-21 29 -444 -316 23 -32c4,-6 3,-13 -3,-17 -5,-3 -12,-3 -16,3l-223 313c-4,5 -3,13 3,17l89 63c7,5 14,2 17,-3zm540 -7l-48 66 -444 -316 47 -66 445 316zm-563 709l306 -321c4,-5 5,-13 0,-17l-76 -72c-4,-5 -13,-5 -17,0 -6,6 -5,14 0,18l67 64 -98 102 -394 -376 32 -34c4,-5 5,-12 0,-17 -5,-5 -13,-4 -18,1l-156 164c-4,5 -5,12 0,17 5,5 13,4 17,0l33 -35 395 376 -100 105 -67 -64c-5,-5 -13,-4 -18,0 -4,5 -4,14 1,18l75 72c5,5 13,4 18,-1zm-286 -525l56 -59 395 377 -56 59 -395 -377zm-120 338c-13,-11 -26,-13 -32,-8 -8,6 -9,19 -1,34l147 290c8,16 10,20 13,23 28,36 80,41 120,10 40,-32 48,-84 20,-120 -3,-3 -5,-5 -18,-17l-249 -212zm-3 30l232 198c10,9 15,13 18,17 22,28 11,65 -14,85 -26,20 -64,22 -86,-6 -3,-4 -6,-9 -13,-23l-137 -271zm-138 -180c-31,24 -37,68 -11,101 23,30 67,34 98,10 31,-25 38,-69 14,-99 -25,-32 -70,-37 -101,-12zm14 18c22,-17 52,-12 69,9 14,19 10,49 -11,65 -20,16 -50,13 -65,-6 -16,-21 -14,-51 7,-68z"/>
  </g>
 </g>
</svg>
