  0
SECTION
  2
HEADER
  9
$ACADVER
  1
AC1014
  9
$HANDSEED
  5
FFFF
  9
$MEASUREMENT
 70
     1
  0
ENDSEC
  0
SECTION
  2
TABLES
  0
TABLE
  2
VPORT
  5
8
330
0
100
AcDbSymbolTable
 70
     4
  0
VPORT
  5
2E
330
8
100
AcDbSymbolTableRecord
100
AcDbViewportTableRecord
  2
*ACTIVE
 70
     0
 10
0.0
 20
0.0
 11
1.0
 21
1.0
 12
210.0
 22
148.5
 13
0.0
 23
0.0
 14
10.0
 24
10.0
 15
10.0
 25
10.0
 16
0.0
 26
0.0
 36
1.0
 17
0.0
 27
0.0
 37
0.0
 40
341.0
 41
1.24
 42
50.0
 43
0.0
 44
0.0
 50
0.0
 51
0.0
 71
     0
 72
   100
 73
     1
 74
     3
 75
     0
 76
     0
 77
     0
 78
     0
  0
ENDTAB
  0
TABLE
  2
LTYPE
  5
5
330
0
100
AcDbSymbolTable
 70
     1
  0
LTYPE
  5
14
330
5
100
AcDbSymbolTableRecord
100
AcDbLinetypeTableRecord
  2
BYBLOCK
 70
     0
  3

 72
    65
 73
     0
 40
0.0
  0
LTYPE
  5
15
330
5
100
AcDbSymbolTableRecord
100
AcDbLinetypeTableRecord
  2
BYLAYER
 70
     0
  3

 72
    65
 73
     0
 40
0.0
  0
LTYPE
  5
16
330
5
100
AcDbSymbolTableRecord
100
AcDbLinetypeTableRecord
  2
CONTINUOUS
 70
     0
  3
Solid line
 72
    65
 73
     0
 40
0.0
  0
ENDTAB
  0
TABLE
  2
LAYER
  5
2
100
AcDbSymbolTable
 70
2
  0
LAYER
  5
50
100
AcDbSymbolTableRecord
100
AcDbLayerTableRecord
  2
0
 70
0
  6
CONTINUOUS
  0
LAYER
  5
51
100
AcDbSymbolTableRecord
100
AcDbLayerTableRecord
  2
Layer_1
 70
0
  6
CONTINUOUS
  0
ENDTAB
  0
TABLE
  2
STYLE
  5
3
330
0
100
AcDbSymbolTable
 70
     1
  0
STYLE
  5
11
330
3
100
AcDbSymbolTableRecord
100
AcDbTextStyleTableRecord
  2
STANDARD
 70
     0
 40
0.0
 41
1.0
 50
0.0
 71
     0
 42
2.5
  3
txt
  4

  0
ENDTAB
  0
TABLE
  2
VIEW
  5
6
330
0
100
AcDbSymbolTable
 70
     0
  0
ENDTAB
  0
TABLE
  2
UCS
  5
7
330
0
100
AcDbSymbolTable
 70
     0
  0
ENDTAB
  0
TABLE
  2
APPID
  5
9
330
0
100
AcDbSymbolTable
 70
     2
  0
APPID
  5
12
330
9
100
AcDbSymbolTableRecord
100
AcDbRegAppTableRecord
  2
ACAD
 70
     0
  0
ENDTAB
  0
TABLE
  2
DIMSTYLE
  5
A
330
0
100
AcDbSymbolTable
 70
     1
  0
DIMSTYLE
105
27
330
A
100
AcDbSymbolTableRecord
100
AcDbDimStyleTableRecord
  2
ISO-25
 70
     0
  3

  4

  5

  6

  7

 40
1.0
 41
2.5
 42
0.625
 43
3.75
 44
1.25
 45
0.0
 46
0.0
 47
0.0
 48
0.0
140
2.5
141
2.5
142
0.0
143
0.03937007874016
144
1.0
145
0.0
146
1.0
147
0.625
 71
     0
 72
     0
 73
     0
 74
     0
 75
     0
 76
     0
 77
     1
 78
     8
170
     0
171
     3
172
     1
173
     0
174
     0
175
     0
176
     0
177
     0
178
     0
270
     2
271
     2
272
     2
273
     2
274
     3
340
11
275
     0
280
     0
281
     0
282
     0
283
     0
284
     8
285
     0
286
     0
287
     3
288
     0
  0
ENDTAB
  0
TABLE
  2
BLOCK_RECORD
  5
1
330
0
100
AcDbSymbolTable
 70
     1
  0
BLOCK_RECORD
  5
1F
330
1
100
AcDbSymbolTableRecord
100
AcDbBlockTableRecord
  2
*MODEL_SPACE
  0
BLOCK_RECORD
  5
1B
330
1
100
AcDbSymbolTableRecord
100
AcDbBlockTableRecord
  2
*PAPER_SPACE
  0
ENDTAB
  0
ENDSEC
  0
SECTION
  2
BLOCKS
  0
BLOCK
  5
20
330
1F
100
AcDbEntity
  8
0
100
AcDbBlockBegin
  2
*MODEL_SPACE
 70
     0
 10
0.0
 20
0.0
 30
0.0
  3
*MODEL_SPACE
  1

  0
ENDBLK
  5
21
330
1F
100
AcDbEntity
  8
0
100
AcDbBlockEnd
  0
BLOCK
  5
1C
330
1B
100
AcDbEntity
 67
     1
  8
0
100
AcDbBlockBegin
  2
*PAPER_SPACE
  1

  0
ENDBLK
  5
1D
330
1B
100
AcDbEntity
 67
     1
  8
0
100
AcDbBlockEnd
  0
ENDSEC
  0
SECTION
  2
ENTITIES
  0
SPLINE
  5
100
100
AcDbEntity
  8
Layer_1
 62
7
100
AcDbSpline
 70
8
 71
3
 72
8
 73
4
 74
0
 40
0
 40
0
 40
0
 40
0
 40
1
 40
1
 40
1
 40
1
 10
91.288399
 20
241.594471
 30
0.0
 10
94.513659
 20
246.333549
 30
0.0
 10
99.359598
 20
250.550332
 30
0.0
 10
103.202546
 20
253.795327
 30
0.0
  0
SPLINE
  5
101
100
AcDbEntity
  8
Layer_1
 62
7
100
AcDbSpline
 70
8
 71
3
 72
8
 73
4
 74
0
 40
0
 40
0
 40
0
 40
0
 40
1
 40
1
 40
1
 40
1
 10
98.839176
 20
224.600515
 30
0.0
 10
96.441633
 20
219.059214
 30
0.0
 10
95.775696
 20
211.456824
 30
0.0
 10
95.505391
 20
206.591290
 30
0.0
  0
SPLINE
  5
102
100
AcDbEntity
  8
Layer_1
 62
7
100
AcDbSpline
 70
8
 71
3
 72
8
 73
4
 74
0
 40
0
 40
0
 40
0
 40
0
 40
1
 40
1
 40
1
 40
1
 10
100.651889
 20
224.341370
 30
0.0
 10
98.991556
 20
219.629652
 30
0.0
 10
98.253515
 20
210.600851
 30
0.0
 10
98.523819
 20
208.933958
 30
0.0
  0
SPLINE
  5
103
100
AcDbEntity
  8
Layer_1
 62
7
100
AcDbSpline
 70
8
 71
3
 72
8
 73
4
 74
0
 40
0
 40
0
 40
0
 40
0
 40
1
 40
1
 40
1
 40
1
 10
98.523819
 20
208.933958
 30
0.0
 10
100.506069
 20
207.582423
 30
0.0
 10
105.191398
 20
206.861601
 30
0.0
 10
107.804369
 20
207.312111
 30
0.0
  0
SPLINE
  5
104
100
AcDbEntity
  8
Layer_1
 62
7
100
AcDbSpline
 70
8
 71
3
 72
8
 73
4
 74
0
 40
0
 40
0
 40
0
 40
0
 40
1
 40
1
 40
1
 40
1
 10
98.742706
 20
214.548711
 30
0.0
 10
99.650602
 20
210.232222
 30
0.0
 10
105.161697
 20
207.317391
 30
0.0
 10
107.152700
 20
209.117259
 30
0.0
  0
SPLINE
  5
105
100
AcDbEntity
  8
Layer_1
 62
7
100
AcDbSpline
 70
8
 71
3
 72
8
 73
4
 74
0
 40
0
 40
0
 40
0
 40
0
 40
1
 40
1
 40
1
 40
1
 10
105.934744
 20
217.414848
 30
0.0
 10
106.396521
 20
215.263652
 30
0.0
 10
107.092881
 20
210.050573
 30
0.0
 10
107.107822
 20
209.242735
 30
0.0
  0
SPLINE
  5
106
100
AcDbEntity
  8
Layer_1
 62
7
100
AcDbSpline
 70
8
 71
3
 72
8
 73
4
 74
0
 40
0
 40
0
 40
0
 40
0
 40
1
 40
1
 40
1
 40
1
 10
108.012805
 20
208.559780
 30
0.0
 10
109.390583
 20
208.583650
 30
0.0
 10
111.166555
 20
208.058041
 30
0.0
 10
111.676249
 20
207.667809
 30
0.0
  0
SPLINE
  5
107
100
AcDbEntity
  8
Layer_1
 62
7
100
AcDbSpline
 70
8
 71
3
 72
8
 73
4
 74
0
 40
0
 40
0
 40
0
 40
0
 40
1
 40
1
 40
1
 40
1
 10
108.007101
 20
208.551022
 30
0.0
 10
107.697374
 20
206.805289
 30
0.0
 10
107.601638
 20
205.892997
 30
0.0
 10
107.511538
 20
204.541463
 30
0.0
  0
SPLINE
  5
108
100
AcDbEntity
  8
Layer_1
 62
7
100
AcDbSpline
 70
8
 71
3
 72
8
 73
4
 74
0
 40
0
 40
0
 40
0
 40
0
 40
1
 40
1
 40
1
 40
1
 10
107.503111
 20
204.514070
 30
0.0
 10
108.713642
 20
203.558389
 30
0.0
 10
112.663788
 20
203.016836
 30
0.0
 10
113.460191
 20
203.112404
 30
0.0
  0
SPLINE
  5
109
100
AcDbEntity
  8
Layer_1
 62
7
100
AcDbSpline
 70
8
 71
3
 72
8
 73
4
 74
0
 40
0
 40
0
 40
0
 40
0
 40
1
 40
1
 40
1
 40
1
 10
113.460191
 20
203.112404
 30
0.0
 10
113.300908
 20
204.482211
 30
0.0
 10
112.281518
 20
206.743987
 30
0.0
 10
111.771823
 20
207.604100
 30
0.0
  0
SPLINE
  5
10a
100
AcDbEntity
  8
Layer_1
 62
7
100
AcDbSpline
 70
8
 71
3
 72
8
 73
4
 74
0
 40
0
 40
0
 40
0
 40
0
 40
1
 40
1
 40
1
 40
1
 10
111.644398
 20
207.795234
 30
0.0
 10
112.026674
 20
211.299401
 30
0.0
 10
112.504511
 20
224.392221
 30
0.0
 10
111.580684
 20
230.572288
 30
0.0
  0
SPLINE
  5
10b
100
AcDbEntity
  8
Layer_1
 62
7
100
AcDbSpline
 70
8
 71
3
 72
8
 73
4
 74
0
 40
0
 40
0
 40
0
 40
0
 40
1
 40
1
 40
1
 40
1
 10
111.580684
 20
230.572288
 30
0.0
 10
111.129459
 20
233.324727
 30
0.0
 10
107.821673
 20
233.662327
 30
0.0
 10
106.674858
 20
233.184483
 30
0.0
  0
SPLINE
  5
10c
100
AcDbEntity
  8
Layer_1
 62
7
100
AcDbSpline
 70
8
 71
3
 72
8
 73
4
 74
0
 40
0
 40
0
 40
0
 40
0
 40
1
 40
1
 40
1
 40
1
 10
106.903350
 20
229.297104
 30
0.0
 10
106.768199
 20
227.179694
 30
0.0
 10
106.317682
 20
225.512801
 30
0.0
 10
105.551808
 20
224.386524
 30
0.0
  0
SPLINE
  5
10d
100
AcDbEntity
  8
Layer_1
 62
7
100
AcDbSpline
 70
8
 71
3
 72
8
 73
4
 74
0
 40
0
 40
0
 40
0
 40
0
 40
1
 40
1
 40
1
 40
1
 10
105.596860
 20
221.570820
 30
0.0
 10
105.506762
 20
222.449320
 30
0.0
 10
105.285522
 20
223.983980
 30
0.0
 10
105.574338
 20
224.363997
 30
0.0
  0
SPLINE
  5
10e
100
AcDbEntity
  8
Layer_1
 62
7
100
AcDbSpline
 70
8
 71
3
 72
8
 73
4
 74
0
 40
0
 40
0
 40
0
 40
0
 40
1
 40
1
 40
1
 40
1
 10
105.574338
 20
224.363997
 30
0.0
 10
105.751516
 20
224.597144
 30
0.0
 10
106.151734
 20
224.864826
 30
0.0
 10
106.295159
 20
224.454096
 30
0.0
  0
SPLINE
  5
10f
100
AcDbEntity
  8
Layer_1
 62
7
100
AcDbSpline
 70
8
 71
3
 72
8
 73
4
 74
0
 40
0
 40
0
 40
0
 40
0
 40
1
 40
1
 40
1
 40
1
 10
106.295159
 20
224.454096
 30
0.0
 10
106.732852
 20
223.200684
 30
0.0
 10
107.939526
 20
218.845215
 30
0.0
 10
107.962052
 20
213.754432
 30
0.0
  0
SPLINE
  5
110
100
AcDbEntity
  8
Layer_1
 62
7
100
AcDbSpline
 70
8
 71
3
 72
8
 73
4
 74
0
 40
0
 40
0
 40
0
 40
0
 40
1
 40
1
 40
1
 40
1
 10
104.898567
 20
220.331918
 30
0.0
 10
105.867166
 20
220.714854
 30
0.0
 10
106.340208
 20
219.295732
 30
0.0
 10
106.317682
 20
217.944197
 30
0.0
  0
LWPOLYLINE
  5
111
100
AcDbEntity
  8
Layer_1
 62
7
100
AcDbPolyline
 90
2
 70
0
 10
107.107822
 20
209.242735
 30
0.0
 10
108.012805
 20
208.559780
 30
0.0
  0
SPLINE
  5
112
100
AcDbEntity
  8
Layer_1
 62
7
100
AcDbSpline
 70
8
 71
3
 72
8
 73
4
 74
0
 40
0
 40
0
 40
0
 40
0
 40
1
 40
1
 40
1
 40
1
 10
105.844646
 20
217.426107
 30
0.0
 10
104.830994
 20
215.443857
 30
0.0
 10
103.592084
 20
214.475259
 30
0.0
 10
102.240549
 20
214.407679
 30
0.0
  0
SPLINE
  5
113
100
AcDbEntity
  8
Layer_1
 62
7
100
AcDbSpline
 70
8
 71
3
 72
8
 73
4
 74
0
 40
0
 40
0
 40
0
 40
0
 40
1
 40
1
 40
1
 40
1
 10
103.119048
 20
216.029526
 30
0.0
 10
102.353175
 20
214.362633
 30
0.0
 10
101.609827
 20
213.664332
 30
0.0
 10
101.001639
 20
213.889590
 30
0.0
  0
SPLINE
  5
114
100
AcDbEntity
  8
Layer_1
 62
7
100
AcDbSpline
 70
8
 71
3
 72
8
 73
4
 74
0
 40
0
 40
0
 40
0
 40
0
 40
1
 40
1
 40
1
 40
1
 10
102.600959
 20
218.507339
 30
0.0
 10
102.105397
 20
217.471161
 30
0.0
 10
101.407103
 20
215.714163
 30
0.0
 10
101.046692
 20
213.889590
 30
0.0
  0
SPLINE
  5
115
100
AcDbEntity
  8
Layer_1
 62
7
100
AcDbSpline
 70
8
 71
3
 72
8
 73
4
 74
0
 40
0
 40
0
 40
0
 40
0
 40
1
 40
1
 40
1
 40
1
 10
102.600959
 20
218.529865
 30
0.0
 10
101.497201
 20
218.507343
 30
0.0
 10
101.091739
 20
218.867750
 30
0.0
 10
101.091739
 20
219.791302
 30
0.0
  0
LWPOLYLINE
  5
116
100
AcDbEntity
  8
Layer_1
 62
7
100
AcDbPolyline
 90
2
 70
0
 10
107.466486
 20
219.070481
 30
0.0
 10
105.822120
 20
217.471161
 30
0.0
  0
SPLINE
  5
117
100
AcDbEntity
  8
Layer_1
 62
7
100
AcDbSpline
 70
8
 71
3
 72
8
 73
4
 74
0
 40
0
 40
0
 40
0
 40
0
 40
1
 40
1
 40
1
 40
1
 10
101.181837
 20
219.858879
 30
0.0
 10
101.767505
 20
219.948977
 30
0.0
 10
102.003687
 20
219.568610
 30
0.0
 10
102.496046
 20
219.514401
 30
0.0
  0
SPLINE
  5
118
100
AcDbEntity
  8
Layer_1
 62
7
100
AcDbSpline
 70
8
 71
3
 72
8
 73
4
 74
0
 40
0
 40
0
 40
0
 40
0
 40
1
 40
1
 40
1
 40
1
 10
102.496046
 20
219.514401
 30
0.0
 10
103.078385
 20
219.450284
 30
0.0
 10
103.152822
 20
219.802586
 30
0.0
 10
104.267838
 20
219.498491
 30
0.0
  0
SPLINE
  5
119
100
AcDbEntity
  8
Layer_1
 62
7
100
AcDbSpline
 70
8
 71
3
 72
8
 73
4
 74
0
 40
0
 40
0
 40
0
 40
0
 40
1
 40
1
 40
1
 40
1
 10
104.267838
 20
219.498491
 30
0.0
 10
105.484222
 20
221.097819
 30
0.0
 10
106.002318
 20
222.404294
 30
0.0
 10
106.520407
 20
223.575624
 30
0.0
  0
SPLINE
  5
11a
100
AcDbEntity
  8
Layer_1
 62
7
100
AcDbSpline
 70
8
 71
3
 72
8
 73
4
 74
0
 40
0
 40
0
 40
0
 40
0
 40
1
 40
1
 40
1
 40
1
 10
106.847030
 20
211.727128
 30
0.0
 10
109.426216
 20
207.751361
 30
0.0
 10
111.318367
 20
210.476958
 30
0.0
 10
111.892769
 20
211.254093
 30
0.0
  0
SPLINE
  5
11b
100
AcDbEntity
  8
Layer_1
 62
7
100
AcDbSpline
 70
8
 71
3
 72
8
 73
4
 74
0
 40
0
 40
0
 40
0
 40
0
 40
1
 40
1
 40
1
 40
1
 10
89.558627
 20
209.699826
 30
0.0
 10
95.235080
 20
204.563992
 30
0.0
 10
105.930882
 20
204.290713
 30
0.0
 10
107.507675
 20
204.515971
 30
0.0
  0
SPLINE
  5
11c
100
AcDbEntity
  8
Layer_1
 62
7
100
AcDbSpline
 70
8
 71
3
 72
8
 73
4
 74
0
 40
0
 40
0
 40
0
 40
0
 40
1
 40
1
 40
1
 40
1
 10
95.295270
 20
224.270830
 30
0.0
 10
97.222555
 20
224.987593
 30
0.0
 10
101.310125
 20
224.638914
 30
0.0
 10
102.218022
 20
223.508025
 30
0.0
  0
SPLINE
  5
11d
100
AcDbEntity
  8
Layer_1
 62
7
100
AcDbSpline
 70
8
 71
3
 72
8
 73
4
 74
0
 40
0
 40
0
 40
0
 40
0
 40
1
 40
1
 40
1
 40
1
 10
95.843274
 20
225.186986
 30
0.0
 10
96.448537
 20
225.680755
 30
0.0
 10
101.458001
 20
225.958403
 30
0.0
 10
102.668531
 20
224.206319
 30
0.0
  0
SPLINE
  5
11e
100
AcDbEntity
  8
Layer_1
 62
7
100
AcDbSpline
 70
8
 71
3
 72
8
 73
4
 74
0
 40
0
 40
0
 40
0
 40
0
 40
1
 40
1
 40
1
 40
1
 10
98.143289
 20
229.055595
 30
0.0
 10
99.258253
 20
229.549365
 30
0.0
 10
103.139026
 20
229.121070
 30
0.0
 10
103.951355
 20
228.197216
 30
0.0
  0
SPLINE
  5
11f
100
AcDbEntity
  8
Layer_1
 62
7
100
AcDbSpline
 70
8
 71
3
 72
8
 73
4
 74
0
 40
0
 40
0
 40
0
 40
0
 40
1
 40
1
 40
1
 40
1
 10
98.726551
 20
229.848985
 30
0.0
 10
100.829046
 20
230.645388
 30
0.0
 10
103.894907
 20
229.210207
 30
0.0
 10
104.245325
 20
228.891647
 30
0.0
  0
SPLINE
  5
120
100
AcDbEntity
  8
Layer_1
 62
7
100
AcDbSpline
 70
8
 71
3
 72
8
 73
4
 74
0
 40
0
 40
0
 40
0
 40
0
 40
1
 40
1
 40
1
 40
1
 10
105.536004
 20
229.409547
 30
0.0
 10
105.030942
 20
229.651446
 30
0.0
 10
104.345828
 20
229.037871
 30
0.0
 10
104.102480
 20
228.533501
 30
0.0
  0
SPLINE
  5
121
100
AcDbEntity
  8
Layer_1
 62
7
100
AcDbSpline
 70
8
 71
3
 72
8
 73
4
 74
0
 40
0
 40
0
 40
0
 40
0
 40
1
 40
1
 40
1
 40
1
 10
104.102480
 20
228.533501
 30
0.0
 10
103.858384
 20
228.027576
 30
0.0
 10
103.886905
 20
227.239999
 30
0.0
 10
104.389189
 20
226.988492
 30
0.0
  0
SPLINE
  5
122
100
AcDbEntity
  8
Layer_1
 62
7
100
AcDbSpline
 70
8
 71
3
 72
8
 73
4
 74
0
 40
0
 40
0
 40
0
 40
0
 40
1
 40
1
 40
1
 40
1
 10
104.389189
 20
226.988492
 30
0.0
 10
104.886761
 20
226.739339
 30
0.0
 10
105.431631
 20
227.302528
 30
0.0
 10
105.679354
 20
227.800814
 30
0.0
  0
SPLINE
  5
123
100
AcDbEntity
  8
Layer_1
 62
7
100
AcDbSpline
 70
8
 71
3
 72
8
 73
4
 74
0
 40
0
 40
0
 40
0
 40
0
 40
1
 40
1
 40
1
 40
1
 10
105.679354
 20
227.800814
 30
0.0
 10
105.936761
 20
228.318566
 30
0.0
 10
106.057484
 20
229.159787
 30
0.0
 10
105.536004
 20
229.409547
 30
0.0
  0
LWPOLYLINE
  5
124
100
AcDbEntity
  8
Layer_1
 62
7
100
AcDbPolyline
 90
2
 70
0
 10
101.091739
 20
219.791302
 30
0.0
 10
101.181837
 20
219.858879
 30
0.0
  0
SPLINE
  5
125
100
AcDbEntity
  8
Layer_1
 62
7
100
AcDbSpline
 70
8
 71
3
 72
8
 73
4
 74
0
 40
0
 40
0
 40
0
 40
0
 40
1
 40
1
 40
1
 40
1
 10
103.748422
 20
224.522290
 30
0.0
 10
103.243359
 20
224.764188
 30
0.0
 10
102.558247
 20
224.150613
 30
0.0
 10
102.314898
 20
223.646244
 30
0.0
  0
SPLINE
  5
126
100
AcDbEntity
  8
Layer_1
 62
7
100
AcDbSpline
 70
8
 71
3
 72
8
 73
4
 74
0
 40
0
 40
0
 40
0
 40
0
 40
1
 40
1
 40
1
 40
1
 10
102.314898
 20
223.646244
 30
0.0
 10
102.070802
 20
223.140319
 30
0.0
 10
102.099321
 20
222.352742
 30
0.0
 10
102.601606
 20
222.101234
 30
0.0
  0
SPLINE
  5
127
100
AcDbEntity
  8
Layer_1
 62
7
100
AcDbSpline
 70
8
 71
3
 72
8
 73
4
 74
0
 40
0
 40
0
 40
0
 40
0
 40
1
 40
1
 40
1
 40
1
 10
102.601606
 20
222.101234
 30
0.0
 10
103.099179
 20
221.852082
 30
0.0
 10
103.644048
 20
222.415270
 30
0.0
 10
103.891773
 20
222.913557
 30
0.0
  0
SPLINE
  5
128
100
AcDbEntity
  8
Layer_1
 62
7
100
AcDbSpline
 70
8
 71
3
 72
8
 73
4
 74
0
 40
0
 40
0
 40
0
 40
0
 40
1
 40
1
 40
1
 40
1
 10
103.891773
 20
222.913557
 30
0.0
 10
104.149178
 20
223.431309
 30
0.0
 10
104.269902
 20
224.272530
 30
0.0
 10
103.748422
 20
224.522290
 30
0.0
  0
LWPOLYLINE
  5
129
100
AcDbEntity
  8
Layer_1
 62
7
100
AcDbPolyline
 90
1
 70
1
 10
105.536004
 20
229.409547
 30
0.0
  0
SPLINE
  5
12a
100
AcDbEntity
  8
Layer_1
 62
7
100
AcDbSpline
 70
8
 71
3
 72
8
 73
4
 74
0
 40
0
 40
0
 40
0
 40
0
 40
1
 40
1
 40
1
 40
1
 10
97.352489
 20
224.656829
 30
0.0
 10
95.505391
 20
221.075258
 30
0.0
 10
93.646460
 20
213.249774
 30
0.0
 10
93.443728
 20
210.659328
 30
0.0
  0
LWPOLYLINE
  5
12b
100
AcDbEntity
  8
Layer_1
 62
7
100
AcDbPolyline
 90
1
 70
1
 10
103.748422
 20
224.522290
 30
0.0
  0
SPLINE
  5
12c
100
AcDbEntity
  8
Layer_1
 62
7
100
AcDbSpline
 70
8
 71
3
 72
8
 73
4
 74
0
 40
0
 40
0
 40
0
 40
0
 40
1
 40
1
 40
1
 40
1
 10
93.365453
 20
210.555803
 30
0.0
 10
92.081491
 20
210.465705
 30
0.0
 10
90.881509
 20
211.273142
 30
0.0
 10
90.273314
 20
211.926389
 30
0.0
  0
SPLINE
  5
12d
100
AcDbEntity
  8
Layer_1
 62
7
100
AcDbSpline
 70
8
 71
3
 72
8
 73
4
 74
0
 40
0
 40
0
 40
0
 40
0
 40
1
 40
1
 40
1
 40
1
 10
94.041224
 20
214.723037
 30
0.0
 10
93.230303
 20
213.799485
 30
0.0
 10
91.585930
 20
212.470476
 30
0.0
 10
90.437126
 20
212.808360
 30
0.0
  0
SPLINE
  5
12e
100
AcDbEntity
  8
Layer_1
 62
7
100
AcDbSpline
 70
8
 71
3
 72
8
 73
4
 74
0
 40
0
 40
0
 40
0
 40
0
 40
1
 40
1
 40
1
 40
1
 10
89.663741
 20
209.579176
 30
0.0
 10
91.172571
 20
215.859455
 30
0.0
 10
96.003090
 20
227.418545
 30
0.0
 10
100.399223
 20
231.814676
 30
0.0
  0
SPLINE
  5
12f
100
AcDbEntity
  8
Layer_1
 62
7
100
AcDbSpline
 70
8
 71
3
 72
8
 73
4
 74
0
 40
0
 40
0
 40
0
 40
0
 40
1
 40
1
 40
1
 40
1
 10
98.790496
 20
229.982958
 30
0.0
 10
97.818891
 20
230.460801
 30
0.0
 10
97.194797
 20
229.570847
 30
0.0
 10
96.910987
 20
228.915778
 30
0.0
  0
SPLINE
  5
130
100
AcDbEntity
  8
Layer_1
 62
7
100
AcDbSpline
 70
8
 71
3
 72
8
 73
4
 74
0
 40
0
 40
0
 40
0
 40
0
 40
1
 40
1
 40
1
 40
1
 10
96.910987
 20
228.915778
 30
0.0
 10
96.748670
 20
228.541127
 30
0.0
 10
96.831354
 20
227.991956
 30
0.0
 10
97.261405
 20
227.705254
 30
0.0
  0
SPLINE
  5
131
100
AcDbEntity
  8
Layer_1
 62
7
100
AcDbSpline
 70
8
 71
3
 72
8
 73
4
 74
0
 40
0
 40
0
 40
0
 40
0
 40
1
 40
1
 40
1
 40
1
 10
95.859739
 20
225.379759
 30
0.0
 10
95.429686
 20
225.618678
 30
0.0
 10
94.729686
 20
224.999425
 30
0.0
 10
94.474000
 20
224.519646
 30
0.0
  0
SPLINE
  5
132
100
AcDbEntity
  8
Layer_1
 62
7
100
AcDbSpline
 70
8
 71
3
 72
8
 73
4
 74
0
 40
0
 40
0
 40
0
 40
0
 40
1
 40
1
 40
1
 40
1
 10
94.474000
 20
224.519646
 30
0.0
 10
94.196650
 20
223.999219
 30
0.0
 10
94.235082
 20
223.309115
 30
0.0
 10
94.585499
 20
222.942772
 30
0.0
  0
SPLINE
  5
133
100
AcDbEntity
  8
Layer_1
 62
7
100
AcDbSpline
 70
8
 71
3
 72
8
 73
4
 74
0
 40
0
 40
0
 40
0
 40
0
 40
1
 40
1
 40
1
 40
1
 10
94.334060
 20
224.521676
 30
0.0
 10
93.041198
 20
225.978232
 30
0.0
 10
95.517676
 20
226.011046
 30
0.0
 10
97.059658
 20
227.900522
 30
0.0
  0
SPLINE
  5
134
100
AcDbEntity
  8
Layer_1
 62
7
100
AcDbSpline
 70
8
 71
3
 72
8
 73
4
 74
0
 40
0
 40
0
 40
0
 40
0
 40
1
 40
1
 40
1
 40
1
 10
94.018704
 20
221.548294
 30
0.0
 10
91.248053
 20
219.566044
 30
0.0
 10
90.932689
 20
215.871840
 30
0.0
 10
89.378421
 20
216.412456
 30
0.0
  0
SPLINE
  5
135
100
AcDbEntity
  8
Layer_1
 62
7
100
AcDbSpline
 70
8
 71
3
 72
8
 73
4
 74
0
 40
0
 40
0
 40
0
 40
0
 40
1
 40
1
 40
1
 40
1
 10
94.108802
 20
224.769461
 30
0.0
 10
94.108802
 20
224.769461
 30
0.0
 10
92.486956
 20
223.665703
 30
0.0
 10
92.013919
 20
223.147614
 30
0.0
  0
SPLINE
  5
136
100
AcDbEntity
  8
Layer_1
 62
7
100
AcDbSpline
 70
8
 71
3
 72
8
 73
4
 74
0
 40
0
 40
0
 40
0
 40
0
 40
1
 40
1
 40
1
 40
1
 10
93.500614
 20
221.165364
 30
0.0
 10
93.027578
 20
222.516900
 30
0.0
 10
92.171605
 20
224.273899
 30
0.0
 10
89.558633
 20
222.404274
 30
0.0
  0
LWPOLYLINE
  5
137
100
AcDbEntity
  8
Layer_1
 62
7
100
AcDbPolyline
 90
2
 70
0
 10
93.443728
 20
210.659328
 30
0.0
 10
93.365453
 20
210.555803
 30
0.0
  0
SPLINE
  5
138
100
AcDbEntity
  8
Layer_1
 62
7
100
AcDbSpline
 70
8
 71
3
 72
8
 73
4
 74
0
 40
0
 40
0
 40
0
 40
0
 40
1
 40
1
 40
1
 40
1
 10
88.162045
 20
222.381677
 30
0.0
 10
87.869214
 20
220.782357
 30
0.0
 10
89.806411
 20
221.232866
 30
0.0
 10
89.806411
 20
221.232866
 30
0.0
  0
SPLINE
  5
139
100
AcDbEntity
  8
Layer_1
 62
7
100
AcDbSpline
 70
8
 71
3
 72
8
 73
4
 74
0
 40
0
 40
0
 40
0
 40
0
 40
1
 40
1
 40
1
 40
1
 10
89.806411
 20
221.232866
 30
0.0
 10
89.806411
 20
221.232866
 30
0.0
 10
88.544975
 20
219.115464
 30
0.0
 10
88.882859
 20
217.538671
 30
0.0
  0
SPLINE
  5
13a
100
AcDbEntity
  8
Layer_1
 62
7
100
AcDbSpline
 70
8
 71
3
 72
8
 73
4
 74
0
 40
0
 40
0
 40
0
 40
0
 40
1
 40
1
 40
1
 40
1
 10
88.995491
 20
217.527481
 30
0.0
 10
88.984241
 20
216.457517
 30
0.0
 10
89.446001
 20
216.615187
 30
0.0
 10
89.446001
 20
216.615187
 30
0.0
  0
SPLINE
  5
13b
100
AcDbEntity
  8
Layer_1
 62
7
100
AcDbSpline
 70
8
 71
3
 72
8
 73
4
 74
0
 40
0
 40
0
 40
0
 40
0
 40
1
 40
1
 40
1
 40
1
 10
89.491054
 20
218.867750
 30
0.0
 10
89.491054
 20
218.867750
 30
0.0
 10
89.018011
 20
217.820311
 30
0.0
 10
88.905385
 20
217.437375
 30
0.0
  0
SPLINE
  5
13c
100
AcDbEntity
  8
Layer_1
 62
7
100
AcDbSpline
 70
8
 71
3
 72
8
 73
4
 74
0
 40
0
 40
0
 40
0
 40
0
 40
1
 40
1
 40
1
 40
1
 10
90.279447
 20
218.788910
 30
0.0
 10
89.952823
 20
218.304607
 30
0.0
 10
89.479787
 20
216.885499
 30
0.0
 10
89.389688
 20
216.468775
 30
0.0
  0
SPLINE
  5
13d
100
AcDbEntity
  8
Layer_1
 62
7
100
AcDbSpline
 70
8
 71
3
 72
8
 73
4
 74
0
 40
0
 40
0
 40
0
 40
0
 40
1
 40
1
 40
1
 40
1
 10
91.585937
 20
222.224062
 30
0.0
 10
91.112901
 20
221.660920
 30
0.0
 10
90.617331
 20
220.219285
 30
0.0
 10
90.527233
 20
219.228160
 30
0.0
  0
SPLINE
  5
13e
100
AcDbEntity
  8
Layer_1
 62
7
100
AcDbSpline
 70
8
 71
3
 72
8
 73
4
 74
0
 40
0
 40
0
 40
0
 40
0
 40
1
 40
1
 40
1
 40
1
 10
106.903350
 20
233.351717
 30
0.0
 10
111.160689
 20
237.068439
 30
0.0
 10
121.882881
 20
235.491653
 30
0.0
 10
122.581176
 20
235.243868
 30
0.0
  0
SPLINE
  5
13f
100
AcDbEntity
  8
Layer_1
 62
7
100
AcDbSpline
 70
8
 71
3
 72
8
 73
4
 74
0
 40
0
 40
0
 40
0
 40
0
 40
1
 40
1
 40
1
 40
1
 10
110.867858
 20
232.247959
 30
0.0
 10
113.413250
 20
235.288914
 30
0.0
 10
121.026909
 20
235.131241
 30
0.0
 10
122.513598
 20
235.266395
 30
0.0
  0
SPLINE
  5
140
100
AcDbEntity
  8
Layer_1
 62
7
100
AcDbSpline
 70
8
 71
3
 72
8
 73
4
 74
0
 40
0
 40
0
 40
0
 40
0
 40
1
 40
1
 40
1
 40
1
 10
108.750449
 20
233.329191
 30
0.0
 10
110.214609
 20
234.680726
 30
0.0
 10
113.233045
 20
234.590626
 30
0.0
 10
114.449428
 20
234.365369
 30
0.0
  0
SPLINE
  5
141
100
AcDbEntity
  8
Layer_1
 62
7
100
AcDbSpline
 70
8
 71
3
 72
8
 73
4
 74
0
 40
0
 40
0
 40
0
 40
0
 40
1
 40
1
 40
1
 40
1
 10
97.644477
 20
225.518114
 30
0.0
 10
97.948575
 20
226.385354
 30
0.0
 10
99.677788
 20
229.243662
 30
0.0
 10
99.677788
 20
229.243662
 30
0.0
  0
SPLINE
  5
142
100
AcDbEntity
  8
Layer_1
 62
7
100
AcDbSpline
 70
8
 71
3
 72
8
 73
4
 74
0
 40
0
 40
0
 40
0
 40
0
 40
1
 40
1
 40
1
 40
1
 10
100.217412
 20
230.079320
 30
0.0
 10
100.487723
 20
230.597410
 30
0.0
 10
101.360034
 20
231.474858
 30
0.0
 10
101.641604
 20
231.846528
 30
0.0
  0
SPLINE
  5
143
100
AcDbEntity
  8
Layer_1
 62
7
100
AcDbSpline
 70
8
 71
3
 72
8
 73
4
 74
0
 40
0
 40
0
 40
0
 40
0
 40
1
 40
1
 40
1
 40
1
 10
99.235309
 20
225.629297
 30
0.0
 10
99.442376
 20
226.298275
 30
0.0
 10
100.455394
 20
228.396084
 30
0.0
 10
100.956585
 20
229.161958
 30
0.0
  0
SPLINE
  5
144
100
AcDbEntity
  8
Layer_1
 62
7
100
AcDbSpline
 70
8
 71
3
 72
8
 73
4
 74
0
 40
0
 40
0
 40
0
 40
0
 40
1
 40
1
 40
1
 40
1
 10
101.497201
 20
229.972871
 30
0.0
 10
101.812559
 20
230.547274
 30
0.0
 10
102.330655
 20
231.189262
 30
0.0
 10
102.938844
 20
231.819976
 30
0.0
  0
SPLINE
  5
145
100
AcDbEntity
  8
Layer_1
 62
7
100
AcDbSpline
 70
8
 71
3
 72
8
 73
4
 74
0
 40
0
 40
0
 40
0
 40
0
 40
1
 40
1
 40
1
 40
1
 10
100.979113
 20
225.287549
 30
0.0
 10
101.233964
 20
226.004311
 30
0.0
 10
102.209351
 20
228.228130
 30
0.0
 10
102.623479
 20
228.801541
 30
0.0
  0
SPLINE
  5
146
100
AcDbEntity
  8
Layer_1
 62
7
100
AcDbSpline
 70
8
 71
3
 72
8
 73
4
 74
0
 40
0
 40
0
 40
0
 40
0
 40
1
 40
1
 40
1
 40
1
 10
103.028942
 20
229.544888
 30
0.0
 10
103.228040
 20
230.014762
 30
0.0
 10
104.148821
 20
231.481384
 30
0.0
 10
104.785941
 20
231.887548
 30
0.0
  0
SPLINE
  5
147
100
AcDbEntity
  8
Layer_1
 62
7
100
AcDbSpline
 70
8
 71
3
 72
8
 73
4
 74
0
 40
0
 40
0
 40
0
 40
0
 40
1
 40
1
 40
1
 40
1
 10
94.559312
 20
236.910761
 30
0.0
 10
95.306395
 20
236.250838
 30
0.0
 10
95.836398
 20
235.572743
 30
0.0
 10
95.975399
 20
235.126233
 30
0.0
  0
SPLINE
  5
148
100
AcDbEntity
  8
Layer_1
 62
7
100
AcDbSpline
 70
8
 71
3
 72
8
 73
4
 74
0
 40
0
 40
0
 40
0
 40
0
 40
1
 40
1
 40
1
 40
1
 10
95.975399
 20
235.126233
 30
0.0
 10
96.163649
 20
234.521551
 30
0.0
 10
95.415595
 20
233.746473
 30
0.0
 10
98.101338
 20
232.009654
 30
0.0
  0
SPLINE
  5
149
100
AcDbEntity
  8
Layer_1
 62
7
100
AcDbSpline
 70
8
 71
3
 72
8
 73
4
 74
0
 40
0
 40
0
 40
0
 40
0
 40
1
 40
1
 40
1
 40
1
 10
98.101338
 20
232.009654
 30
0.0
 10
101.685707
 20
232.233031
 30
0.0
 10
103.993913
 20
231.436951
 30
0.0
 10
105.710896
 20
232.355035
 30
0.0
  0
SPLINE
  5
14a
100
AcDbEntity
  8
Layer_1
 62
7
100
AcDbSpline
 70
8
 71
3
 72
8
 73
4
 74
0
 40
0
 40
0
 40
0
 40
0
 40
1
 40
1
 40
1
 40
1
 10
105.710896
 20
232.355035
 30
0.0
 10
107.556505
 20
233.341899
 30
0.0
 10
108.621890
 20
235.826414
 30
0.0
 10
109.478187
 20
239.492009
 30
0.0
  0
SPLINE
  5
14b
100
AcDbEntity
  8
Layer_1
 62
7
100
AcDbSpline
 70
8
 71
3
 72
8
 73
4
 74
0
 40
0
 40
0
 40
0
 40
0
 40
1
 40
1
 40
1
 40
1
 10
107.331333
 20
243.308034
 30
0.0
 10
110.957957
 20
247.632952
 30
0.0
 10
113.345670
 20
240.402232
 30
0.0
 10
109.448742
 20
239.501206
 30
0.0
  0
SPLINE
  5
14c
100
AcDbEntity
  8
Layer_1
 62
7
100
AcDbSpline
 70
8
 71
3
 72
8
 73
4
 74
0
 40
0
 40
0
 40
0
 40
0
 40
1
 40
1
 40
1
 40
1
 10
108.502663
 20
241.618615
 30
0.0
 10
108.953173
 20
241.911446
 30
0.0
 10
109.651474
 20
242.947624
 30
0.0
 10
109.764101
 20
243.600865
 30
0.0
  0
SPLINE
  5
14d
100
AcDbEntity
  8
Layer_1
 62
7
100
AcDbSpline
 70
8
 71
3
 72
8
 73
4
 74
0
 40
0
 40
0
 40
0
 40
0
 40
1
 40
1
 40
1
 40
1
 10
98.591398
 20
234.241477
 30
0.0
 10
98.803192
 20
233.855263
 30
0.0
 10
99.665759
 20
234.197919
 30
0.0
 10
100.655684
 20
234.833435
 30
0.0
  0
SPLINE
  5
14e
100
AcDbEntity
  8
Layer_1
 62
7
100
AcDbSpline
 70
8
 71
3
 72
8
 73
4
 74
0
 40
0
 40
0
 40
0
 40
0
 40
1
 40
1
 40
1
 40
1
 10
100.655684
 20
234.833435
 30
0.0
 10
102.350525
 20
235.921497
 30
0.0
 10
104.418701
 20
237.868012
 30
0.0
 10
104.233465
 20
238.484898
 30
0.0
  0
SPLINE
  5
14f
100
AcDbEntity
  8
Layer_1
 62
7
100
AcDbSpline
 70
8
 71
3
 72
8
 73
4
 74
0
 40
0
 40
0
 40
0
 40
0
 40
1
 40
1
 40
1
 40
1
 10
104.233465
 20
238.484898
 30
0.0
 10
104.839267
 20
237.054186
 30
0.0
 10
104.603902
 20
234.063637
 30
0.0
 10
103.887450
 20
233.598611
 30
0.0
  0
SPLINE
  5
150
100
AcDbEntity
  8
Layer_1
 62
7
100
AcDbSpline
 70
8
 71
3
 72
8
 73
4
 74
0
 40
0
 40
0
 40
0
 40
0
 40
1
 40
1
 40
1
 40
1
 10
103.887450
 20
233.598611
 30
0.0
 10
102.917948
 20
232.969333
 30
0.0
 10
102.772493
 20
235.032135
 30
0.0
 10
100.303655
 20
234.586149
 30
0.0
  0
SPLINE
  5
151
100
AcDbEntity
  8
Layer_1
 62
7
100
AcDbSpline
 70
8
 71
3
 72
8
 73
4
 74
0
 40
0
 40
0
 40
0
 40
0
 40
1
 40
1
 40
1
 40
1
 10
101.136791
 20
234.669465
 30
0.0
 10
101.497201
 20
234.748303
 30
0.0
 10
104.008808
 20
235.671851
 30
0.0
 10
102.995156
 20
236.696770
 30
0.0
  0
SPLINE
  5
152
100
AcDbEntity
  8
Layer_1
 62
7
100
AcDbSpline
 70
8
 71
3
 72
8
 73
4
 74
0
 40
0
 40
0
 40
0
 40
0
 40
1
 40
1
 40
1
 40
1
 10
98.388667
 20
235.356493
 30
0.0
 10
98.675410
 20
235.848051
 30
0.0
 10
99.526211
 20
236.246259
 30
0.0
 10
99.672631
 20
236.201207
 30
0.0
  0
SPLINE
  5
153
100
AcDbEntity
  8
Layer_1
 62
7
100
AcDbSpline
 70
8
 71
3
 72
8
 73
4
 74
0
 40
0
 40
0
 40
0
 40
0
 40
1
 40
1
 40
1
 40
1
 10
100.192155
 20
238.297377
 30
0.0
 10
100.016946
 20
240.352088
 30
0.0
 10
102.246873
 20
240.559149
 30
0.0
 10
102.661001
 20
240.383939
 30
0.0
  0
SPLINE
  5
154
100
AcDbEntity
  8
Layer_1
 62
7
100
AcDbSpline
 70
8
 71
3
 72
8
 73
4
 74
0
 40
0
 40
0
 40
0
 40
0
 40
1
 40
1
 40
1
 40
1
 10
100.208087
 20
238.361086
 30
0.0
 10
100.534610
 20
239.181378
 30
0.0
 10
102.469859
 20
240.320230
 30
0.0
 10
102.653031
 20
240.328194
 30
0.0
  0
SPLINE
  5
155
100
AcDbEntity
  8
Layer_1
 62
7
100
AcDbSpline
 70
8
 71
3
 72
8
 73
4
 74
0
 40
0
 40
0
 40
0
 40
0
 40
1
 40
1
 40
1
 40
1
 10
101.068200
 20
240.097237
 30
0.0
 10
101.068200
 20
240.097237
 30
0.0
 10
100.996526
 20
239.611431
 30
0.0
 10
101.131913
 20
239.364550
 30
0.0
  0
SPLINE
  5
156
100
AcDbEntity
  8
Layer_1
 62
7
100
AcDbSpline
 70
8
 71
3
 72
8
 73
4
 74
0
 40
0
 40
0
 40
0
 40
0
 40
1
 40
1
 40
1
 40
1
 10
96.417218
 20
235.446263
 30
0.0
 10
96.321653
 20
236.879786
 30
0.0
 10
97.627743
 20
236.593084
 30
0.0
 10
97.707384
 20
236.433801
 30
0.0
  0
SPLINE
  5
157
100
AcDbEntity
  8
Layer_1
 62
7
100
AcDbSpline
 70
8
 71
3
 72
8
 73
4
 74
0
 40
0
 40
0
 40
0
 40
0
 40
1
 40
1
 40
1
 40
1
 10
96.393323
 20
235.454225
 30
0.0
 10
96.433167
 20
235.669255
 30
0.0
 10
97.611817
 20
236.481584
 30
0.0
 10
97.699421
 20
236.449726
 30
0.0
  0
LWPOLYLINE
  5
158
100
AcDbEntity
  8
Layer_1
 62
7
100
AcDbPolyline
 90
3
 70
0
 10
89.558633
 20
222.404274
 30
0.0
 10
89.474892
 20
222.377644
 30
0.0
 10
88.162045
 20
222.381677
 30
0.0
  0
SPLINE
  5
159
100
AcDbEntity
  8
Layer_1
 62
7
100
AcDbSpline
 70
8
 71
3
 72
8
 73
4
 74
0
 40
0
 40
0
 40
0
 40
0
 40
1
 40
1
 40
1
 40
1
 10
103.871525
 20
232.706640
 30
0.0
 10
104.588286
 20
232.531432
 30
0.0
 10
105.177623
 20
233.518970
 30
0.0
 10
105.289116
 20
233.741962
 30
0.0
  0
SPLINE
  5
15a
100
AcDbEntity
  8
Layer_1
 62
7
100
AcDbSpline
 70
8
 71
3
 72
8
 73
4
 74
0
 40
0
 40
0
 40
0
 40
0
 40
1
 40
1
 40
1
 40
1
 10
93.183833
 20
238.854856
 30
0.0
 10
92.936049
 20
237.818678
 30
0.0
 10
92.881199
 20
235.302912
 30
0.0
 10
92.881199
 20
235.302912
 30
0.0
  0
SPLINE
  5
15b
100
AcDbEntity
  8
Layer_1
 62
7
100
AcDbSpline
 70
8
 71
3
 72
8
 73
4
 74
0
 40
0
 40
0
 40
0
 40
0
 40
1
 40
1
 40
1
 40
1
 10
92.881199
 20
235.302912
 30
0.0
 10
94.059873
 20
237.054988
 30
0.0
 10
98.841038
 20
239.552637
 30
0.0
 10
100.590357
 20
241.897105
 30
0.0
  0
SPLINE
  5
15c
100
AcDbEntity
  8
Layer_1
 62
7
100
AcDbSpline
 70
8
 71
3
 72
8
 73
4
 74
0
 40
0
 40
0
 40
0
 40
0
 40
1
 40
1
 40
1
 40
1
 10
100.590357
 20
241.897105
 30
0.0
 10
101.445919
 20
243.043738
 30
0.0
 10
101.147835
 20
243.824391
 30
0.0
 10
101.354902
 20
246.404729
 30
0.0
  0
SPLINE
  5
15d
100
AcDbEntity
  8
Layer_1
 62
7
100
AcDbSpline
 70
8
 71
3
 72
8
 73
4
 74
0
 40
0
 40
0
 40
0
 40
0
 40
1
 40
1
 40
1
 40
1
 10
93.095151
 20
238.825438
 30
0.0
 10
96.046006
 20
241.663668
 30
0.0
 10
102.443274
 20
247.903256
 30
0.0
 10
107.106075
 20
250.313496
 30
0.0
  0
SPLINE
  5
15e
100
AcDbEntity
  8
Layer_1
 62
7
100
AcDbSpline
 70
8
 71
3
 72
8
 73
4
 74
0
 40
0
 40
0
 40
0
 40
0
 40
1
 40
1
 40
1
 40
1
 10
101.114265
 20
243.105303
 30
0.0
 10
101.114265
 20
243.105303
 30
0.0
 10
102.420754
 20
244.727150
 30
0.0
 10
103.389352
 20
245.110087
 30
0.0
  0
SPLINE
  5
15f
100
AcDbEntity
  8
Layer_1
 62
7
100
AcDbSpline
 70
8
 71
3
 72
8
 73
4
 74
0
 40
0
 40
0
 40
0
 40
0
 40
1
 40
1
 40
1
 40
1
 10
102.375701
 20
244.366739
 30
0.0
 10
103.265460
 20
244.394929
 30
0.0
 10
105.934752
 20
244.231587
 30
0.0
 10
107.398913
 20
243.330561
 30
0.0
  0
SPLINE
  5
160
100
AcDbEntity
  8
Layer_1
 62
7
100
AcDbSpline
 70
8
 71
3
 72
8
 73
4
 74
0
 40
0
 40
0
 40
0
 40
0
 40
1
 40
1
 40
1
 40
1
 10
107.120841
 20
250.291166
 30
0.0
 10
110.094223
 20
249.029729
 30
0.0
 10
110.987017
 20
245.471967
 30
0.0
 10
110.784285
 20
244.142957
 30
0.0
  0
SPLINE
  5
161
100
AcDbEntity
  8
Layer_1
 62
7
100
AcDbSpline
 70
8
 71
3
 72
8
 73
4
 74
0
 40
0
 40
0
 40
0
 40
0
 40
1
 40
1
 40
1
 40
1
 10
107.120841
 20
250.291166
 30
0.0
 10
106.865990
 20
251.183137
 30
0.0
 10
103.521107
 20
253.540483
 30
0.0
 10
103.234405
 20
253.827185
 30
0.0
  0
SPLINE
  5
162
100
AcDbEntity
  8
Layer_1
 62
7
100
AcDbSpline
 70
8
 71
3
 72
8
 73
4
 74
0
 40
0
 40
0
 40
0
 40
0
 40
1
 40
1
 40
1
 40
1
 10
102.394553
 20
247.140626
 30
0.0
 10
104.305913
 20
249.657248
 30
0.0
 10
105.400616
 20
257.458771
 30
0.0
 10
101.864597
 20
260.580662
 30
0.0
  0
SPLINE
  5
163
100
AcDbEntity
  8
Layer_1
 62
7
100
AcDbSpline
 70
8
 71
3
 72
8
 73
4
 74
0
 40
0
 40
0
 40
0
 40
0
 40
1
 40
1
 40
1
 40
1
 10
101.896455
 20
260.580662
 30
0.0
 10
98.806421
 20
257.904756
 30
0.0
 10
89.504464
 20
245.544623
 30
0.0
 10
88.453217
 20
242.900576
 30
0.0
  0
SPLINE
  5
164
100
AcDbEntity
  8
Layer_1
 62
7
100
AcDbSpline
 70
8
 71
3
 72
8
 73
4
 74
0
 40
0
 40
0
 40
0
 40
0
 40
1
 40
1
 40
1
 40
1
 10
101.896455
 20
260.612518
 30
0.0
 10
102.788426
 20
258.478164
 30
0.0
 10
103.489256
 20
255.897827
 30
0.0
 10
103.266263
 20
253.731617
 30
0.0
  0
SPLINE
  5
165
100
AcDbEntity
  8
Layer_1
 62
7
100
AcDbSpline
 70
8
 71
3
 72
8
 73
4
 74
0
 40
0
 40
0
 40
0
 40
0
 40
1
 40
1
 40
1
 40
1
 10
88.500198
 20
243.039254
 30
0.0
 10
87.948323
 20
241.597620
 30
0.0
 10
90.625489
 20
241.669446
 30
0.0
 10
91.447676
 20
241.658187
 30
0.0
  0
LWPOLYLINE
  5
166
100
AcDbEntity
  8
Layer_1
 62
7
100
AcDbPolyline
 90
2
 70
0
 10
96.632248
 20
236.306375
 30
0.0
 10
97.006555
 20
235.995778
 30
0.0
  0
SPLINE
  5
167
100
AcDbEntity
  8
Layer_1
 62
7
100
AcDbSpline
 70
8
 71
3
 72
8
 73
4
 74
0
 40
0
 40
0
 40
0
 40
0
 40
1
 40
1
 40
1
 40
1
 10
92.530782
 20
240.861783
 30
0.0
 10
91.208757
 20
240.049454
 30
0.0
 10
92.690065
 20
239.316767
 30
0.0
 10
93.151976
 20
238.838923
 30
0.0
  0
SPLINE
  5
168
100
AcDbEntity
  8
Layer_1
 62
7
100
AcDbSpline
 70
8
 71
3
 72
8
 73
4
 74
0
 40
0
 40
0
 40
0
 40
0
 40
1
 40
1
 40
1
 40
1
 10
92.530782
 20
240.957351
 30
0.0
 10
92.530782
 20
240.957351
 30
0.0
 10
98.568630
 20
246.999069
 30
0.0
 10
99.619878
 20
247.827324
 30
0.0
  0
SPLINE
  5
169
100
AcDbEntity
  8
Layer_1
 62
7
100
AcDbSpline
 70
8
 71
3
 72
8
 73
4
 74
0
 40
0
 40
0
 40
0
 40
0
 40
1
 40
1
 40
1
 40
1
 10
99.806818
 20
246.985867
 30
0.0
 10
99.296308
 20
247.555097
 30
0.0
 10
99.747753
 20
248.623430
 30
0.0
 10
100.335506
 20
249.112493
 30
0.0
  0
SPLINE
  5
16a
100
AcDbEntity
  8
Layer_1
 62
7
100
AcDbSpline
 70
8
 71
3
 72
8
 73
4
 74
0
 40
0
 40
0
 40
0
 40
0
 40
1
 40
1
 40
1
 40
1
 10
100.335506
 20
249.112493
 30
0.0
 10
100.866136
 20
249.554015
 30
0.0
 10
101.956220
 20
249.604185
 30
0.0
 10
102.406150
 20
249.080663
 30
0.0
  0
SPLINE
  5
16b
100
AcDbEntity
  8
Layer_1
 62
7
100
AcDbSpline
 70
8
 71
3
 72
8
 73
4
 74
0
 40
0
 40
0
 40
0
 40
0
 40
1
 40
1
 40
1
 40
1
 10
102.406150
 20
249.080663
 30
0.0
 10
102.867178
 20
248.544234
 30
0.0
 10
102.638420
 20
247.458761
 30
0.0
 10
102.119448
 20
246.978167
 30
0.0
  0
SPLINE
  5
16c
100
AcDbEntity
  8
Layer_1
 62
7
100
AcDbSpline
 70
8
 71
3
 72
8
 73
4
 74
0
 40
0
 40
0
 40
0
 40
0
 40
1
 40
1
 40
1
 40
1
 10
102.119448
 20
246.978167
 30
0.0
 10
101.588737
 20
246.486704
 30
0.0
 10
100.289752
 20
246.447376
 30
0.0
 10
99.806818
 20
246.985809
 30
0.0
  0
LWPOLYLINE
  5
16d
100
AcDbEntity
  8
Layer_1
 62
7
100
AcDbPolyline
 90
2
 70
0
 10
91.543244
 20
241.944889
 30
0.0
 10
92.530782
 20
240.861783
 30
0.0
  0
SPLINE
  5
16e
100
AcDbEntity
  8
Layer_1
 62
7
100
AcDbSpline
 70
8
 71
3
 72
8
 73
4
 74
0
 40
0
 40
0
 40
0
 40
0
 40
1
 40
1
 40
1
 40
1
 10
92.578565
 20
241.100702
 30
0.0
 10
92.682090
 20
241.435187
 30
0.0
 10
92.682079
 20
242.518300
 30
0.0
 10
92.594475
 20
242.884643
 30
0.0
  0
SPLINE
  5
16f
100
AcDbEntity
  8
Layer_1
 62
7
100
AcDbSpline
 70
8
 71
3
 72
8
 73
4
 74
0
 40
0
 40
0
 40
0
 40
0
 40
1
 40
1
 40
1
 40
1
 10
92.594475
 20
242.884643
 30
0.0
 10
92.594475
 20
242.884643
 30
0.0
 10
93.860752
 20
242.701472
 30
0.0
 10
94.314700
 20
242.741292
 30
0.0
  0
SPLINE
  5
170
100
AcDbEntity
  8
Layer_1
 62
7
100
AcDbSpline
 70
8
 71
3
 72
8
 73
4
 74
0
 40
0
 40
0
 40
0
 40
0
 40
1
 40
1
 40
1
 40
1
 10
94.314700
 20
242.741292
 30
0.0
 10
94.434162
 20
243.075778
 30
0.0
 10
94.298791
 20
244.652653
 30
0.0
 10
94.298791
 20
244.652653
 30
0.0
  0
SPLINE
  5
171
100
AcDbEntity
  8
Layer_1
 62
7
100
AcDbSpline
 70
8
 71
3
 72
8
 73
4
 74
0
 40
0
 40
0
 40
0
 40
0
 40
1
 40
1
 40
1
 40
1
 10
94.298791
 20
244.652653
 30
0.0
 10
94.904052
 20
244.631415
 30
0.0
 10
95.097163
 20
244.460857
 30
0.0
 10
96.114584
 20
244.588939
 30
0.0
  0
SPLINE
  5
172
100
AcDbEntity
  8
Layer_1
 62
7
100
AcDbSpline
 70
8
 71
3
 72
8
 73
4
 74
0
 40
0
 40
0
 40
0
 40
0
 40
1
 40
1
 40
1
 40
1
 10
110.115307
 20
239.651258
 30
0.0
 10
111.612540
 20
240.447662
 30
0.0
 10
115.976813
 20
237.899175
 30
0.0
 10
115.690111
 20
235.860389
 30
0.0
  0
SPLINE
  5
173
100
AcDbEntity
  8
Layer_1
 62
7
100
AcDbSpline
 70
8
 71
3
 72
8
 73
4
 74
0
 40
0
 40
0
 40
0
 40
0
 40
1
 40
1
 40
1
 40
1
 10
111.102846
 20
240.829926
 30
0.0
 10
112.377086
 20
240.829926
 30
0.0
 10
121.424194
 20
237.644325
 30
0.0
 10
122.539157
 20
235.286979
 30
0.0
  0
SPLINE
  5
174
100
AcDbEntity
  8
Layer_1
 62
7
100
AcDbSpline
 70
8
 71
3
 72
8
 73
4
 74
0
 40
0
 40
0
 40
0
 40
0
 40
1
 40
1
 40
1
 40
1
 10
98.041877
 20
205.597166
 30
0.0
 10
98.280795
 20
205.198971
 30
0.0
 10
98.502156
 20
204.957335
 30
0.0
 10
98.503787
 20
204.434428
 30
0.0
  0
SPLINE
  5
175
100
AcDbEntity
  8
Layer_1
 62
7
100
AcDbSpline
 70
8
 71
3
 72
8
 73
4
 74
0
 40
0
 40
0
 40
0
 40
0
 40
1
 40
1
 40
1
 40
1
 10
98.503787
 20
204.434428
 30
0.0
 10
98.507821
 20
203.222556
 30
0.0
 10
96.831339
 20
203.494680
 30
0.0
 10
96.640205
 20
200.930267
 30
0.0
  0
SPLINE
  5
176
100
AcDbEntity
  8
Layer_1
 62
7
100
AcDbSpline
 70
8
 71
3
 72
8
 73
4
 74
0
 40
0
 40
0
 40
0
 40
0
 40
1
 40
1
 40
1
 40
1
 10
96.926913
 20
203.176113
 30
0.0
 10
95.843807
 20
202.570851
 30
0.0
 10
95.270397
 20
201.328469
 30
0.0
 10
95.174829
 20
200.786916
 30
0.0
  0
SPLINE
  5
177
100
AcDbEntity
  8
Layer_1
 62
7
100
AcDbSpline
 70
8
 71
3
 72
8
 73
4
 74
0
 40
0
 40
0
 40
0
 40
0
 40
1
 40
1
 40
1
 40
1
 10
96.672069
 20
201.009909
 30
0.0
 10
96.226083
 20
200.786916
 30
0.0
 10
90.476070
 20
200.978089
 30
0.0
 10
89.870802
 20
201.471820
 30
0.0
  0
SPLINE
  5
178
100
AcDbEntity
  8
Layer_1
 62
7
100
AcDbSpline
 70
8
 71
3
 72
8
 73
4
 74
0
 40
0
 40
0
 40
0
 40
0
 40
1
 40
1
 40
1
 40
1
 10
89.838950
 20
201.455894
 30
0.0
 10
89.838950
 20
201.455894
 30
0.0
 10
89.607307
 20
201.809387
 30
0.0
 10
89.536315
 20
202.108940
 30
0.0
  0
SPLINE
  5
179
100
AcDbEntity
  8
Layer_1
 62
7
100
AcDbSpline
 70
8
 71
3
 72
8
 73
4
 74
0
 40
0
 40
0
 40
0
 40
0
 40
1
 40
1
 40
1
 40
1
 10
89.536315
 20
202.108940
 30
0.0
 10
89.412053
 20
202.633279
 30
0.0
 10
89.396006
 20
203.592426
 30
0.0
 10
89.743410
 20
204.004375
 30
0.0
  0
SPLINE
  5
17a
100
AcDbEntity
  8
Layer_1
 62
7
100
AcDbSpline
 70
8
 71
3
 72
8
 73
4
 74
0
 40
0
 40
0
 40
0
 40
0
 40
1
 40
1
 40
1
 40
1
 10
89.743410
 20
204.004375
 30
0.0
 10
89.885399
 20
204.172761
 30
0.0
 10
89.956114
 20
204.139055
 30
0.0
 10
90.141612
 20
204.020284
 30
0.0
  0
SPLINE
  5
17b
100
AcDbEntity
  8
Layer_1
 62
7
100
AcDbSpline
 70
8
 71
3
 72
8
 73
4
 74
0
 40
0
 40
0
 40
0
 40
0
 40
1
 40
1
 40
1
 40
1
 10
90.141612
 20
204.020284
 30
0.0
 10
91.280626
 20
203.291082
 30
0.0
 10
92.132614
 20
201.583296
 30
0.0
 10
93.820982
 20
200.993960
 30
0.0
  0
SPLINE
  5
17c
100
AcDbEntity
  8
Layer_1
 62
7
100
AcDbSpline
 70
8
 71
3
 72
8
 73
4
 74
0
 40
0
 40
0
 40
0
 40
0
 40
1
 40
1
 40
1
 40
1
 10
91.479534
 20
202.953121
 30
0.0
 10
91.559199
 20
203.510606
 30
0.0
 10
92.817484
 20
205.597166
 30
0.0
 10
93.900589
 20
205.406031
 30
0.0
  0
SPLINE
  5
17d
100
AcDbEntity
  8
Layer_1
 62
7
100
AcDbSpline
 70
8
 71
3
 72
8
 73
4
 74
0
 40
0
 40
0
 40
0
 40
0
 40
1
 40
1
 40
1
 40
1
 10
93.231618
 20
207.253682
 30
0.0
 10
93.008625
 20
206.982897
 30
0.0
 10
92.769700
 20
205.867949
 30
0.0
 10
93.916522
 20
205.406031
 30
0.0
  0
SPLINE
  5
17e
100
AcDbEntity
  8
Layer_1
 62
7
100
AcDbSpline
 70
8
 71
3
 72
8
 73
4
 74
0
 40
0
 40
0
 40
0
 40
0
 40
1
 40
1
 40
1
 40
1
 10
104.357952
 20
204.451365
 30
0.0
 10
103.943824
 20
203.639035
 30
0.0
 10
105.168878
 20
203.505286
 30
0.0
 10
105.168878
 20
203.505286
 30
0.0
  0
SPLINE
  5
17f
100
AcDbEntity
  8
Layer_1
 62
7
100
AcDbSpline
 70
8
 71
3
 72
8
 73
4
 74
0
 40
0
 40
0
 40
0
 40
0
 40
1
 40
1
 40
1
 40
1
 10
105.097981
 20
203.415038
 30
0.0
 10
103.760025
 20
202.331932
 30
0.0
 10
104.540497
 20
201.758522
 30
0.0
 10
105.384684
 20
201.408104
 30
0.0
  0
SPLINE
  5
180
100
AcDbEntity
  8
Layer_1
 62
7
100
AcDbSpline
 70
8
 71
3
 72
8
 73
4
 74
0
 40
0
 40
0
 40
0
 40
0
 40
1
 40
1
 40
1
 40
1
 10
105.368758
 20
201.408104
 30
0.0
 10
105.910311
 20
201.392195
 30
0.0
 10
106.260722
 20
200.388714
 30
0.0
 10
106.356296
 20
199.130400
 30
0.0
  0
SPLINE
  5
181
100
AcDbEntity
  8
Layer_1
 62
7
100
AcDbSpline
 70
8
 71
3
 72
8
 73
4
 74
0
 40
0
 40
0
 40
0
 40
0
 40
1
 40
1
 40
1
 40
1
 10
104.859063
 20
201.599245
 30
0.0
 10
105.177623
 20
200.946200
 30
0.0
 10
104.906866
 20
199.528601
 30
0.0
 10
104.906866
 20
199.528601
 30
0.0
  0
SPLINE
  5
182
100
AcDbEntity
  8
Layer_1
 62
7
100
AcDbSpline
 70
8
 71
3
 72
8
 73
4
 74
0
 40
0
 40
0
 40
0
 40
0
 40
1
 40
1
 40
1
 40
1
 10
104.906866
 20
199.528601
 30
0.0
 10
105.448419
 20
199.767520
 30
0.0
 10
105.989972
 20
199.608267
 30
0.0
 10
106.276674
 20
199.496771
 30
0.0
  0
SPLINE
  5
183
100
AcDbEntity
  8
Layer_1
 62
7
100
AcDbSpline
 70
8
 71
3
 72
8
 73
4
 74
0
 40
0
 40
0
 40
0
 40
0
 40
1
 40
1
 40
1
 40
1
 10
106.324438
 20
199.162258
 30
0.0
 10
107.359760
 20
198.556996
 30
0.0
 10
110.927636
 20
198.971123
 30
0.0
 10
111.755891
 20
199.066694
 30
0.0
  0
SPLINE
  5
184
100
AcDbEntity
  8
Layer_1
 62
7
100
AcDbSpline
 70
8
 71
3
 72
8
 73
4
 74
0
 40
0
 40
0
 40
0
 40
0
 40
1
 40
1
 40
1
 40
1
 10
106.404079
 20
199.114474
 30
0.0
 10
108.012805
 20
199.178187
 30
0.0
 10
109.780815
 20
200.133871
 30
0.0
 10
110.529434
 20
201.009909
 30
0.0
  0
SPLINE
  5
185
100
AcDbEntity
  8
Layer_1
 62
7
100
AcDbSpline
 70
8
 71
3
 72
8
 73
4
 74
0
 40
0
 40
0
 40
0
 40
0
 40
1
 40
1
 40
1
 40
1
 10
110.465725
 20
201.025835
 30
0.0
 10
110.943569
 20
200.675416
 30
0.0
 10
111.851459
 20
199.894945
 30
0.0
 10
111.676249
 20
198.987049
 30
0.0
  0
SPLINE
  5
186
100
AcDbEntity
  8
Layer_1
 62
7
100
AcDbSpline
 70
8
 71
3
 72
8
 73
4
 74
0
 40
0
 40
0
 40
0
 40
0
 40
1
 40
1
 40
1
 40
1
 10
108.729568
 20
203.940659
 30
0.0
 10
109.271120
 20
203.271681
 30
0.0
 10
110.242732
 20
201.885947
 30
0.0
 10
110.258658
 20
200.770984
 30
0.0
  0
SPLINE
  5
187
100
AcDbEntity
  8
Layer_1
 62
7
100
AcDbSpline
 70
8
 71
3
 72
8
 73
4
 74
0
 40
0
 40
0
 40
0
 40
0
 40
1
 40
1
 40
1
 40
1
 10
106.005878
 20
203.223896
 30
0.0
 10
106.515573
 20
203.653950
 30
0.0
 10
107.710171
 20
204.068085
 30
0.0
 10
108.331366
 20
204.068085
 30
0.0
  0
SPLINE
  5
188
100
AcDbEntity
  8
Layer_1
 62
7
100
AcDbSpline
 70
8
 71
3
 72
8
 73
4
 74
0
 40
0
 40
0
 40
0
 40
0
 40
1
 40
1
 40
1
 40
1
 10
139.094060
 20
228.708977
 30
0.0
 10
139.094060
 20
216.204681
 30
0.0
 10
132.423098
 20
204.650236
 30
0.0
 10
121.594060
 20
198.398088
 30
0.0
  0
SPLINE
  5
189
100
AcDbEntity
  8
Layer_1
 62
7
100
AcDbSpline
 70
8
 71
3
 72
8
 73
4
 74
0
 40
0
 40
0
 40
0
 40
0
 40
1
 40
1
 40
1
 40
1
 10
121.594060
 20
198.398088
 30
0.0
 10
110.765022
 20
192.145940
 30
0.0
 10
97.423098
 20
192.145940
 30
0.0
 10
86.594060
 20
198.398088
 30
0.0
  0
SPLINE
  5
18a
100
AcDbEntity
  8
Layer_1
 62
7
100
AcDbSpline
 70
8
 71
3
 72
8
 73
4
 74
0
 40
0
 40
0
 40
0
 40
0
 40
1
 40
1
 40
1
 40
1
 10
86.594060
 20
198.398088
 30
0.0
 10
75.765022
 20
204.650236
 30
0.0
 10
69.094060
 20
216.204681
 30
0.0
 10
69.094060
 20
228.708977
 30
0.0
  0
SPLINE
  5
18b
100
AcDbEntity
  8
Layer_1
 62
7
100
AcDbSpline
 70
8
 71
3
 72
8
 73
4
 74
0
 40
0
 40
0
 40
0
 40
0
 40
1
 40
1
 40
1
 40
1
 10
69.094060
 20
228.708977
 30
0.0
 10
69.094060
 20
241.213273
 30
0.0
 10
75.765022
 20
252.767718
 30
0.0
 10
86.594060
 20
259.019866
 30
0.0
  0
SPLINE
  5
18c
100
AcDbEntity
  8
Layer_1
 62
7
100
AcDbSpline
 70
8
 71
3
 72
8
 73
4
 74
0
 40
0
 40
0
 40
0
 40
0
 40
1
 40
1
 40
1
 40
1
 10
86.594060
 20
259.019866
 30
0.0
 10
97.423098
 20
265.272014
 30
0.0
 10
110.765022
 20
265.272014
 30
0.0
 10
121.594060
 20
259.019866
 30
0.0
  0
SPLINE
  5
18d
100
AcDbEntity
  8
Layer_1
 62
7
100
AcDbSpline
 70
8
 71
3
 72
8
 73
4
 74
0
 40
0
 40
0
 40
0
 40
0
 40
1
 40
1
 40
1
 40
1
 10
121.594060
 20
259.019866
 30
0.0
 10
132.423098
 20
252.767718
 30
0.0
 10
139.094060
 20
241.213273
 30
0.0
 10
139.094060
 20
228.708977
 30
0.0
  0
LWPOLYLINE
  5
18e
100
AcDbEntity
  8
Layer_1
 62
7
100
AcDbPolyline
 90
1
 70
1
 10
99.806818
 20
246.985809
 30
0.0
  0
LWPOLYLINE
  5
18f
100
AcDbEntity
  8
Layer_1
 62
7
100
AcDbPolyline
 90
1
 70
1
 10
139.094060
 20
228.708977
 30
0.0
  0
SPLINE
  5
190
100
AcDbEntity
  8
Layer_1
 62
7
100
AcDbSpline
 70
8
 71
3
 72
8
 73
4
 74
0
 40
0
 40
0
 40
0
 40
0
 40
1
 40
1
 40
1
 40
1
 10
78.842841
 20
231.558812
 30
0.0
 10
78.854208
 20
231.621765
 30
0.0
 10
78.861901
 20
231.664350
 30
0.0
 10
78.865921
 20
231.686567
 30
0.0
  0
SPLINE
  5
191
100
AcDbEntity
  8
Layer_1
 62
7
100
AcDbSpline
 70
8
 71
3
 72
8
 73
4
 74
0
 40
0
 40
0
 40
0
 40
0
 40
1
 40
1
 40
1
 40
1
 10
78.865921
 20
231.686567
 30
0.0
 10
78.866231
 20
231.709454
 30
0.0
 10
78.865831
 20
231.749673
 30
0.0
 10
78.864721
 20
231.807226
 30
0.0
  0
SPLINE
  5
192
100
AcDbEntity
  8
Layer_1
 62
7
100
AcDbSpline
 70
8
 71
3
 72
8
 73
4
 74
0
 40
0
 40
0
 40
0
 40
0
 40
1
 40
1
 40
1
 40
1
 10
78.864721
 20
231.807226
 30
0.0
 10
78.860588
 20
231.869153
 30
0.0
 10
78.847911
 20
231.915416
 30
0.0
 10
78.826691
 20
231.946017
 30
0.0
  0
SPLINE
  5
193
100
AcDbEntity
  8
Layer_1
 62
7
100
AcDbSpline
 70
8
 71
3
 72
8
 73
4
 74
0
 40
0
 40
0
 40
0
 40
0
 40
1
 40
1
 40
1
 40
1
 10
78.826691
 20
231.946017
 30
0.0
 10
78.806118
 20
231.980324
 30
0.0
 10
78.772407
 20
232.026563
 30
0.0
 10
78.725558
 20
232.084734
 30
0.0
  0
SPLINE
  5
194
100
AcDbEntity
  8
Layer_1
 62
7
100
AcDbSpline
 70
8
 71
3
 72
8
 73
4
 74
0
 40
0
 40
0
 40
0
 40
0
 40
1
 40
1
 40
1
 40
1
 10
78.725558
 20
232.084734
 30
0.0
 10
78.678705
 20
232.142907
 30
0.0
 10
78.618738
 20
232.191977
 30
0.0
 10
78.545659
 20
232.231942
 30
0.0
  0
SPLINE
  5
195
100
AcDbEntity
  8
Layer_1
 62
7
100
AcDbSpline
 70
8
 71
3
 72
8
 73
4
 74
0
 40
0
 40
0
 40
0
 40
0
 40
1
 40
1
 40
1
 40
1
 10
78.545659
 20
232.231942
 30
0.0
 10
78.473246
 20
232.275615
 30
0.0
 10
78.378948
 20
232.325150
 30
0.0
 10
78.262767
 20
232.380545
 30
0.0
  0
SPLINE
  5
196
100
AcDbEntity
  8
Layer_1
 62
7
100
AcDbSpline
 70
8
 71
3
 72
8
 73
4
 74
0
 40
0
 40
0
 40
0
 40
0
 40
1
 40
1
 40
1
 40
1
 10
78.262767
 20
232.380545
 30
0.0
 10
78.146586
 20
232.435945
 30
0.0
 10
78.011220
 20
232.490985
 30
0.0
 10
77.856671
 20
232.545664
 30
0.0
  0
SPLINE
  5
197
100
AcDbEntity
  8
Layer_1
 62
7
100
AcDbSpline
 70
8
 71
3
 72
8
 73
4
 74
0
 40
0
 40
0
 40
0
 40
0
 40
1
 40
1
 40
1
 40
1
 10
77.856671
 20
232.545664
 30
0.0
 10
77.237136
 20
232.756982
 30
0.0
 10
76.453379
 20
232.948251
 30
0.0
 10
75.505399
 20
233.119471
 30
0.0
  0
LWPOLYLINE
  5
198
100
AcDbEntity
  8
Layer_1
 62
7
100
AcDbPolyline
 90
3
 70
0
 10
79.154659
 20
231.284538
 30
0.0
 10
78.804721
 20
231.347738
 30
0.0
 10
78.842841
 20
231.558812
 30
0.0
  0
SPLINE
  5
199
100
AcDbEntity
  8
Layer_1
 62
7
100
AcDbSpline
 70
8
 71
3
 72
8
 73
4
 74
0
 40
0
 40
0
 40
0
 40
0
 40
1
 40
1
 40
1
 40
1
 10
75.925098
 20
233.410756
 30
0.0
 10
76.906406
 20
233.233517
 30
0.0
 10
77.707700
 20
233.012313
 30
0.0
 10
78.328980
 20
232.747146
 30
0.0
  0
SPLINE
  5
19a
100
AcDbEntity
  8
Layer_1
 62
7
100
AcDbSpline
 70
8
 71
3
 72
8
 73
4
 74
0
 40
0
 40
0
 40
0
 40
0
 40
1
 40
1
 40
1
 40
1
 10
78.328980
 20
232.747146
 30
0.0
 10
78.727001
 20
232.579661
 30
0.0
 10
78.984175
 20
232.405113
 30
0.0
 10
79.100503
 20
232.223501
 30
0.0
  0
SPLINE
  5
19b
100
AcDbEntity
  8
Layer_1
 62
7
100
AcDbSpline
 70
8
 71
3
 72
8
 73
4
 74
0
 40
0
 40
0
 40
0
 40
0
 40
1
 40
1
 40
1
 40
1
 10
79.100503
 20
232.223501
 30
0.0
 10
79.216831
 20
232.041888
 30
0.0
 10
79.255265
 20
231.841842
 30
0.0
 10
79.215804
 20
231.623363
 30
0.0
  0
LWPOLYLINE
  5
19c
100
AcDbEntity
  8
Layer_1
 62
7
100
AcDbPolyline
 90
6
 70
0
 10
75.505399
 20
233.119471
 30
0.0
 10
75.898670
 20
235.296863
 30
0.0
 10
79.753543
 20
234.600613
 30
0.0
 10
79.664253
 20
234.106256
 30
0.0
 10
76.164873
 20
234.738298
 30
0.0
 10
75.925098
 20
233.410756
 30
0.0
  0
SPLINE
  5
19d
100
AcDbEntity
  8
Layer_1
 62
7
100
AcDbSpline
 70
8
 71
3
 72
8
 73
4
 74
0
 40
0
 40
0
 40
0
 40
0
 40
1
 40
1
 40
1
 40
1
 10
79.362233
 20
235.555168
 30
0.0
 10
79.229779
 20
235.598068
 30
0.0
 10
79.131458
 20
235.685292
 30
0.0
 10
79.067269
 20
235.816839
 30
0.0
  0
SPLINE
  5
19e
100
AcDbEntity
  8
Layer_1
 62
7
100
AcDbSpline
 70
8
 71
3
 72
8
 73
4
 74
0
 40
0
 40
0
 40
0
 40
0
 40
1
 40
1
 40
1
 40
1
 10
79.067269
 20
235.816839
 30
0.0
 10
78.999501
 20
235.949542
 30
0.0
 10
78.968438
 20
236.103978
 30
0.0
 10
78.974079
 20
236.280146
 30
0.0
  0
SPLINE
  5
19f
100
AcDbEntity
  8
Layer_1
 62
7
100
AcDbSpline
 70
8
 71
3
 72
8
 73
4
 74
0
 40
0
 40
0
 40
0
 40
0
 40
1
 40
1
 40
1
 40
1
 10
78.974079
 20
236.280146
 30
0.0
 10
78.977279
 20
236.461053
 30
0.0
 10
78.993082
 20
236.631951
 30
0.0
 10
79.021489
 20
236.792842
 30
0.0
  0
SPLINE
  5
1a0
100
AcDbEntity
  8
Layer_1
 62
7
100
AcDbSpline
 70
8
 71
3
 72
8
 73
4
 74
0
 40
0
 40
0
 40
0
 40
0
 40
1
 40
1
 40
1
 40
1
 10
79.021489
 20
236.792842
 30
0.0
 10
79.047449
 20
236.958472
 30
0.0
 10
79.085940
 20
237.120044
 30
0.0
 10
79.136963
 20
237.277557
 30
0.0
  0
LWPOLYLINE
  5
1a1
100
AcDbEntity
  8
Layer_1
 62
7
100
AcDbPolyline
 90
2
 70
0
 10
79.215804
 20
231.623363
 30
0.0
 10
79.154659
 20
231.284538
 30
0.0
  0
SPLINE
  5
1a2
100
AcDbEntity
  8
Layer_1
 62
7
100
AcDbSpline
 70
8
 71
3
 72
8
 73
4
 74
0
 40
0
 40
0
 40
0
 40
0
 40
1
 40
1
 40
1
 40
1
 10
78.954390
 20
237.336697
 30
0.0
 10
78.722961
 20
237.403749
 30
0.0
 10
78.543214
 20
237.410552
 30
0.0
 10
78.415149
 20
237.357107
 30
0.0
  0
SPLINE
  5
1a3
100
AcDbEntity
  8
Layer_1
 62
7
100
AcDbSpline
 70
8
 71
3
 72
8
 73
4
 74
0
 40
0
 40
0
 40
0
 40
0
 40
1
 40
1
 40
1
 40
1
 10
78.415149
 20
237.357107
 30
0.0
 10
78.278764
 20
237.302400
 30
0.0
 10
78.188540
 20
237.207029
 30
0.0
 10
78.144477
 20
237.070992
 30
0.0
  0
SPLINE
  5
1a4
100
AcDbEntity
  8
Layer_1
 62
7
100
AcDbSpline
 70
8
 71
3
 72
8
 73
4
 74
0
 40
0
 40
0
 40
0
 40
0
 40
1
 40
1
 40
1
 40
1
 10
78.144477
 20
237.070992
 30
0.0
 10
78.055191
 20
236.795343
 30
0.0
 10
78.059511
 20
236.497286
 30
0.0
 10
78.157437
 20
236.176819
 30
0.0
  0
LWPOLYLINE
  5
1a5
100
AcDbEntity
  8
Layer_1
 62
7
100
AcDbPolyline
 90
2
 70
0
 10
79.136963
 20
237.277557
 30
0.0
 10
78.954390
 20
237.336697
 30
0.0
  0
SPLINE
  5
1a6
100
AcDbEntity
  8
Layer_1
 62
7
100
AcDbSpline
 70
8
 71
3
 72
8
 73
4
 74
0
 40
0
 40
0
 40
0
 40
0
 40
1
 40
1
 40
1
 40
1
 10
77.787227
 20
236.261139
 30
0.0
 10
77.716680
 20
236.580648
 30
0.0
 10
77.728950
 20
236.887176
 30
0.0
 10
77.824037
 20
237.180724
 30
0.0
  0
SPLINE
  5
1a7
100
AcDbEntity
  8
Layer_1
 62
7
100
AcDbSpline
 70
8
 71
3
 72
8
 73
4
 74
0
 40
0
 40
0
 40
0
 40
0
 40
1
 40
1
 40
1
 40
1
 10
77.824037
 20
237.180724
 30
0.0
 10
77.904046
 20
237.427733
 30
0.0
 10
78.053058
 20
237.606905
 30
0.0
 10
78.271071
 20
237.718238
 30
0.0
  0
SPLINE
  5
1a8
100
AcDbEntity
  8
Layer_1
 62
7
100
AcDbSpline
 70
8
 71
3
 72
8
 73
4
 74
0
 40
0
 40
0
 40
0
 40
0
 40
1
 40
1
 40
1
 40
1
 10
78.271071
 20
237.718238
 30
0.0
 10
78.486663
 20
237.834311
 30
0.0
 10
78.713123
 20
237.861821
 30
0.0
 10
78.950452
 20
237.800768
 30
0.0
  0
LWPOLYLINE
  5
1a9
100
AcDbEntity
  8
Layer_1
 62
7
100
AcDbPolyline
 90
2
 70
0
 10
78.157437
 20
236.176819
 30
0.0
 10
77.787227
 20
236.261139
 30
0.0
  0
SPLINE
  5
1aa
100
AcDbEntity
  8
Layer_1
 62
7
100
AcDbSpline
 70
8
 71
3
 72
8
 73
4
 74
0
 40
0
 40
0
 40
0
 40
0
 40
1
 40
1
 40
1
 40
1
 10
80.268100
 20
236.923047
 30
0.0
 10
80.277780
 20
236.904087
 30
0.0
 10
80.290033
 20
236.862541
 30
0.0
 10
80.304860
 20
236.798410
 30
0.0
  0
SPLINE
  5
1ab
100
AcDbEntity
  8
Layer_1
 62
7
100
AcDbSpline
 70
8
 71
3
 72
8
 73
4
 74
0
 40
0
 40
0
 40
0
 40
0
 40
1
 40
1
 40
1
 40
1
 10
80.304860
 20
236.798410
 30
0.0
 10
80.320847
 20
236.737857
 30
0.0
 10
80.325967
 20
236.625445
 30
0.0
 10
80.320220
 20
236.461176
 30
0.0
  0
SPLINE
  5
1ac
100
AcDbEntity
  8
Layer_1
 62
7
100
AcDbSpline
 70
8
 71
3
 72
8
 73
4
 74
0
 40
0
 40
0
 40
0
 40
0
 40
1
 40
1
 40
1
 40
1
 10
80.320220
 20
236.461176
 30
0.0
 10
80.314487
 20
236.296908
 30
0.0
 10
80.283207
 20
236.127068
 30
0.0
 10
80.226380
 20
235.951655
 30
0.0
  0
SPLINE
  5
1ad
100
AcDbEntity
  8
Layer_1
 62
7
100
AcDbSpline
 70
8
 71
3
 72
8
 73
4
 74
0
 40
0
 40
0
 40
0
 40
0
 40
1
 40
1
 40
1
 40
1
 10
80.226380
 20
235.951655
 30
0.0
 10
80.160287
 20
235.747604
 30
0.0
 10
80.038829
 20
235.616861
 30
0.0
 10
79.862006
 20
235.559428
 30
0.0
  0
SPLINE
  5
1ae
100
AcDbEntity
  8
Layer_1
 62
7
100
AcDbSpline
 70
8
 71
3
 72
8
 73
4
 74
0
 40
0
 40
0
 40
0
 40
0
 40
1
 40
1
 40
1
 40
1
 10
79.862006
 20
235.559428
 30
0.0
 10
79.682764
 20
235.506735
 30
0.0
 10
79.516176
 20
235.505335
 30
0.0
 10
79.362243
 20
235.555228
 30
0.0
  0
LWPOLYLINE
  5
1af
100
AcDbEntity
  8
Layer_1
 62
7
100
AcDbPolyline
 90
4
 70
0
 10
78.950452
 20
237.800768
 30
0.0
 10
80.588232
 20
237.270269
 30
0.0
 10
80.456042
 20
236.862167
 30
0.0
 10
80.268100
 20
236.923047
 30
0.0
  0
SPLINE
  5
1b0
100
AcDbEntity
  8
Layer_1
 62
7
100
AcDbSpline
 70
8
 71
3
 72
8
 73
4
 74
0
 40
0
 40
0
 40
0
 40
0
 40
1
 40
1
 40
1
 40
1
 10
79.483835
 20
235.948901
 30
0.0
 10
79.580491
 20
235.917594
 30
0.0
 10
79.676112
 20
235.938041
 30
0.0
 10
79.770698
 20
236.010241
 30
0.0
  0
SPLINE
  5
1b1
100
AcDbEntity
  8
Layer_1
 62
7
100
AcDbSpline
 70
8
 71
3
 72
8
 73
4
 74
0
 40
0
 40
0
 40
0
 40
0
 40
1
 40
1
 40
1
 40
1
 10
79.770698
 20
236.010241
 30
0.0
 10
79.866443
 20
236.086025
 30
0.0
 10
79.937507
 20
236.195514
 30
0.0
 10
79.983889
 20
236.338708
 30
0.0
  0
SPLINE
  5
1b2
100
AcDbEntity
  8
Layer_1
 62
7
100
AcDbSpline
 70
8
 71
3
 72
8
 73
4
 74
0
 40
0
 40
0
 40
0
 40
0
 40
1
 40
1
 40
1
 40
1
 10
79.983889
 20
236.338708
 30
0.0
 10
80.033749
 20
236.492641
 30
0.0
 10
80.046172
 20
236.640902
 30
0.0
 10
80.021159
 20
236.783489
 30
0.0
  0
SPLINE
  5
1b3
100
AcDbEntity
  8
Layer_1
 62
7
100
AcDbSpline
 70
8
 71
3
 72
8
 73
4
 74
0
 40
0
 40
0
 40
0
 40
0
 40
1
 40
1
 40
1
 40
1
 10
80.021159
 20
236.783489
 30
0.0
 10
79.997306
 20
236.929656
 30
0.0
 10
79.908412
 20
237.027669
 30
0.0
 10
79.754479
 20
237.077530
 30
0.0
  0
LWPOLYLINE
  5
1b4
100
AcDbEntity
  8
Layer_1
 62
7
100
AcDbPolyline
 90
1
 70
1
 10
79.362243
 20
235.555228
 30
0.0
  0
SPLINE
  5
1b5
100
AcDbEntity
  8
Layer_1
 62
7
100
AcDbSpline
 70
8
 71
3
 72
8
 73
4
 74
0
 40
0
 40
0
 40
0
 40
0
 40
1
 40
1
 40
1
 40
1
 10
79.416184
 20
237.187109
 30
0.0
 10
79.380237
 20
237.076134
 30
0.0
 10
79.350871
 20
236.961049
 30
0.0
 10
79.328084
 20
236.841856
 30
0.0
  0
SPLINE
  5
1b6
100
AcDbEntity
  8
Layer_1
 62
7
100
AcDbSpline
 70
8
 71
3
 72
8
 73
4
 74
0
 40
0
 40
0
 40
0
 40
0
 40
1
 40
1
 40
1
 40
1
 10
79.328084
 20
236.841856
 30
0.0
 10
79.305297
 20
236.722663
 30
0.0
 10
79.288511
 20
236.597570
 30
0.0
 10
79.277724
 20
236.466579
 30
0.0
  0
SPLINE
  5
1b7
100
AcDbEntity
  8
Layer_1
 62
7
100
AcDbSpline
 70
8
 71
3
 72
8
 73
4
 74
0
 40
0
 40
0
 40
0
 40
0
 40
1
 40
1
 40
1
 40
1
 10
79.277724
 20
236.466579
 30
0.0
 10
79.266937
 20
236.335588
 30
0.0
 10
79.279797
 20
236.222647
 30
0.0
 10
79.316304
 20
236.127758
 30
0.0
  0
SPLINE
  5
1b8
100
AcDbEntity
  8
Layer_1
 62
7
100
AcDbSpline
 70
8
 71
3
 72
8
 73
4
 74
0
 40
0
 40
0
 40
0
 40
0
 40
1
 40
1
 40
1
 40
1
 10
79.316304
 20
236.127758
 30
0.0
 10
79.349231
 20
236.034028
 30
0.0
 10
79.405072
 20
235.974408
 30
0.0
 10
79.483829
 20
235.948898
 30
0.0
  0
LWPOLYLINE
  5
1b9
100
AcDbEntity
  8
Layer_1
 62
7
100
AcDbPolyline
 90
2
 70
0
 10
79.754479
 20
237.077530
 30
0.0
 10
79.416184
 20
237.187109
 30
0.0
  0
LWPOLYLINE
  5
1ba
100
AcDbEntity
  8
Layer_1
 62
7
100
AcDbPolyline
 90
1
 70
1
 10
79.483829
 20
235.948898
 30
0.0
  0
SPLINE
  5
1bb
100
AcDbEntity
  8
Layer_1
 62
7
100
AcDbSpline
 70
8
 71
3
 72
8
 73
4
 74
0
 40
0
 40
0
 40
0
 40
0
 40
1
 40
1
 40
1
 40
1
 10
80.573800
 20
238.216414
 30
0.0
 10
80.473365
 20
238.485659
 30
0.0
 10
80.299514
 20
238.711900
 30
0.0
 10
80.052249
 20
238.895135
 30
0.0
  0
SPLINE
  5
1bc
100
AcDbEntity
  8
Layer_1
 62
7
100
AcDbSpline
 70
8
 71
3
 72
8
 73
4
 74
0
 40
0
 40
0
 40
0
 40
0
 40
1
 40
1
 40
1
 40
1
 10
80.052249
 20
238.895135
 30
0.0
 10
79.806546
 20
239.081794
 30
0.0
 10
79.403011
 20
239.303294
 30
0.0
 10
78.841644
 20
239.559636
 30
0.0
  0
LWPOLYLINE
  5
1bd
100
AcDbEntity
  8
Layer_1
 62
7
100
AcDbPolyline
 90
2
 70
0
 10
80.470637
 20
237.990498
 30
0.0
 10
80.573800
 20
238.216414
 30
0.0
  0
LWPOLYLINE
  5
1be
100
AcDbEntity
  8
Layer_1
 62
7
100
AcDbPolyline
 90
12
 70
0
 10
78.841644
 20
239.559636
 30
0.0
 10
78.810834
 20
239.573706
 30
0.0
 10
79.476699
 20
241.031891
 30
0.0
 10
81.448330
 20
240.131568
 30
0.0
 10
81.603073
 20
240.470442
 30
0.0
 10
82.748057
 20
239.947597
 30
0.0
 10
82.598003
 20
239.618992
 30
0.0
 10
81.766221
 20
239.998816
 30
0.0
 10
80.933890
 20
238.176085
 30
0.0
 10
81.765672
 20
237.796260
 30
0.0
 10
81.615618
 20
237.467655
 30
0.0
 10
80.470637
 20
237.990498
 30
0.0
  0
SPLINE
  5
1bf
100
AcDbEntity
  8
Layer_1
 62
7
100
AcDbSpline
 70
8
 71
3
 72
8
 73
4
 74
0
 40
0
 40
0
 40
0
 40
0
 40
1
 40
1
 40
1
 40
1
 10
79.288606
 20
239.777482
 30
0.0
 10
79.311006
 20
239.763115
 30
0.0
 10
79.398440
 20
239.719053
 30
0.0
 10
79.550908
 20
239.645294
 30
0.0
  0
SPLINE
  5
1c0
100
AcDbEntity
  8
Layer_1
 62
7
100
AcDbSpline
 70
8
 71
3
 72
8
 73
4
 74
0
 40
0
 40
0
 40
0
 40
0
 40
1
 40
1
 40
1
 40
1
 10
79.550908
 20
239.645294
 30
0.0
 10
79.699956
 20
239.573097
 30
0.0
 10
79.834679
 20
239.501235
 30
0.0
 10
79.955076
 20
239.429710
 30
0.0
  0
SPLINE
  5
1c1
100
AcDbEntity
  8
Layer_1
 62
7
100
AcDbSpline
 70
8
 71
3
 72
8
 73
4
 74
0
 40
0
 40
0
 40
0
 40
0
 40
1
 40
1
 40
1
 40
1
 10
79.955076
 20
239.429710
 30
0.0
 10
80.077037
 20
239.361608
 30
0.0
 10
80.219645
 20
239.257189
 30
0.0
 10
80.382899
 20
239.116453
 30
0.0
  0
SPLINE
  5
1c2
100
AcDbEntity
  8
Layer_1
 62
7
100
AcDbSpline
 70
8
 71
3
 72
8
 73
4
 74
0
 40
0
 40
0
 40
0
 40
0
 40
1
 40
1
 40
1
 40
1
 10
80.382899
 20
239.116453
 30
0.0
 10
80.544294
 20
238.980703
 30
0.0
 10
80.677483
 20
238.833012
 30
0.0
 10
80.782468
 20
238.673380
 30
0.0
  0
LWPOLYLINE
  5
1c3
100
AcDbEntity
  8
Layer_1
 62
7
100
AcDbPolyline
 90
4
 70
0
 10
80.782468
 20
238.673380
 30
0.0
 10
81.272488
 20
239.746481
 30
0.0
 10
79.619194
 20
240.501440
 30
0.0
 10
79.288606
 20
239.777482
 30
0.0
  0
LWPOLYLINE
  5
1c4
100
AcDbEntity
  8
Layer_1
 62
7
100
AcDbPolyline
 90
1
 70
1
 10
80.782468
 20
238.673380
 30
0.0
  0
SPLINE
  5
1c5
100
AcDbEntity
  8
Layer_1
 62
7
100
AcDbSpline
 70
8
 71
3
 72
8
 73
4
 74
0
 40
0
 40
0
 40
0
 40
0
 40
1
 40
1
 40
1
 40
1
 10
82.635004
 20
243.874097
 30
0.0
 10
82.335331
 20
244.107852
 30
0.0
 10
82.157192
 20
244.399522
 30
0.0
 10
82.100587
 20
244.749107
 30
0.0
  0
SPLINE
  5
1c6
100
AcDbEntity
  8
Layer_1
 62
7
100
AcDbSpline
 70
8
 71
3
 72
8
 73
4
 74
0
 40
0
 40
0
 40
0
 40
0
 40
1
 40
1
 40
1
 40
1
 10
82.100587
 20
244.749107
 30
0.0
 10
82.043327
 20
245.103974
 30
0.0
 10
82.118846
 20
245.414925
 30
0.0
 10
82.327145
 20
245.681960
 30
0.0
  0
SPLINE
  5
1c7
100
AcDbEntity
  8
Layer_1
 62
7
100
AcDbSpline
 70
8
 71
3
 72
8
 73
4
 74
0
 40
0
 40
0
 40
0
 40
0
 40
1
 40
1
 40
1
 40
1
 10
82.327145
 20
245.681960
 30
0.0
 10
82.544699
 20
245.960863
 30
0.0
 10
82.834677
 20
246.109302
 30
0.0
 10
83.197080
 20
246.127275
 30
0.0
  0
SPLINE
  5
1c8
100
AcDbEntity
  8
Layer_1
 62
7
100
AcDbSpline
 70
8
 71
3
 72
8
 73
4
 74
0
 40
0
 40
0
 40
0
 40
0
 40
1
 40
1
 40
1
 40
1
 10
83.197080
 20
246.127275
 30
0.0
 10
83.556516
 20
246.147562
 30
0.0
 10
83.878653
 20
246.046614
 30
0.0
 10
84.163490
 20
245.824432
 30
0.0
  0
SPLINE
  5
1c9
100
AcDbEntity
  8
Layer_1
 62
7
100
AcDbSpline
 70
8
 71
3
 72
8
 73
4
 74
0
 40
0
 40
0
 40
0
 40
0
 40
1
 40
1
 40
1
 40
1
 10
84.163490
 20
245.824432
 30
0.0
 10
84.457229
 20
245.595306
 30
0.0
 10
84.625635
 20
245.306455
 30
0.0
 10
84.668710
 20
244.957878
 30
0.0
  0
SPLINE
  5
1ca
100
AcDbEntity
  8
Layer_1
 62
7
100
AcDbSpline
 70
8
 71
3
 72
8
 73
4
 74
0
 40
0
 40
0
 40
0
 40
0
 40
1
 40
1
 40
1
 40
1
 10
84.668710
 20
244.957878
 30
0.0
 10
84.711783
 20
244.609302
 30
0.0
 10
84.631487
 20
244.304463
 30
0.0
 10
84.427821
 20
244.043362
 30
0.0
  0
SPLINE
  5
1cb
100
AcDbEntity
  8
Layer_1
 62
7
100
AcDbSpline
 70
8
 71
3
 72
8
 73
4
 74
0
 40
0
 40
0
 40
0
 40
0
 40
1
 40
1
 40
1
 40
1
 10
84.427821
 20
244.043362
 30
0.0
 10
84.224154
 20
243.782261
 30
0.0
 10
83.948032
 20
243.630173
 30
0.0
 10
83.599455
 20
243.587098
 30
0.0
  0
SPLINE
  5
1cc
100
AcDbEntity
  8
Layer_1
 62
7
100
AcDbSpline
 70
8
 71
3
 72
8
 73
4
 74
0
 40
0
 40
0
 40
0
 40
0
 40
1
 40
1
 40
1
 40
1
 10
83.599455
 20
243.587098
 30
0.0
 10
83.250226
 20
243.549305
 30
0.0
 10
82.928743
 20
243.644971
 30
0.0
 10
82.635004
 20
243.874097
 30
0.0
  0
LWPOLYLINE
  5
1cd
100
AcDbEntity
  8
Layer_1
 62
7
100
AcDbPolyline
 90
12
 70
1
 10
82.227332
 20
240.868443
 30
0.0
 10
80.082834
 20
242.176173
 30
0.0
 10
80.303238
 20
242.537605
 30
0.0
 10
81.136942
 20
242.029206
 30
0.0
 10
81.730563
 20
243.002664
 30
0.0
 10
80.896860
 20
243.511062
 30
0.0
 10
81.117263
 20
243.872494
 30
0.0
 10
83.261761
 20
242.564765
 30
0.0
 10
83.041357
 20
242.203332
 30
0.0
 10
82.000433
 20
242.838096
 30
0.0
 10
81.406811
 20
241.864638
 30
0.0
 10
82.447736
 20
241.229875
 30
0.0
  0
SPLINE
  5
1ce
100
AcDbEntity
  8
Layer_1
 62
7
100
AcDbSpline
 70
8
 71
3
 72
8
 73
4
 74
0
 40
0
 40
0
 40
0
 40
0
 40
1
 40
1
 40
1
 40
1
 10
82.861283
 20
244.255959
 30
0.0
 10
83.122384
 20
244.052291
 30
0.0
 10
83.368296
 20
243.960691
 30
0.0
 10
83.599019
 20
243.981159
 30
0.0
  0
SPLINE
  5
1cf
100
AcDbEntity
  8
Layer_1
 62
7
100
AcDbSpline
 70
8
 71
3
 72
8
 73
4
 74
0
 40
0
 40
0
 40
0
 40
0
 40
1
 40
1
 40
1
 40
1
 10
83.599019
 20
243.981159
 30
0.0
 10
83.832056
 20
244.004592
 30
0.0
 10
84.013377
 20
244.099388
 30
0.0
 10
84.142984
 20
244.265545
 30
0.0
  0
SPLINE
  5
1d0
100
AcDbEntity
  8
Layer_1
 62
7
100
AcDbSpline
 70
8
 71
3
 72
8
 73
4
 74
0
 40
0
 40
0
 40
0
 40
0
 40
1
 40
1
 40
1
 40
1
 10
84.142984
 20
244.265545
 30
0.0
 10
84.272591
 20
244.431700
 30
0.0
 10
84.319238
 20
244.629160
 30
0.0
 10
84.282925
 20
244.857925
 30
0.0
  0
SPLINE
  5
1d1
100
AcDbEntity
  8
Layer_1
 62
7
100
AcDbSpline
 70
8
 71
3
 72
8
 73
4
 74
0
 40
0
 40
0
 40
0
 40
0
 40
1
 40
1
 40
1
 40
1
 10
84.282925
 20
244.857925
 30
0.0
 10
84.245958
 20
245.091971
 30
0.0
 10
84.098409
 20
245.309670
 30
0.0
 10
83.840276
 20
245.511023
 30
0.0
  0
SPLINE
  5
1d2
100
AcDbEntity
  8
Layer_1
 62
7
100
AcDbSpline
 70
8
 71
3
 72
8
 73
4
 74
0
 40
0
 40
0
 40
0
 40
0
 40
1
 40
1
 40
1
 40
1
 10
83.840276
 20
245.511023
 30
0.0
 10
83.591043
 20
245.705433
 30
0.0
 10
83.354359
 20
245.787449
 30
0.0
 10
83.130224
 20
245.757071
 30
0.0
  0
SPLINE
  5
1d3
100
AcDbEntity
  8
Layer_1
 62
7
100
AcDbSpline
 70
8
 71
3
 72
8
 73
4
 74
0
 40
0
 40
0
 40
0
 40
0
 40
1
 40
1
 40
1
 40
1
 10
83.130224
 20
245.757071
 30
0.0
 10
82.908403
 20
245.729658
 30
0.0
 10
82.732689
 20
245.632874
 30
0.0
 10
82.603082
 20
245.466721
 30
0.0
  0
SPLINE
  5
1d4
100
AcDbEntity
  8
Layer_1
 62
7
100
AcDbSpline
 70
8
 71
3
 72
8
 73
4
 74
0
 40
0
 40
0
 40
0
 40
0
 40
1
 40
1
 40
1
 40
1
 10
82.603082
 20
245.466721
 30
0.0
 10
82.475789
 20
245.303533
 30
0.0
 10
82.424692
 20
245.109545
 30
0.0
 10
82.449789
 20
244.884756
 30
0.0
  0
SPLINE
  5
1d5
100
AcDbEntity
  8
Layer_1
 62
7
100
AcDbSpline
 70
8
 71
3
 72
8
 73
4
 74
0
 40
0
 40
0
 40
0
 40
0
 40
1
 40
1
 40
1
 40
1
 10
82.449789
 20
244.884756
 30
0.0
 10
82.474882
 20
244.659968
 30
0.0
 10
82.612047
 20
244.450369
 30
0.0
 10
82.861283
 20
244.255959
 30
0.0
  0
LWPOLYLINE
  5
1d6
100
AcDbEntity
  8
Layer_1
 62
7
100
AcDbPolyline
 90
1
 70
1
 10
82.635004
 20
243.874097
 30
0.0
  0
LWPOLYLINE
  5
1d7
100
AcDbEntity
  8
Layer_1
 62
7
100
AcDbPolyline
 90
1
 70
1
 10
82.861283
 20
244.255959
 30
0.0
  0
LWPOLYLINE
  5
1d8
100
AcDbEntity
  8
Layer_1
 62
7
100
AcDbPolyline
 90
8
 70
1
 10
85.641590
 20
245.578250
 30
0.0
 10
85.294747
 20
245.901518
 30
0.0
 10
85.618015
 20
246.248361
 30
0.0
 10
85.907051
 20
245.978971
 30
0.0
 10
85.961011
 20
245.920961
 30
0.0
 10
86.319360
 20
245.270614
 30
0.0
 10
86.157726
 20
245.097193
 30
0.0
 10
85.741650
 20
245.685603
 30
0.0
  0
LWPOLYLINE
  5
1d9
100
AcDbEntity
  8
Layer_1
 62
7
100
AcDbPolyline
 90
10
 70
1
 10
114.209320
 20
251.595706
 30
0.0
 10
115.320600
 20
253.848277
 30
0.0
 10
115.700250
 20
253.660982
 30
0.0
 10
114.763780
 20
251.762748
 30
0.0
 10
116.651900
 20
253.191496
 30
0.0
 10
117.208710
 20
252.916797
 30
0.0
 10
116.097430
 20
250.664226
 30
0.0
 10
115.717780
 20
250.851521
 30
0.0
 10
116.654260
 20
252.749755
 30
0.0
 10
114.766130
 20
251.321007
 30
0.0
  0
SPLINE
  5
1da
100
AcDbEntity
  8
Layer_1
 62
7
100
AcDbSpline
 70
8
 71
3
 72
8
 73
4
 74
0
 40
0
 40
0
 40
0
 40
0
 40
1
 40
1
 40
1
 40
1
 10
120.806260
 20
248.183670
 30
0.0
 10
120.901420
 20
248.285303
 30
0.0
 10
121.022177
 20
248.337195
 30
0.0
 10
121.168530
 20
248.339346
 30
0.0
  0
SPLINE
  5
1db
100
AcDbEntity
  8
Layer_1
 62
7
100
AcDbSpline
 70
8
 71
3
 72
8
 73
4
 74
0
 40
0
 40
0
 40
0
 40
0
 40
1
 40
1
 40
1
 40
1
 10
121.168530
 20
248.339346
 30
0.0
 10
121.317457
 20
248.344213
 30
0.0
 10
121.470440
 20
248.306647
 30
0.0
 10
121.627480
 20
248.226650
 30
0.0
  0
SPLINE
  5
1dc
100
AcDbEntity
  8
Layer_1
 62
7
100
AcDbSpline
 70
8
 71
3
 72
8
 73
4
 74
0
 40
0
 40
0
 40
0
 40
0
 40
1
 40
1
 40
1
 40
1
 10
121.627480
 20
248.226650
 30
0.0
 10
121.789840
 20
248.146797
 30
0.0
 10
121.937793
 20
248.059815
 30
0.0
 10
122.071340
 20
247.965703
 30
0.0
  0
SPLINE
  5
1dd
100
AcDbEntity
  8
Layer_1
 62
7
100
AcDbSpline
 70
8
 71
3
 72
8
 73
4
 74
0
 40
0
 40
0
 40
0
 40
0
 40
1
 40
1
 40
1
 40
1
 10
122.071340
 20
247.965703
 30
0.0
 10
122.210207
 20
247.871766
 30
0.0
 10
122.340070
 20
247.768216
 30
0.0
 10
122.460930
 20
247.655051
 30
0.0
  0
LWPOLYLINE
  5
1de
100
AcDbEntity
  8
Layer_1
 62
7
100
AcDbPolyline
 90
12
 70
1
 10
119.528180
 20
251.083605
 30
0.0
 10
119.742350
 20
251.367477
 30
0.0
 10
121.580750
 20
249.980481
 30
0.0
 10
121.366590
 20
249.696609
 30
0.0
 10
121.177340
 20
249.839388
 30
0.0
 10
121.086140
 20
249.915288
 30
0.0
 10
120.626540
 20
250.262037
 30
0.0
 10
119.324530
 20
248.536276
 30
0.0
 10
118.973070
 20
248.801437
 30
0.0
 10
120.275080
 20
250.527198
 30
0.0
 10
119.815480
 20
250.873947
 30
0.0
 10
119.717480
 20
250.940827
 30
0.0
  0
SPLINE
  5
1df
100
AcDbEntity
  8
Layer_1
 62
7
100
AcDbSpline
 70
8
 71
3
 72
8
 73
4
 74
0
 40
0
 40
0
 40
0
 40
0
 40
1
 40
1
 40
1
 40
1
 10
122.592100
 20
247.795140
 30
0.0
 10
122.751207
 20
247.976081
 30
0.0
 10
122.833807
 20
248.135871
 30
0.0
 10
122.839900
 20
248.274508
 30
0.0
  0
SPLINE
  5
1e0
100
AcDbEntity
  8
Layer_1
 62
7
100
AcDbSpline
 70
8
 71
3
 72
8
 73
4
 74
0
 40
0
 40
0
 40
0
 40
0
 40
1
 40
1
 40
1
 40
1
 10
122.839900
 20
248.274508
 30
0.0
 10
122.848367
 20
248.421211
 30
0.0
 10
122.800420
 20
248.543429
 30
0.0
 10
122.696060
 20
248.641162
 30
0.0
  0
SPLINE
  5
1e1
100
AcDbEntity
  8
Layer_1
 62
7
100
AcDbSpline
 70
8
 71
3
 72
8
 73
4
 74
0
 40
0
 40
0
 40
0
 40
0
 40
1
 40
1
 40
1
 40
1
 10
122.696060
 20
248.641162
 30
0.0
 10
122.484553
 20
248.839200
 30
0.0
 10
122.212957
 20
248.962050
 30
0.0
 10
121.881270
 20
249.009712
 30
0.0
  0
LWPOLYLINE
  5
1e2
100
AcDbEntity
  8
Layer_1
 62
7
100
AcDbPolyline
 90
2
 70
0
 10
122.460930
 20
247.655051
 30
0.0
 10
122.592100
 20
247.795140
 30
0.0
  0
SPLINE
  5
1e3
100
AcDbEntity
  8
Layer_1
 62
7
100
AcDbSpline
 70
8
 71
3
 72
8
 73
4
 74
0
 40
0
 40
0
 40
0
 40
0
 40
1
 40
1
 40
1
 40
1
 10
122.115020
 20
249.308916
 30
0.0
 10
122.434200
 20
249.236883
 30
0.0
 10
122.706410
 20
249.095417
 30
0.0
 10
122.931650
 20
248.884519
 30
0.0
  0
SPLINE
  5
1e4
100
AcDbEntity
  8
Layer_1
 62
7
100
AcDbSpline
 70
8
 71
3
 72
8
 73
4
 74
0
 40
0
 40
0
 40
0
 40
0
 40
1
 40
1
 40
1
 40
1
 10
122.931650
 20
248.884519
 30
0.0
 10
123.121183
 20
248.707056
 30
0.0
 10
123.219973
 20
248.495994
 30
0.0
 10
123.228020
 20
248.251331
 30
0.0
  0
SPLINE
  5
1e5
100
AcDbEntity
  8
Layer_1
 62
7
100
AcDbSpline
 70
8
 71
3
 72
8
 73
4
 74
0
 40
0
 40
0
 40
0
 40
0
 40
1
 40
1
 40
1
 40
1
 10
123.228020
 20
248.251331
 30
0.0
 10
123.241353
 20
248.006843
 30
0.0
 10
123.169940
 20
247.790183
 30
0.0
 10
123.013780
 20
247.601351
 30
0.0
  0
LWPOLYLINE
  5
1e6
100
AcDbEntity
  8
Layer_1
 62
7
100
AcDbPolyline
 90
2
 70
0
 10
121.881270
 20
249.009712
 30
0.0
 10
122.115020
 20
249.308916
 30
0.0
  0
SPLINE
  5
1e7
100
AcDbEntity
  8
Layer_1
 62
7
100
AcDbSpline
 70
8
 71
3
 72
8
 73
4
 74
0
 40
0
 40
0
 40
0
 40
0
 40
1
 40
1
 40
1
 40
1
 10
121.659010
 20
246.782083
 30
0.0
 10
121.637743
 20
246.781416
 30
0.0
 10
121.594933
 20
246.787996
 30
0.0
 10
121.530580
 20
246.801823
 30
0.0
  0
SPLINE
  5
1e8
100
AcDbEntity
  8
Layer_1
 62
7
100
AcDbSpline
 70
8
 71
3
 72
8
 73
4
 74
0
 40
0
 40
0
 40
0
 40
0
 40
1
 40
1
 40
1
 40
1
 10
121.530580
 20
246.801823
 30
0.0
 10
121.468980
 20
246.813110
 30
0.0
 10
121.365063
 20
246.856282
 30
0.0
 10
121.218830
 20
246.931340
 30
0.0
  0
SPLINE
  5
1e9
100
AcDbEntity
  8
Layer_1
 62
7
100
AcDbSpline
 70
8
 71
3
 72
8
 73
4
 74
0
 40
0
 40
0
 40
0
 40
0
 40
1
 40
1
 40
1
 40
1
 10
121.218830
 20
246.931340
 30
0.0
 10
121.072597
 20
247.006399
 30
0.0
 10
120.932183
 20
247.106940
 30
0.0
 10
120.797590
 20
247.232964
 30
0.0
  0
SPLINE
  5
1ea
100
AcDbEntity
  8
Layer_1
 62
7
100
AcDbSpline
 70
8
 71
3
 72
8
 73
4
 74
0
 40
0
 40
0
 40
0
 40
0
 40
1
 40
1
 40
1
 40
1
 10
120.797590
 20
247.232964
 30
0.0
 10
120.641017
 20
247.379564
 30
0.0
 10
120.574340
 20
247.545093
 30
0.0
 10
120.597560
 20
247.729552
 30
0.0
  0
SPLINE
  5
1eb
100
AcDbEntity
  8
Layer_1
 62
7
100
AcDbSpline
 70
8
 71
3
 72
8
 73
4
 74
0
 40
0
 40
0
 40
0
 40
0
 40
1
 40
1
 40
1
 40
1
 10
120.597560
 20
247.729552
 30
0.0
 10
120.626093
 20
247.914186
 30
0.0
 10
120.695660
 20
248.065560
 30
0.0
 10
120.806260
 20
248.183674
 30
0.0
  0
LWPOLYLINE
  5
1ec
100
AcDbEntity
  8
Layer_1
 62
7
100
AcDbPolyline
 90
4
 70
0
 10
123.013780
 20
247.601351
 30
0.0
 10
121.837130
 20
246.344675
 30
0.0
 10
121.523990
 20
246.637874
 30
0.0
 10
121.659010
 20
246.782083
 30
0.0
  0
SPLINE
  5
1ed
100
AcDbEntity
  8
Layer_1
 62
7
100
AcDbSpline
 70
8
 71
3
 72
8
 73
4
 74
0
 40
0
 40
0
 40
0
 40
0
 40
1
 40
1
 40
1
 40
1
 10
121.110890
 20
247.906165
 30
0.0
 10
121.041450
 20
247.832000
 30
0.0
 10
121.019283
 20
247.736762
 30
0.0
 10
121.044390
 20
247.620449
 30
0.0
  0
SPLINE
  5
1ee
100
AcDbEntity
  8
Layer_1
 62
7
100
AcDbSpline
 70
8
 71
3
 72
8
 73
4
 74
0
 40
0
 40
0
 40
0
 40
0
 40
1
 40
1
 40
1
 40
1
 10
121.044390
 20
247.620449
 30
0.0
 10
121.072257
 20
247.501564
 30
0.0
 10
121.141127
 20
247.390683
 30
0.0
 10
121.251000
 20
247.287806
 30
0.0
  0
SPLINE
  5
1ef
100
AcDbEntity
  8
Layer_1
 62
7
100
AcDbSpline
 70
8
 71
3
 72
8
 73
4
 74
0
 40
0
 40
0
 40
0
 40
0
 40
1
 40
1
 40
1
 40
1
 10
121.251000
 20
247.287806
 30
0.0
 10
121.369113
 20
247.177213
 30
0.0
 10
121.498013
 20
247.102916
 30
0.0
 10
121.637700
 20
247.064913
 30
0.0
  0
SPLINE
  5
1f0
100
AcDbEntity
  8
Layer_1
 62
7
100
AcDbSpline
 70
8
 71
3
 72
8
 73
4
 74
0
 40
0
 40
0
 40
0
 40
0
 40
1
 40
1
 40
1
 40
1
 10
121.637700
 20
247.064913
 30
0.0
 10
121.780133
 20
247.024340
 30
0.0
 10
121.906647
 20
247.063109
 30
0.0
 10
122.017240
 20
247.181222
 30
0.0
  0
LWPOLYLINE
  5
1f1
100
AcDbEntity
  8
Layer_1
 62
7
100
AcDbPolyline
 90
1
 70
1
 10
120.806260
 20
248.183674
 30
0.0
  0
SPLINE
  5
1f2
100
AcDbEntity
  8
Layer_1
 62
7
100
AcDbSpline
 70
8
 71
3
 72
8
 73
4
 74
0
 40
0
 40
0
 40
0
 40
0
 40
1
 40
1
 40
1
 40
1
 10
122.260290
 20
247.440798
 30
0.0
 10
122.175137
 20
247.520528
 30
0.0
 10
122.083467
 20
247.596050
 30
0.0
 10
121.985280
 20
247.667364
 30
0.0
  0
SPLINE
  5
1f3
100
AcDbEntity
  8
Layer_1
 62
7
100
AcDbSpline
 70
8
 71
3
 72
8
 73
4
 74
0
 40
0
 40
0
 40
0
 40
0
 40
1
 40
1
 40
1
 40
1
 10
121.985280
 20
247.667364
 30
0.0
 10
121.887093
 20
247.738678
 30
0.0
 10
121.781017
 20
247.807070
 30
0.0
 10
121.667050
 20
247.872541
 30
0.0
  0
SPLINE
  5
1f4
100
AcDbEntity
  8
Layer_1
 62
7
100
AcDbSpline
 70
8
 71
3
 72
8
 73
4
 74
0
 40
0
 40
0
 40
0
 40
0
 40
1
 40
1
 40
1
 40
1
 10
121.667050
 20
247.872541
 30
0.0
 10
121.553083
 20
247.938014
 30
0.0
 10
121.445397
 20
247.974407
 30
0.0
 10
121.343990
 20
247.981719
 30
0.0
  0
SPLINE
  5
1f5
100
AcDbEntity
  8
Layer_1
 62
7
100
AcDbSpline
 70
8
 71
3
 72
8
 73
4
 74
0
 40
0
 40
0
 40
0
 40
0
 40
1
 40
1
 40
1
 40
1
 10
121.343990
 20
247.981719
 30
0.0
 10
121.245157
 20
247.991779
 30
0.0
 10
121.167447
 20
247.966596
 30
0.0
 10
121.110860
 20
247.906169
 30
0.0
  0
LWPOLYLINE
  5
1f6
100
AcDbEntity
  8
Layer_1
 62
7
100
AcDbPolyline
 90
2
 70
0
 10
122.017240
 20
247.181222
 30
0.0
 10
122.260290
 20
247.440798
 30
0.0
  0
LWPOLYLINE
  5
1f7
100
AcDbEntity
  8
Layer_1
 62
7
100
AcDbPolyline
 90
1
 70
1
 10
121.110860
 20
247.906169
 30
0.0
  0
SPLINE
  5
1f8
100
AcDbEntity
  8
Layer_1
 62
7
100
AcDbSpline
 70
8
 71
3
 72
8
 73
4
 74
0
 40
0
 40
0
 40
0
 40
0
 40
1
 40
1
 40
1
 40
1
 10
126.239060
 20
242.859274
 30
0.0
 10
126.541253
 20
243.035765
 30
0.0
 10
126.866260
 20
243.094848
 30
0.0
 10
127.214080
 20
243.036523
 30
0.0
  0
SPLINE
  5
1f9
100
AcDbEntity
  8
Layer_1
 62
7
100
AcDbSpline
 70
8
 71
3
 72
8
 73
4
 74
0
 40
0
 40
0
 40
0
 40
0
 40
1
 40
1
 40
1
 40
1
 10
127.214080
 20
243.036523
 30
0.0
 10
127.565147
 20
242.980096
 30
0.0
 10
127.835570
 20
242.789414
 30
0.0
 10
128.025350
 20
242.464476
 30
0.0
  0
SPLINE
  5
1fa
100
AcDbEntity
  8
Layer_1
 62
7
100
AcDbSpline
 70
8
 71
3
 72
8
 73
4
 74
0
 40
0
 40
0
 40
0
 40
0
 40
1
 40
1
 40
1
 40
1
 10
128.025350
 20
242.464476
 30
0.0
 10
128.114543
 20
242.311755
 30
0.0
 10
128.173933
 20
242.176490
 30
0.0
 10
128.203520
 20
242.058680
 30
0.0
  0
SPLINE
  5
1fb
100
AcDbEntity
  8
Layer_1
 62
7
100
AcDbSpline
 70
8
 71
3
 72
8
 73
4
 74
0
 40
0
 40
0
 40
0
 40
0
 40
1
 40
1
 40
1
 40
1
 10
128.203520
 20
242.058680
 30
0.0
 10
128.233120
 20
241.940869
 30
0.0
 10
128.249320
 20
241.782558
 30
0.0
 10
128.252120
 20
241.583745
 30
0.0
  0
LWPOLYLINE
  5
1fc
100
AcDbEntity
  8
Layer_1
 62
7
100
AcDbPolyline
 90
12
 70
1
 10
122.469050
 20
245.686025
 30
0.0
 10
124.375610
 20
247.321277
 30
0.0
 10
124.640190
 20
247.012800
 30
0.0
 10
123.744750
 20
246.244782
 30
0.0
 10
125.397180
 20
246.130212
 30
0.0
 10
125.727910
 20
245.744615
 30
0.0
 10
124.366290
 20
245.840915
 30
0.0
 10
123.902190
 20
244.015109
 30
0.0
 10
123.600860
 20
244.366430
 30
0.0
 10
123.983640
 20
245.862220
 30
0.0
 10
123.354870
 20
245.910390
 30
0.0
 10
122.733630
 20
245.377555
 30
0.0
  0
SPLINE
  5
1fd
100
AcDbEntity
  8
Layer_1
 62
7
100
AcDbSpline
 70
8
 71
3
 72
8
 73
4
 74
0
 40
0
 40
0
 40
0
 40
0
 40
1
 40
1
 40
1
 40
1
 10
127.896280
 20
241.454357
 30
0.0
 10
127.904013
 20
241.672406
 30
0.0
 10
127.894580
 20
241.830315
 30
0.0
 10
127.867980
 20
241.928083
 30
0.0
  0
SPLINE
  5
1fe
100
AcDbEntity
  8
Layer_1
 62
7
100
AcDbSpline
 70
8
 71
3
 72
8
 73
4
 74
0
 40
0
 40
0
 40
0
 40
0
 40
1
 40
1
 40
1
 40
1
 10
127.867980
 20
241.928083
 30
0.0
 10
127.838913
 20
242.037497
 30
0.0
 10
127.786440
 20
242.157192
 30
0.0
 10
127.710560
 20
242.287167
 30
0.0
  0
SPLINE
  5
1ff
100
AcDbEntity
  8
Layer_1
 62
7
100
AcDbSpline
 70
8
 71
3
 72
8
 73
4
 74
0
 40
0
 40
0
 40
0
 40
0
 40
1
 40
1
 40
1
 40
1
 10
127.710560
 20
242.287167
 30
0.0
 10
127.581513
 20
242.508124
 30
0.0
 10
127.397397
 20
242.629375
 30
0.0
 10
127.158210
 20
242.650919
 30
0.0
  0
SPLINE
  5
200
100
AcDbEntity
  8
Layer_1
 62
7
100
AcDbSpline
 70
8
 71
3
 72
8
 73
4
 74
0
 40
0
 40
0
 40
0
 40
0
 40
1
 40
1
 40
1
 40
1
 10
127.158210
 20
242.650919
 30
0.0
 10
126.924177
 20
242.671112
 30
0.0
 10
126.691807
 20
242.613838
 30
0.0
 10
126.461100
 20
242.479097
 30
0.0
  0
SPLINE
  5
201
100
AcDbEntity
  8
Layer_1
 62
7
100
AcDbSpline
 70
8
 71
3
 72
8
 73
4
 74
0
 40
0
 40
0
 40
0
 40
0
 40
1
 40
1
 40
1
 40
1
 10
126.461100
 20
242.479097
 30
0.0
 10
126.220647
 20
242.338664
 30
0.0
 10
126.059440
 20
242.159538
 30
0.0
 10
125.977480
 20
241.941720
 30
0.0
  0
SPLINE
  5
202
100
AcDbEntity
  8
Layer_1
 62
7
100
AcDbSpline
 70
8
 71
3
 72
8
 73
4
 74
0
 40
0
 40
0
 40
0
 40
0
 40
1
 40
1
 40
1
 40
1
 10
125.977480
 20
241.941720
 30
0.0
 10
125.895520
 20
241.723903
 30
0.0
 10
125.913387
 20
241.514263
 30
0.0
 10
126.031080
 20
241.312802
 30
0.0
  0
SPLINE
  5
203
100
AcDbEntity
  8
Layer_1
 62
7
100
AcDbSpline
 70
8
 71
3
 72
8
 73
4
 74
0
 40
0
 40
0
 40
0
 40
0
 40
1
 40
1
 40
1
 40
1
 10
126.031080
 20
241.312802
 30
0.0
 10
126.179107
 20
241.059351
 30
0.0
 10
126.415813
 20
240.855514
 30
0.0
 10
126.741200
 20
240.701292
 30
0.0
  0
LWPOLYLINE
  5
204
100
AcDbEntity
  8
Layer_1
 62
7
100
AcDbPolyline
 90
2
 70
0
 10
128.252120
 20
241.583745
 30
0.0
 10
127.896280
 20
241.454357
 30
0.0
  0
SPLINE
  5
205
100
AcDbEntity
  8
Layer_1
 62
7
100
AcDbSpline
 70
8
 71
3
 72
8
 73
4
 74
0
 40
0
 40
0
 40
0
 40
0
 40
1
 40
1
 40
1
 40
1
 10
126.428870
 20
240.486198
 30
0.0
 10
126.113230
 20
240.646113
 30
0.0
 10
125.875707
 20
240.862545
 30
0.0
 10
125.716300
 20
241.135492
 30
0.0
  0
SPLINE
  5
206
100
AcDbEntity
  8
Layer_1
 62
7
100
AcDbSpline
 70
8
 71
3
 72
8
 73
4
 74
0
 40
0
 40
0
 40
0
 40
0
 40
1
 40
1
 40
1
 40
1
 10
125.716300
 20
241.135492
 30
0.0
 10
125.541707
 20
241.434435
 30
0.0
 10
125.505110
 20
241.750785
 30
0.0
 10
125.606510
 20
242.084543
 30
0.0
  0
SPLINE
  5
207
100
AcDbEntity
  8
Layer_1
 62
7
100
AcDbSpline
 70
8
 71
3
 72
8
 73
4
 74
0
 40
0
 40
0
 40
0
 40
0
 40
1
 40
1
 40
1
 40
1
 10
125.606510
 20
242.084543
 30
0.0
 10
125.713057
 20
242.416948
 30
0.0
 10
125.923923
 20
242.675192
 30
0.0
 10
126.239110
 20
242.859274
 30
0.0
  0
LWPOLYLINE
  5
208
100
AcDbEntity
  8
Layer_1
 62
7
100
AcDbPolyline
 90
2
 70
0
 10
126.741200
 20
240.701292
 30
0.0
 10
126.428870
 20
240.486198
 30
0.0
  0
SPLINE
  5
209
100
AcDbEntity
  8
Layer_1
 62
7
100
AcDbSpline
 70
8
 71
3
 72
8
 73
4
 74
0
 40
0
 40
0
 40
0
 40
0
 40
1
 40
1
 40
1
 40
1
 10
127.530650
 20
240.592386
 30
0.0
 10
127.877350
 20
240.748099
 30
0.0
 10
128.218460
 20
240.769299
 30
0.0
 10
128.553980
 20
240.655986
 30
0.0
  0
SPLINE
  5
20a
100
AcDbEntity
  8
Layer_1
 62
7
100
AcDbSpline
 70
8
 71
3
 72
8
 73
4
 74
0
 40
0
 40
0
 40
0
 40
0
 40
1
 40
1
 40
1
 40
1
 10
128.553980
 20
240.655986
 30
0.0
 10
128.894480
 20
240.540784
 30
0.0
 10
129.134107
 20
240.328714
 30
0.0
 10
129.272860
 20
240.019777
 30
0.0
  0
SPLINE
  5
20b
100
AcDbEntity
  8
Layer_1
 62
7
100
AcDbSpline
 70
8
 71
3
 72
8
 73
4
 74
0
 40
0
 40
0
 40
0
 40
0
 40
1
 40
1
 40
1
 40
1
 10
129.272860
 20
240.019777
 30
0.0
 10
129.417780
 20
239.697108
 30
0.0
 10
129.413513
 20
239.371374
 30
0.0
 10
129.260060
 20
239.042573
 30
0.0
  0
SPLINE
  5
20c
100
AcDbEntity
  8
Layer_1
 62
7
100
AcDbSpline
 70
8
 71
3
 72
8
 73
4
 74
0
 40
0
 40
0
 40
0
 40
0
 40
1
 40
1
 40
1
 40
1
 10
129.260060
 20
239.042573
 30
0.0
 10
129.110040
 20
238.715314
 30
0.0
 10
128.870263
 20
238.477682
 30
0.0
 10
128.540730
 20
238.329678
 30
0.0
  0
SPLINE
  5
20d
100
AcDbEntity
  8
Layer_1
 62
7
100
AcDbSpline
 70
8
 71
3
 72
8
 73
4
 74
0
 40
0
 40
0
 40
0
 40
0
 40
1
 40
1
 40
1
 40
1
 10
128.540730
 20
238.329678
 30
0.0
 10
128.200897
 20
238.177049
 30
0.0
 10
127.866827
 20
238.163135
 30
0.0
 10
127.538520
 20
238.287938
 30
0.0
  0
SPLINE
  5
20e
100
AcDbEntity
  8
Layer_1
 62
7
100
AcDbSpline
 70
8
 71
3
 72
8
 73
4
 74
0
 40
0
 40
0
 40
0
 40
0
 40
1
 40
1
 40
1
 40
1
 10
127.538520
 20
238.287938
 30
0.0
 10
127.210213
 20
238.412740
 30
0.0
 10
126.978227
 20
238.626177
 30
0.0
 10
126.842560
 20
238.928249
 30
0.0
  0
SPLINE
  5
20f
100
AcDbEntity
  8
Layer_1
 62
7
100
AcDbSpline
 70
8
 71
3
 72
8
 73
4
 74
0
 40
0
 40
0
 40
0
 40
0
 40
1
 40
1
 40
1
 40
1
 10
126.842560
 20
238.928249
 30
0.0
 10
126.706887
 20
239.230322
 30
0.0
 10
126.701453
 20
239.545511
 30
0.0
 10
126.826260
 20
239.873818
 30
0.0
  0
SPLINE
  5
210
100
AcDbEntity
  8
Layer_1
 62
7
100
AcDbSpline
 70
8
 71
3
 72
8
 73
4
 74
0
 40
0
 40
0
 40
0
 40
0
 40
1
 40
1
 40
1
 40
1
 10
126.826260
 20
239.873818
 30
0.0
 10
126.956040
 20
240.200235
 30
0.0
 10
127.190843
 20
240.439757
 30
0.0
 10
127.530670
 20
240.592386
 30
0.0
  0
LWPOLYLINE
  5
211
100
AcDbEntity
  8
Layer_1
 62
7
100
AcDbPolyline
 90
1
 70
1
 10
126.239110
 20
242.859274
 30
0.0
  0
SPLINE
  5
212
100
AcDbEntity
  8
Layer_1
 62
7
100
AcDbSpline
 70
8
 71
3
 72
8
 73
4
 74
0
 40
0
 40
0
 40
0
 40
0
 40
1
 40
1
 40
1
 40
1
 10
127.762520
 20
240.213893
 30
0.0
 10
127.460447
 20
240.078222
 30
0.0
 10
127.264553
 20
239.903613
 30
0.0
 10
127.174840
 20
239.690066
 30
0.0
  0
SPLINE
  5
213
100
AcDbEntity
  8
Layer_1
 62
7
100
AcDbSpline
 70
8
 71
3
 72
8
 73
4
 74
0
 40
0
 40
0
 40
0
 40
0
 40
1
 40
1
 40
1
 40
1
 10
127.174840
 20
239.690066
 30
0.0
 10
127.086667
 20
239.473085
 30
0.0
 10
127.085667
 20
239.268481
 30
0.0
 10
127.171840
 20
239.076253
 30
0.0
  0
SPLINE
  5
214
100
AcDbEntity
  8
Layer_1
 62
7
100
AcDbSpline
 70
8
 71
3
 72
8
 73
4
 74
0
 40
0
 40
0
 40
0
 40
0
 40
1
 40
1
 40
1
 40
1
 10
127.171840
 20
239.076253
 30
0.0
 10
127.258173
 20
238.884025
 30
0.0
 10
127.410950
 20
238.750514
 30
0.0
 10
127.630170
 20
238.675720
 30
0.0
  0
SPLINE
  5
215
100
AcDbEntity
  8
Layer_1
 62
7
100
AcDbSpline
 70
8
 71
3
 72
8
 73
4
 74
0
 40
0
 40
0
 40
0
 40
0
 40
1
 40
1
 40
1
 40
1
 10
127.630170
 20
238.675720
 30
0.0
 10
127.854370
 20
238.599035
 30
0.0
 10
128.115790
 20
238.627759
 30
0.0
 10
128.414430
 20
238.761890
 30
0.0
  0
SPLINE
  5
216
100
AcDbEntity
  8
Layer_1
 62
7
100
AcDbSpline
 70
8
 71
3
 72
8
 73
4
 74
0
 40
0
 40
0
 40
0
 40
0
 40
1
 40
1
 40
1
 40
1
 10
128.414430
 20
238.761890
 30
0.0
 10
128.702770
 20
238.891393
 30
0.0
 10
128.885880
 20
239.062323
 30
0.0
 10
128.963760
 20
239.274678
 30
0.0
  0
SPLINE
  5
217
100
AcDbEntity
  8
Layer_1
 62
7
100
AcDbSpline
 70
8
 71
3
 72
8
 73
4
 74
0
 40
0
 40
0
 40
0
 40
0
 40
1
 40
1
 40
1
 40
1
 10
128.963760
 20
239.274678
 30
0.0
 10
129.043173
 20
239.483601
 30
0.0
 10
129.039707
 20
239.684176
 30
0.0
 10
128.953360
 20
239.876404
 30
0.0
  0
SPLINE
  5
218
100
AcDbEntity
  8
Layer_1
 62
7
100
AcDbSpline
 70
8
 71
3
 72
8
 73
4
 74
0
 40
0
 40
0
 40
0
 40
0
 40
1
 40
1
 40
1
 40
1
 10
128.953360
 20
239.876404
 30
0.0
 10
128.868567
 20
240.065199
 30
0.0
 10
128.720937
 20
240.201023
 30
0.0
 10
128.510470
 20
240.283874
 30
0.0
  0
SPLINE
  5
219
100
AcDbEntity
  8
Layer_1
 62
7
100
AcDbSpline
 70
8
 71
3
 72
8
 73
4
 74
0
 40
0
 40
0
 40
0
 40
0
 40
1
 40
1
 40
1
 40
1
 10
128.510470
 20
240.283874
 30
0.0
 10
128.300010
 20
240.366726
 30
0.0
 10
128.050607
 20
240.343399
 30
0.0
 10
127.762260
 20
240.213894
 30
0.0
  0
LWPOLYLINE
  5
21a
100
AcDbEntity
  8
Layer_1
 62
7
100
AcDbPolyline
 90
1
 70
1
 10
127.530670
 20
240.592386
 30
0.0
  0
LWPOLYLINE
  5
21b
100
AcDbEntity
  8
Layer_1
 62
7
100
AcDbPolyline
 90
2
 70
0
 10
127.762260
 20
240.213894
 30
0.0
 10
127.762520
 20
240.213893
 30
0.0
  0
SPLINE
  5
21c
100
AcDbEntity
  8
Layer_1
 62
7
100
AcDbSpline
 70
8
 71
3
 72
8
 73
4
 74
0
 40
0
 40
0
 40
0
 40
0
 40
1
 40
1
 40
1
 40
1
 10
131.198180
 20
237.881689
 30
0.0
 10
131.121473
 20
237.849656
 30
0.0
 10
131.061747
 20
237.801272
 30
0.0
 10
131.019000
 20
237.736537
 30
0.0
  0
SPLINE
  5
21d
100
AcDbEntity
  8
Layer_1
 62
7
100
AcDbSpline
 70
8
 71
3
 72
8
 73
4
 74
0
 40
0
 40
0
 40
0
 40
0
 40
1
 40
1
 40
1
 40
1
 10
131.019000
 20
237.736537
 30
0.0
 10
130.976267
 20
237.671804
 30
0.0
 10
130.952500
 20
237.603177
 30
0.0
 10
130.947700
 20
237.530657
 30
0.0
  0
SPLINE
  5
21e
100
AcDbEntity
  8
Layer_1
 62
7
100
AcDbSpline
 70
8
 71
3
 72
8
 73
4
 74
0
 40
0
 40
0
 40
0
 40
0
 40
1
 40
1
 40
1
 40
1
 10
130.947700
 20
237.530657
 30
0.0
 10
130.947627
 20
237.455680
 30
0.0
 10
130.950627
 20
237.389577
 30
0.0
 10
130.956700
 20
237.332347
 30
0.0
  0
SPLINE
  5
21f
100
AcDbEntity
  8
Layer_1
 62
7
100
AcDbSpline
 70
8
 71
3
 72
8
 73
4
 74
0
 40
0
 40
0
 40
0
 40
0
 40
1
 40
1
 40
1
 40
1
 10
130.956700
 20
237.332347
 30
0.0
 10
130.966433
 20
237.276247
 30
0.0
 10
130.978667
 20
237.224866
 30
0.0
 10
130.993400
 20
237.178203
 30
0.0
  0
SPLINE
  5
220
100
AcDbEntity
  8
Layer_1
 62
7
100
AcDbSpline
 70
8
 71
3
 72
8
 73
4
 74
0
 40
0
 40
0
 40
0
 40
0
 40
1
 40
1
 40
1
 40
1
 10
130.993400
 20
237.178203
 30
0.0
 10
131.009200
 20
237.127950
 30
0.0
 10
131.028600
 20
237.078828
 30
0.0
 10
131.051600
 20
237.030838
 30
0.0
  0
SPLINE
  5
221
100
AcDbEntity
  8
Layer_1
 62
7
100
AcDbSpline
 70
8
 71
3
 72
8
 73
4
 74
0
 40
0
 40
0
 40
0
 40
0
 40
1
 40
1
 40
1
 40
1
 10
131.051600
 20
237.030838
 30
0.0
 10
131.079333
 20
236.980385
 30
0.0
 10
131.114690
 20
236.924448
 30
0.0
 10
131.157670
 20
236.863029
 30
0.0
  0
SPLINE
  5
222
100
AcDbEntity
  8
Layer_1
 62
7
100
AcDbSpline
 70
8
 71
3
 72
8
 73
4
 74
0
 40
0
 40
0
 40
0
 40
0
 40
1
 40
1
 40
1
 40
1
 10
131.157670
 20
236.863029
 30
0.0
 10
131.204270
 20
236.802736
 30
0.0
 10
131.263623
 20
236.758296
 30
0.0
 10
131.335730
 20
236.729711
 30
0.0
  0
SPLINE
  5
223
100
AcDbEntity
  8
Layer_1
 62
7
100
AcDbSpline
 70
8
 71
3
 72
8
 73
4
 74
0
 40
0
 40
0
 40
0
 40
0
 40
1
 40
1
 40
1
 40
1
 10
131.335730
 20
236.729711
 30
0.0
 10
131.407843
 20
236.701124
 30
0.0
 10
131.484513
 20
236.695668
 30
0.0
 10
131.565740
 20
236.713341
 30
0.0
  0
LWPOLYLINE
  5
224
100
AcDbEntity
  8
Layer_1
 62
7
100
AcDbPolyline
 90
2
 70
0
 10
131.094820
 20
238.210118
 30
0.0
 10
131.198180
 20
237.881689
 30
0.0
  0
SPLINE
  5
225
100
AcDbEntity
  8
Layer_1
 62
7
100
AcDbSpline
 70
8
 71
3
 72
8
 73
4
 74
0
 40
0
 40
0
 40
0
 40
0
 40
1
 40
1
 40
1
 40
1
 10
131.669110
 20
236.384912
 30
0.0
 10
131.433537
 20
236.318665
 30
0.0
 10
131.220540
 20
236.356172
 30
0.0
 10
131.030120
 20
236.497431
 30
0.0
  0
SPLINE
  5
226
100
AcDbEntity
  8
Layer_1
 62
7
100
AcDbSpline
 70
8
 71
3
 72
8
 73
4
 74
0
 40
0
 40
0
 40
0
 40
0
 40
1
 40
1
 40
1
 40
1
 10
131.030120
 20
236.497431
 30
0.0
 10
130.839700
 20
236.638693
 30
0.0
 10
130.707777
 20
236.825979
 30
0.0
 10
130.634350
 20
237.059290
 30
0.0
  0
SPLINE
  5
227
100
AcDbEntity
  8
Layer_1
 62
7
100
AcDbSpline
 70
8
 71
3
 72
8
 73
4
 74
0
 40
0
 40
0
 40
0
 40
0
 40
1
 40
1
 40
1
 40
1
 10
130.634350
 20
237.059290
 30
0.0
 10
130.560923
 20
237.292601
 30
0.0
 10
130.561243
 20
237.523479
 30
0.0
 10
130.635310
 20
237.751925
 30
0.0
  0
SPLINE
  5
228
100
AcDbEntity
  8
Layer_1
 62
7
100
AcDbSpline
 70
8
 71
3
 72
8
 73
4
 74
0
 40
0
 40
0
 40
0
 40
0
 40
1
 40
1
 40
1
 40
1
 10
130.635310
 20
237.751925
 30
0.0
 10
130.714090
 20
237.977911
 30
0.0
 10
130.867213
 20
238.130642
 30
0.0
 10
131.094680
 20
238.210119
 30
0.0
  0
LWPOLYLINE
  5
229
100
AcDbEntity
  8
Layer_1
 62
7
100
AcDbPolyline
 90
2
 70
0
 10
131.565740
 20
236.713341
 30
0.0
 10
131.669110
 20
236.384912
 30
0.0
  0
LWPOLYLINE
  5
22a
100
AcDbEntity
  8
Layer_1
 62
7
100
AcDbPolyline
 90
2
 70
0
 10
131.094680
 20
238.210119
 30
0.0
 10
131.094820
 20
238.210118
 30
0.0
  0
LWPOLYLINE
  5
22b
100
AcDbEntity
  8
Layer_1
 62
7
100
AcDbPolyline
 90
10
 70
1
 10
127.623880
 20
237.224254
 30
0.0
 10
130.019800
 20
237.978301
 30
0.0
 10
130.146890
 20
237.574494
 30
0.0
 10
128.127850
 20
236.939062
 30
0.0
 10
130.465450
 20
236.562285
 30
0.0
 10
130.651840
 20
235.970035
 30
0.0
 10
128.255920
 20
235.215988
 30
0.0
 10
128.128840
 20
235.619795
 30
0.0
 10
130.147870
 20
236.255227
 30
0.0
 10
127.810270
 20
236.632004
 30
0.0
  0
SPLINE
  5
22c
100
AcDbEntity
  8
Layer_1
 62
7
100
AcDbSpline
 70
8
 71
3
 72
8
 73
4
 74
0
 40
0
 40
0
 40
0
 40
0
 40
1
 40
1
 40
1
 40
1
 10
128.809550
 20
234.433640
 30
0.0
 10
129.046377
 20
234.270866
 30
0.0
 10
129.318617
 20
234.185455
 30
0.0
 10
129.626270
 20
234.177408
 30
0.0
  0
SPLINE
  5
22d
100
AcDbEntity
  8
Layer_1
 62
7
100
AcDbSpline
 70
8
 71
3
 72
8
 73
4
 74
0
 40
0
 40
0
 40
0
 40
0
 40
1
 40
1
 40
1
 40
1
 10
129.626270
 20
234.177408
 30
0.0
 10
129.934610
 20
234.165661
 30
0.0
 10
130.392177
 20
234.216010
 30
0.0
 10
130.998970
 20
234.328455
 30
0.0
  0
LWPOLYLINE
  5
22e
100
AcDbEntity
  8
Layer_1
 62
7
100
AcDbPolyline
 90
2
 70
0
 10
128.764250
 20
234.677838
 30
0.0
 10
128.809550
 20
234.433640
 30
0.0
  0
LWPOLYLINE
  5
22f
100
AcDbEntity
  8
Layer_1
 62
7
100
AcDbPolyline
 90
12
 70
0
 10
130.998970
 20
234.328455
 30
0.0
 10
131.032270
 20
234.334655
 30
0.0
 10
131.324350
 20
232.758468
 30
0.0
 10
129.193170
 20
232.363535
 30
0.0
 10
129.261070
 20
231.997238
 30
0.0
 10
128.023430
 20
231.767889
 30
0.0
 10
127.957630
 20
232.123087
 30
0.0
 10
128.856720
 20
232.289699
 30
0.0
 10
128.491610
 20
234.259933
 30
0.0
 10
127.592520
 20
234.093321
 30
0.0
 10
127.526720
 20
234.448518
 30
0.0
 10
128.764250
 20
234.677838
 30
0.0
  0
SPLINE
  5
230
100
AcDbEntity
  8
Layer_1
 62
7
100
AcDbSpline
 70
8
 71
3
 72
8
 73
4
 74
0
 40
0
 40
0
 40
0
 40
0
 40
1
 40
1
 40
1
 40
1
 10
130.758060
 20
233.893464
 30
0.0
 10
130.731460
 20
233.892397
 30
0.0
 10
130.634573
 20
233.878271
 30
0.0
 10
130.467400
 20
233.851084
 30
0.0
  0
SPLINE
  5
231
100
AcDbEntity
  8
Layer_1
 62
7
100
AcDbSpline
 70
8
 71
3
 72
8
 73
4
 74
0
 40
0
 40
0
 40
0
 40
0
 40
1
 40
1
 40
1
 40
1
 10
130.467400
 20
233.851084
 30
0.0
 10
130.303920
 20
233.824617
 30
0.0
 10
130.152357
 20
233.806097
 30
0.0
 10
130.012710
 20
233.795524
 30
0.0
  0
SPLINE
  5
232
100
AcDbEntity
  8
Layer_1
 62
7
100
AcDbSpline
 70
8
 71
3
 72
8
 73
4
 74
0
 40
0
 40
0
 40
0
 40
0
 40
1
 40
1
 40
1
 40
1
 10
130.012710
 20
233.795524
 30
0.0
 10
129.873757
 20
233.781257
 30
0.0
 10
129.697047
 20
233.784867
 30
0.0
 10
129.482580
 20
233.806354
 30
0.0
  0
SPLINE
  5
233
100
AcDbEntity
  8
Layer_1
 62
7
100
AcDbSpline
 70
8
 71
3
 72
8
 73
4
 74
0
 40
0
 40
0
 40
0
 40
0
 40
1
 40
1
 40
1
 40
1
 10
129.482580
 20
233.806354
 30
0.0
 10
129.272493
 20
233.824827
 30
0.0
 10
129.078647
 20
233.869273
 30
0.0
 10
128.901040
 20
233.939691
 30
0.0
  0
LWPOLYLINE
  5
234
100
AcDbEntity
  8
Layer_1
 62
7
100
AcDbPolyline
 90
4
 70
0
 10
128.901040
 20
233.939694
 30
0.0
 10
129.115990
 20
232.779753
 30
0.0
 10
130.903070
 20
233.110920
 30
0.0
 10
130.758060
 20
233.893464
 30
0.0
  0
LWPOLYLINE
  5
235
100
AcDbEntity
  8
Layer_1
 62
7
100
AcDbPolyline
 90
1
 70
1
 10
128.901040
 20
233.939691
 30
0.0
  0
LWPOLYLINE
  5
236
100
AcDbEntity
  8
Layer_1
 62
7
100
AcDbPolyline
 90
4
 70
1
 10
132.264250
 20
230.459358
 30
0.0
 10
132.765290
 20
230.495748
 30
0.0
 10
132.802090
 20
229.989082
 30
0.0
 10
132.301050
 20
229.952692
 30
0.0
  0
SPLINE
  5
237
100
AcDbEntity
  8
Layer_1
 62
7
100
AcDbSpline
 70
8
 71
3
 72
8
 73
4
 74
0
 40
0
 40
0
 40
0
 40
0
 40
1
 40
1
 40
1
 40
1
 10
130.223930
 20
231.669407
 30
0.0
 10
130.595483
 20
231.696394
 30
0.0
 10
130.917043
 20
231.606561
 30
0.0
 10
131.188610
 20
231.399910
 30
0.0
  0
SPLINE
  5
238
100
AcDbEntity
  8
Layer_1
 62
7
100
AcDbSpline
 70
8
 71
3
 72
8
 73
4
 74
0
 40
0
 40
0
 40
0
 40
0
 40
1
 40
1
 40
1
 40
1
 10
131.188610
 20
231.399910
 30
0.0
 10
131.460443
 20
231.189508
 30
0.0
 10
131.607400
 20
230.932307
 30
0.0
 10
131.629480
 20
230.628308
 30
0.0
  0
SPLINE
  5
239
100
AcDbEntity
  8
Layer_1
 62
7
100
AcDbSpline
 70
8
 71
3
 72
8
 73
4
 74
0
 40
0
 40
0
 40
0
 40
0
 40
1
 40
1
 40
1
 40
1
 10
131.629480
 20
230.628308
 30
0.0
 10
131.637680
 20
230.515715
 30
0.0
 10
131.626680
 20
230.407390
 30
0.0
 10
131.596480
 20
230.303331
 30
0.0
  0
SPLINE
  5
23a
100
AcDbEntity
  8
Layer_1
 62
7
100
AcDbSpline
 70
8
 71
3
 72
8
 73
4
 74
0
 40
0
 40
0
 40
0
 40
0
 40
1
 40
1
 40
1
 40
1
 10
131.596480
 20
230.303331
 30
0.0
 10
131.570080
 20
230.199545
 30
0.0
 10
131.519267
 20
230.093987
 30
0.0
 10
131.444040
 20
229.986657
 30
0.0
  0
SPLINE
  5
23b
100
AcDbEntity
  8
Layer_1
 62
7
100
AcDbSpline
 70
8
 71
3
 72
8
 73
4
 74
0
 40
0
 40
0
 40
0
 40
0
 40
1
 40
1
 40
1
 40
1
 10
131.444040
 20
229.986657
 30
0.0
 10
131.369107
 20
229.875574
 30
0.0
 10
131.251523
 20
229.780258
 30
0.0
 10
131.091290
 20
229.700709
 30
0.0
  0
SPLINE
  5
23c
100
AcDbEntity
  8
Layer_1
 62
7
100
AcDbSpline
 70
8
 71
3
 72
8
 73
4
 74
0
 40
0
 40
0
 40
0
 40
0
 40
1
 40
1
 40
1
 40
1
 10
131.091290
 20
229.700709
 30
0.0
 10
130.931063
 20
229.621160
 30
0.0
 10
130.736890
 20
229.567443
 30
0.0
 10
130.508770
 20
229.539556
 30
0.0
  0
LWPOLYLINE
  5
23d
100
AcDbEntity
  8
Layer_1
 62
7
100
AcDbPolyline
 90
4
 70
1
 10
132.184950
 20
231.551503
 30
0.0
 10
132.685990
 20
231.587893
 30
0.0
 10
132.722790
 20
231.081227
 30
0.0
 10
132.221750
 20
231.044837
 30
0.0
  0
SPLINE
  5
23e
100
AcDbEntity
  8
Layer_1
 62
7
100
AcDbSpline
 70
8
 71
3
 72
8
 73
4
 74
0
 40
0
 40
0
 40
0
 40
0
 40
1
 40
1
 40
1
 40
1
 10
130.218760
 20
231.272877
 30
0.0
 10
129.938100
 20
231.241177
 30
0.0
 10
129.715433
 20
231.138229
 30
0.0
 10
129.550760
 20
230.964033
 30
0.0
  0
SPLINE
  5
23f
100
AcDbEntity
  8
Layer_1
 62
7
100
AcDbSpline
 70
8
 71
3
 72
8
 73
4
 74
0
 40
0
 40
0
 40
0
 40
0
 40
1
 40
1
 40
1
 40
1
 10
129.550760
 20
230.964033
 30
0.0
 10
129.386087
 20
230.789840
 30
0.0
 10
129.311790
 20
230.592027
 30
0.0
 10
129.327870
 20
230.370596
 30
0.0
  0
SPLINE
  5
240
100
AcDbEntity
  8
Layer_1
 62
7
100
AcDbSpline
 70
8
 71
3
 72
8
 73
4
 74
0
 40
0
 40
0
 40
0
 40
0
 40
1
 40
1
 40
1
 40
1
 10
129.327870
 20
230.370596
 30
0.0
 10
129.348603
 20
230.085362
 30
0.0
 10
129.472530
 20
229.807624
 30
0.0
 10
129.699650
 20
229.537382
 30
0.0
  0
LWPOLYLINE
  5
241
100
AcDbEntity
  8
Layer_1
 62
7
100
AcDbPolyline
 90
3
 70
0
 10
130.508770
 20
229.539556
 30
0.0
 10
130.345510
 20
229.527696
 30
0.0
 10
130.218760
 20
231.272877
 30
0.0
  0
SPLINE
  5
242
100
AcDbEntity
  8
Layer_1
 62
7
100
AcDbSpline
 70
8
 71
3
 72
8
 73
4
 74
0
 40
0
 40
0
 40
0
 40
0
 40
1
 40
1
 40
1
 40
1
 10
129.330540
 20
229.476622
 30
0.0
 10
129.118420
 20
229.747954
 30
0.0
 10
129.001183
 20
230.037496
 30
0.0
 10
128.978830
 20
230.345249
 30
0.0
  0
SPLINE
  5
243
100
AcDbEntity
  8
Layer_1
 62
7
100
AcDbSpline
 70
8
 71
3
 72
8
 73
4
 74
0
 40
0
 40
0
 40
0
 40
0
 40
1
 40
1
 40
1
 40
1
 10
128.978830
 20
230.345249
 30
0.0
 10
128.952963
 20
230.701791
 30
0.0
 10
129.062923
 20
231.005948
 30
0.0
 10
129.308710
 20
231.257719
 30
0.0
  0
SPLINE
  5
244
100
AcDbEntity
  8
Layer_1
 62
7
100
AcDbSpline
 70
8
 71
3
 72
8
 73
4
 74
0
 40
0
 40
0
 40
0
 40
0
 40
1
 40
1
 40
1
 40
1
 10
129.308710
 20
231.257719
 30
0.0
 10
129.558557
 20
231.506010
 30
0.0
 10
129.863627
 20
231.643239
 30
0.0
 10
130.223920
 20
231.669407
 30
0.0
  0
LWPOLYLINE
  5
245
100
AcDbEntity
  8
Layer_1
 62
7
100
AcDbPolyline
 90
2
 70
0
 10
129.699650
 20
229.537382
 30
0.0
 10
129.330540
 20
229.476622
 30
0.0
  0
LWPOLYLINE
  5
246
100
AcDbEntity
  8
Layer_1
 62
7
100
AcDbPolyline
 90
1
 70
1
 10
130.223920
 20
231.669407
 30
0.0
  0
SPLINE
  5
247
100
AcDbEntity
  8
Layer_1
 62
7
100
AcDbSpline
 70
8
 71
3
 72
8
 73
4
 74
0
 40
0
 40
0
 40
0
 40
0
 40
1
 40
1
 40
1
 40
1
 10
130.631840
 20
229.871075
 30
0.0
 10
130.776580
 20
229.904222
 30
0.0
 10
130.897433
 20
229.954501
 30
0.0
 10
130.994400
 20
230.021912
 30
0.0
  0
SPLINE
  5
248
100
AcDbEntity
  8
Layer_1
 62
7
100
AcDbSpline
 70
8
 71
3
 72
8
 73
4
 74
0
 40
0
 40
0
 40
0
 40
0
 40
1
 40
1
 40
1
 40
1
 10
130.994400
 20
230.021912
 30
0.0
 10
131.091647
 20
230.085565
 30
0.0
 10
131.158187
 20
230.156423
 30
0.0
 10
131.194020
 20
230.234485
 30
0.0
  0
SPLINE
  5
249
100
AcDbEntity
  8
Layer_1
 62
7
100
AcDbSpline
 70
8
 71
3
 72
8
 73
4
 74
0
 40
0
 40
0
 40
0
 40
0
 40
1
 40
1
 40
1
 40
1
 10
131.194020
 20
230.234485
 30
0.0
 10
131.233887
 20
230.309064
 30
0.0
 10
131.259153
 20
230.376924
 30
0.0
 10
131.269820
 20
230.438064
 30
0.0
  0
SPLINE
  5
24a
100
AcDbEntity
  8
Layer_1
 62
7
100
AcDbSpline
 70
8
 71
3
 72
8
 73
4
 74
0
 40
0
 40
0
 40
0
 40
0
 40
1
 40
1
 40
1
 40
1
 10
131.269820
 20
230.438064
 30
0.0
 10
131.280753
 20
230.495451
 30
0.0
 10
131.284320
 20
230.550415
 30
0.0
 10
131.280520
 20
230.602958
 30
0.0
  0
SPLINE
  5
24b
100
AcDbEntity
  8
Layer_1
 62
7
100
AcDbSpline
 70
8
 71
3
 72
8
 73
4
 74
0
 40
0
 40
0
 40
0
 40
0
 40
1
 40
1
 40
1
 40
1
 10
131.280520
 20
230.602958
 30
0.0
 10
131.266653
 20
230.794365
 30
0.0
 10
131.182020
 20
230.946679
 30
0.0
 10
131.026620
 20
231.059900
 30
0.0
  0
SPLINE
  5
24c
100
AcDbEntity
  8
Layer_1
 62
7
100
AcDbSpline
 70
8
 71
3
 72
8
 73
4
 74
0
 40
0
 40
0
 40
0
 40
0
 40
1
 40
1
 40
1
 40
1
 10
131.026620
 20
231.059900
 30
0.0
 10
130.871260
 20
231.173121
 30
0.0
 10
130.705893
 20
231.242228
 30
0.0
 10
130.530520
 20
231.267220
 30
0.0
  0
LWPOLYLINE
  5
24d
100
AcDbEntity
  8
Layer_1
 62
7
100
AcDbPolyline
 90
2
 70
0
 10
130.530440
 20
231.267220
 30
0.0
 10
130.631840
 20
229.871075
 30
0.0
  0
LWPOLYLINE
  5
24e
100
AcDbEntity
  8
Layer_1
 62
7
100
AcDbPolyline
 90
1
 70
1
 10
130.530520
 20
231.267220
 30
0.0
  0
LWPOLYLINE
  5
24f
100
AcDbEntity
  8
Layer_1
 62
7
100
AcDbPolyline
 90
12
 70
1
 10
131.272580
 20
229.066178
 30
0.0
 10
131.628030
 20
229.055818
 30
0.0
 10
131.560930
 20
226.753863
 30
0.0
 10
131.205480
 20
226.764223
 30
0.0
 10
131.212480
 20
227.001189
 30
0.0
 10
131.221480
 20
227.119507
 30
0.0
 10
131.238280
 20
227.694996
 30
0.0
 10
129.077380
 20
227.758006
 30
0.0
 10
129.090180
 20
228.198086
 30
0.0
 10
131.251090
 20
228.135076
 30
0.0
 10
131.267890
 20
228.710565
 30
0.0
 10
131.265890
 20
228.829212
 30
0.0
  0
LWPOLYLINE
  5
250
100
AcDbEntity
  8
Layer_1
 62
7
100
AcDbPolyline
 90
4
 70
1
 10
128.951400
 20
226.024444
 30
0.0
 10
129.422290
 20
225.969094
 30
0.0
 10
129.366890
 20
225.498202
 30
0.0
 10
128.896000
 20
225.553552
 30
0.0
  0
LWPOLYLINE
  5
251
100
AcDbEntity
  8
Layer_1
 62
7
100
AcDbPolyline
 90
5
 70
1
 10
132.998820
 20
225.548709
 30
0.0
 10
132.943420
 20
225.077817
 30
0.0
 10
129.882950
 20
225.488695
 30
0.0
 10
129.927150
 20
225.864287
 30
0.0
 10
132.712260
 20
225.576707
 30
0.0
  0
ENDSEC
  0
SECTION
  2
OBJECTS
  0
DICTIONARY
  5
C
330
0
100
AcDbDictionary
  3
ACAD_GROUP
350
D
  3
ACAD_MLINESTYLE
350
17
  0
DICTIONARY
  5
D
330
C
100
AcDbDictionary
  0
DICTIONARY
  5
1A
330
C
100
AcDbDictionary
  0
DICTIONARY
  5
17
330
C
100
AcDbDictionary
  3
STANDARD
350
18
  0
DICTIONARY
  5
19
330
C
100
AcDbDictionary
  0
ENDSEC
  0
EOF
