<?xml version="1.0" encoding="UTF-8"?>
<!DOCTYPE svg PUBLIC "-//W3C//DTD SVG 1.1//EN" "http://www.w3.org/Graphics/SVG/1.1/DTD/svg11.dtd">
<!-- Creator: CorelDRAW X7 -->
<svg xmlns="http://www.w3.org/2000/svg" xml:space="preserve" width="210mm" height="297mm" version="1.1" style="shape-rendering:geometricPrecision; text-rendering:geometricPrecision; image-rendering:optimizeQuality; fill-rule:evenodd; clip-rule:evenodd"
viewBox="0 0 21000 29700"
 xmlns:xlink="http://www.w3.org/1999/xlink">
 <defs>
  <style type="text/css">
   <![CDATA[
    .str0 {stroke:black;stroke-width:7.62;stroke-linejoin:bevel}
    .fil0 {fill:none}
    .fil1 {fill:#2B2A29}
   ]]>
  </style>
 </defs>
 <g id="Слой_x0020_1">
  <metadata id="CorelCorpID_0Corel-Layer"/>
  <g id="_1692572869280">
   <g>
    <path class="fil0 str0" d="M8562 4098c323,-474 807,-895 1192,-1220"/>
    <path class="fil0 str0" d="M9317 5798c-239,554 -306,1314 -333,1801"/>
    <path class="fil0 str0" d="M9499 5824c-166,471 -240,1374 -213,1540"/>
    <path class="fil0 str0" d="M9286 7364c198,135 667,208 928,162"/>
    <path class="fil0 str0" d="M9308 6803c91,431 642,723 841,543"/>
    <path class="fil0 str0" d="M10027 6516c46,215 116,737 117,817"/>
    <path class="fil0 str0" d="M10235 7402c138,-3 315,50 366,89"/>
    <path class="fil0 str0" d="M10234 7403c-31,174 -40,265 -49,401"/>
    <path class="fil0 str0" d="M10184 7806c121,96 516,150 595,140"/>
    <path class="fil0 str0" d="M10779 7946c-15,-137 -117,-363 -168,-449"/>
    <path class="fil0 str0" d="M10598 7478c38,-350 86,-1660 -6,-2278"/>
    <path class="fil0 str0" d="M10592 5200c-46,-275 -376,-309 -491,-261"/>
    <path class="fil0 str0" d="M10124 5328c-14,212 -59,378 -135,491"/>
    <path class="fil0 str0" d="M9993 6101c-9,-88 -31,-242 -2,-280"/>
    <path class="fil0 str0" d="M9991 5821c18,-23 58,-50 72,-9"/>
    <path class="fil0 str0" d="M10063 5812c44,126 164,561 167,1070"/>
    <path class="fil0 str0" d="M9923 6224c97,-38 144,104 142,239"/>
    <line class="fil0 str0" x1="10144" y1="7333" x2="10235" y2= "7402" />
    <path class="fil0 str0" d="M10018 6515c-101,198 -225,295 -360,302"/>
    <path class="fil0 str0" d="M9745 6655c-76,166 -151,236 -211,214"/>
    <path class="fil0 str0" d="M9694 6407c-50,104 -120,279 -156,462"/>
    <path class="fil0 str0" d="M9694 6405c-111,2 -151,-34 -151,-126"/>
    <line class="fil0 str0" x1="10180" y1="6351" x2="10016" y2= "6511" />
    <path class="fil0 str0" d="M9552 6272c58,-9 82,29 131,34"/>
    <path class="fil0 str0" d="M9683 6306c58,7 66,-29 177,2"/>
    <path class="fil0 str0" d="M9860 6308c122,-160 174,-291 226,-408"/>
    <path class="fil0 str0" d="M10118 7085c258,398 447,125 505,47"/>
    <path class="fil0 str0" d="M8389 7288c568,513 1638,541 1795,518"/>
    <path class="fil0 str0" d="M8963 5831c193,-72 601,-37 692,76"/>
    <path class="fil0 str0" d="M9018 5739c60,-49 561,-77 682,98"/>
    <path class="fil0 str0" d="M9248 5352c111,-49 499,-6 581,86"/>
    <path class="fil0 str0" d="M9306 5273c210,-80 517,64 552,96"/>
    <path class="fil0 str0" d="M9987 5317c-50,-24 -119,37 -143,87"/>
    <path class="fil0 str0" d="M9844 5404c-25,51 -22,130 28,155"/>
    <path class="fil0 str0" d="M9872 5559c50,25 105,-32 129,-81"/>
    <path class="fil0 str0" d="M10001 5478c26,-52 38,-136 -14,-161"/>
    <line class="fil0 str0" x1="9543" y1="6279" x2="9552" y2= "6272" />
    <path class="fil0 str0" d="M9808 5805c-50,-24 -119,38 -143,88"/>
    <path class="fil0 str0" d="M9665 5893c-24,51 -22,129 29,155"/>
    <path class="fil0 str0" d="M9694 6048c49,24 104,-32 129,-82"/>
    <path class="fil0 str0" d="M9823 5966c25,-51 37,-136 -15,-161"/>
    <polygon class="fil0 str0" points="9987,5317 9987,5317 "/>
    <path class="fil0 str0" d="M9169 5792c-185,358 -371,1141 -391,1400"/>
    <polygon class="fil0 str0" points="9808,5805 9808,5805 "/>
    <path class="fil0 str0" d="M8770 7202c-128,9 -248,-72 -309,-137"/>
    <path class="fil0 str0" d="M8838 6785c-82,93 -246,226 -361,192"/>
    <path class="fil0 str0" d="M8400 7300c151,-628 634,-1784 1073,-2224"/>
    <path class="fil0 str0" d="M9313 5259c-98,-47 -160,42 -188,107"/>
    <path class="fil0 str0" d="M9125 5366c-17,38 -8,92 35,121"/>
    <path class="fil0 str0" d="M9019 5720c-43,-24 -113,38 -138,86"/>
    <path class="fil0 str0" d="M8881 5806c-28,52 -24,121 11,157"/>
    <path class="fil0 str0" d="M8867 5806c-129,-146 118,-149 272,-338"/>
    <path class="fil0 str0" d="M8835 6103c-277,198 -308,567 -464,513"/>
    <path class="fil0 str0" d="M8844 5781c0,0 -162,110 -209,162"/>
    <path class="fil0 str0" d="M8784 6141c-48,-135 -133,-311 -395,-124"/>
    <line class="fil0 str0" x1="8778" y1="7192" x2="8770" y2= "7202" />
    <path class="fil0 str0" d="M8250 6020c-30,159 164,114 164,114"/>
    <path class="fil0 str0" d="M8414 6134c0,0 -126,212 -92,370"/>
    <path class="fil0 str0" d="M8333 6505c-1,107 45,91 45,91"/>
    <path class="fil0 str0" d="M8383 6371c0,0 -48,105 -59,143"/>
    <path class="fil0 str0" d="M8461 6379c-32,48 -80,190 -89,232"/>
    <path class="fil0 str0" d="M8592 6035c-47,57 -97,201 -106,300"/>
    <path class="fil0 str0" d="M10124 4923c426,-372 1498,-214 1568,-190"/>
    <path class="fil0 str0" d="M10520 5033c255,-304 1016,-288 1165,-302"/>
    <path class="fil0 str0" d="M10309 4925c146,-135 448,-126 569,-104"/>
    <path class="fil0 str0" d="M9198 5706c30,-87 203,-373 203,-373"/>
    <path class="fil0 str0" d="M9455 5250c27,-52 114,-140 143,-177"/>
    <path class="fil0 str0" d="M9357 5695c21,-67 122,-277 172,-354"/>
    <path class="fil0 str0" d="M9583 5260c32,-57 84,-121 144,-184"/>
    <path class="fil0 str0" d="M9531 5729c26,-72 123,-294 165,-351"/>
    <path class="fil0 str0" d="M9736 5303c20,-47 112,-193 176,-234"/>
    <path class="fil0 str0" d="M8889 4567c75,66 128,133 142,178"/>
    <path class="fil0 str0" d="M9031 4745c19,61 -56,138 213,312"/>
    <path class="fil0 str0" d="M9244 5057c358,-23 589,57 761,-35"/>
    <path class="fil0 str0" d="M10005 5022c184,-99 291,-347 376,-714"/>
    <path class="fil0 str0" d="M10167 3927c362,-433 601,290 211,381"/>
    <path class="fil0 str0" d="M10284 4096c45,-29 115,-133 126,-198"/>
    <path class="fil0 str0" d="M9293 4834c21,38 107,4 206,-60"/>
    <path class="fil0 str0" d="M9499 4774c170,-108 376,-303 358,-365"/>
    <path class="fil0 str0" d="M9857 4409c60,143 37,442 -35,489"/>
    <path class="fil0 str0" d="M9822 4898c-97,63 -111,-144 -358,-99"/>
    <path class="fil0 str0" d="M9547 4791c36,-8 287,-101 186,-203"/>
    <path class="fil0 str0" d="M9272 4722c29,-49 114,-89 129,-84"/>
    <path class="fil0 str0" d="M9453 4428c-18,-206 205,-226 247,-209"/>
    <path class="fil0 str0" d="M9454 4422c33,-82 226,-196 245,-197"/>
    <path class="fil0 str0" d="M9540 4248c0,0 -7,49 7,73"/>
    <path class="fil0 str0" d="M9075 4713c-9,-143 121,-115 129,-99"/>
    <path class="fil0 str0" d="M9073 4712c4,-21 122,-102 130,-99"/>
    <polyline class="fil0 str0" points="8389,6017 8381,6020 8250,6020 "/>
    <path class="fil0 str0" d="M9821 4987c71,18 130,-81 141,-104"/>
    <path class="fil0 str0" d="M8752 4372c-25,104 -30,355 -30,355"/>
    <path class="fil0 str0" d="M8722 4727c117,-175 596,-425 771,-659"/>
    <path class="fil0 str0" d="M9493 4068c85,-115 55,-193 76,-451"/>
    <path class="fil0 str0" d="M8743 4375c295,-284 935,-908 1401,-1149"/>
    <path class="fil0 str0" d="M9545 3947c0,0 131,-162 227,-200"/>
    <path class="fil0 str0" d="M9671 3821c89,-3 356,14 502,104"/>
    <path class="fil0 str0" d="M10146 3229c297,126 386,481 366,614"/>
    <path class="fil0 str0" d="M10146 3229c-26,-90 -360,-325 -389,-354"/>
    <path class="fil0 str0" d="M9673 3544c191,-252 301,-1032 -53,-1344"/>
    <path class="fil0 str0" d="M9623 2200c-309,267 -1239,1503 -1344,1768"/>
    <path class="fil0 str0" d="M9623 2196c89,214 159,472 137,689"/>
    <path class="fil0 str0" d="M8283 3954c-55,144 213,137 295,138"/>
    <line class="fil0 str0" x1="9097" y1="4627" x2="9134" y2= "4658" />
    <path class="fil0 str0" d="M8687 4172c-133,81 15,154 62,202"/>
    <path class="fil0 str0" d="M8687 4162c0,0 603,-604 708,-687"/>
    <path class="fil0 str0" d="M9414 3559c-51,-57 -6,-164 53,-213"/>
    <path class="fil0 str0" d="M9467 3346c53,-44 162,-49 207,4"/>
    <path class="fil0 str0" d="M9674 3350c46,53 23,162 -29,210"/>
    <path class="fil0 str0" d="M9645 3560c-53,49 -183,53 -231,-1"/>
    <line class="fil0 str0" x1="8588" y1="4063" x2="8687" y2= "4172" />
    <path class="fil0 str0" d="M8691 4148c11,-34 11,-142 2,-179"/>
    <path class="fil0 str0" d="M8693 3969c0,0 127,19 172,15"/>
    <path class="fil0 str0" d="M8865 3984c12,-34 -2,-192 -2,-192"/>
    <path class="fil0 str0" d="M8863 3792c61,3 80,20 182,7"/>
    <path class="fil0 str0" d="M10445 4293c150,-80 586,175 557,379"/>
    <path class="fil0 str0" d="M10544 4175c127,0 1032,318 1143,554"/>
    <path class="fil0 str0" d="M9238 7698c24,40 46,64 46,116"/>
    <path class="fil0 str0" d="M9284 7814c0,121 -167,94 -187,351"/>
    <path class="fil0 str0" d="M9126 7940c-108,61 -165,185 -175,239"/>
    <path class="fil0 str0" d="M9101 8157c-45,22 -620,3 -680,-46"/>
    <path class="fil0 str0" d="M8417 8112c0,0 -23,-35 -30,-65"/>
    <path class="fil0 str0" d="M8387 8047c-12,-53 -14,-149 21,-190"/>
    <path class="fil0 str0" d="M8408 7857c14,-17 21,-13 40,-1"/>
    <path class="fil0 str0" d="M8448 7856c114,73 199,243 368,302"/>
    <path class="fil0 str0" d="M8581 7962c8,-55 134,-264 243,-245"/>
    <path class="fil0 str0" d="M8757 7532c-23,27 -47,139 68,185"/>
    <path class="fil0 str0" d="M9869 7813c-41,81 81,94 81,94"/>
    <path class="fil0 str0" d="M9943 7916c-134,108 -55,166 29,201"/>
    <path class="fil0 str0" d="M9970 8117c55,1 90,102 99,228"/>
    <path class="fil0 str0" d="M9919 8098c32,65 5,207 5,207"/>
    <path class="fil0 str0" d="M9924 8305c54,-24 108,-8 137,3"/>
    <path class="fil0 str0" d="M10066 8341c103,61 460,20 543,10"/>
    <path class="fil0 str0" d="M10074 8346c161,-6 338,-102 412,-189"/>
    <path class="fil0 str0" d="M10480 8155c48,35 139,113 121,204"/>
    <path class="fil0 str0" d="M10306 7864c55,67 152,205 153,317"/>
    <path class="fil0 str0" d="M10034 7935c51,-43 170,-84 233,-84"/>
    <path class="fil0 str0" d="M13343 5387c0,1250 -667,2406 -1750,3031"/>
    <path class="fil0 str0" d="M11593 8418c-1083,625 -2417,625 -3500,0"/>
    <path class="fil0 str0" d="M8093 8418c-1083,-625 -1750,-1781 -1750,-3031"/>
    <path class="fil0 str0" d="M6343 5387c0,-1251 667,-2406 1750,-3031"/>
    <path class="fil0 str0" d="M8093 2356c1083,-626 2417,-626 3500,0"/>
    <path class="fil0 str0" d="M11593 2356c1083,625 1750,1780 1750,3031"/>
    <polygon class="fil0 str0" points="9414,3559 9414,3559 "/>
    <polygon class="fil0 str0" points="13343,5387 13343,5387 "/>
   </g>
   <circle class="fil0" cx="9844" cy="5404" r="2650"/>
   <path class="fil1" d="M7228 4634c25,2 40,1 47,-3 6,-4 12,-19 18,-45l19 5 -49 211 -19 -5c6,-22 7,-38 6,-45 -2,-8 -9,-14 -22,-17 -9,-2 -17,-3 -23,-4l-388 -37c9,14 21,29 36,44 15,15 36,32 63,52 27,21 62,40 105,59 44,18 93,34 146,46 24,6 39,6 46,1 7,-4 13,-20 19,-46l19 4 -49 212 -19 -4c6,-26 7,-43 3,-50 -4,-7 -17,-13 -41,-19 -47,-11 -83,-21 -108,-30 -25,-9 -51,-25 -79,-47 -29,-23 -55,-51 -79,-83 -24,-33 -55,-80 -94,-142l-28 -3c-25,-2 -41,-1 -48,3 -7,5 -13,20 -19,45l-19 -4 49 -211 19 4c-5,23 -7,39 -5,46 3,7 11,13 26,16 8,2 14,3 19,4l449 43zm-160 -515l402 102 -35 78 -50 -12c22,46 23,94 1,142 -13,29 -31,46 -54,50 -24,4 -46,2 -68,-8 -65,-30 -117,-114 -157,-255l-89 -22 29 -63c4,-10 11,-14 21,-12zm281 159l-220 -56c22,77 59,127 111,151 19,8 41,12 64,10 23,-2 39,-13 48,-33 11,-26 10,-49 -3,-72zm341 -423l-124 193c3,24 11,48 27,71 14,23 31,40 49,52l-11 17c-18,-11 -38,-20 -60,-26 -22,-5 -40,-8 -54,-7l-19 0 -18 -11 52 -80 -281 -309 46 -72 398 126 46 -72 17 11c2,6 5,12 9,21 4,8 13,22 28,42 15,19 31,34 49,46l-11 16c-18,-12 -41,-19 -68,-23 -27,-4 -52,-3 -75,5zm-148 192l106 -164 -359 -115 253 279zm336 -421l-59 62 -306 -292 59 -62 92 88 171 -34 -164 -157 58 -62 307 293 -59 61 -118 -112 -171 34 190 181zm374 -392c8,-28 10,-52 5,-70 -4,-18 -16,-39 -34,-62 -14,-18 -33,-34 -55,-46 -23,-12 -44,-20 -63,-25 -20,-4 -41,-9 -65,-14 -23,-4 -40,-9 -50,-13 -10,30 -13,54 -9,73 4,19 15,40 33,63 15,19 34,34 58,46 24,12 46,19 66,22 21,4 42,7 65,12 23,4 39,9 49,14zm-263 -291c51,-13 104,-12 159,3 56,15 94,36 116,64 13,16 23,38 30,67 7,28 8,63 3,105 -5,42 -20,81 -43,117 -51,14 -104,13 -160,-2 -55,-15 -94,-36 -115,-64 -13,-16 -23,-38 -31,-67 -7,-28 -8,-63 -2,-105 5,-42 19,-81 43,-118zm525 100c14,24 23,50 28,78 5,28 7,48 6,62 -2,13 -3,24 -6,32l-18 11c-3,-31 -10,-56 -21,-75 -3,-6 -13,-17 -30,-32 -17,-16 -30,-32 -40,-48 -2,-5 -1,-9 3,-12l59 -33c4,-3 8,-2 11,3l8 14zm1883 -661l84 14 -75 417 -83 -15 49 -275 -171 144 -19 106 -84 -15 74 -417 84 15 -48 270 171 -143 18 -101zm455 570l166 -367c-20,-9 -35,-15 -45,-18 -11,-3 -21,-3 -32,0 -10,3 -20,11 -27,22 -8,12 -17,30 -28,53l-18 -8c8,-19 14,-38 18,-56 3,-18 4,-31 3,-40l-1 -12 8 -19 338 153 -8 19c-27,14 -50,43 -69,86l-18 -8c11,-24 18,-42 22,-56 3,-13 3,-25 -2,-35 -5,-10 -12,-18 -20,-24 -9,-6 -24,-13 -44,-22l-166 367 -77 -35zm690 -92l-159 384 -73 -47 20 -48c-49,16 -96,9 -141,-19 -26,-17 -40,-38 -41,-61 -1,-24 5,-46 18,-66 38,-60 130,-99 274,-118l35 -85 58 37c10,6 12,14 9,23zm-198 256l88 -210c-80,10 -135,39 -166,88 -11,18 -18,38 -20,61 -1,23 8,41 27,53 23,15 47,17 71,8zm399 -132l64 56 -115 132c40,16 76,21 110,13 33,-7 65,-29 97,-66l64 56 -14 15c-28,33 -62,50 -100,49 -39,0 -86,-13 -141,-36 35,45 53,91 52,139 -1,47 -25,99 -73,154l-64 -55c45,-53 70,-100 75,-142 4,-42 -4,-77 -25,-105l-144 166 -64 -56 278 -320zm553 739c10,-40 17,-65 21,-73 -29,-11 -53,-15 -72,-12 -19,2 -40,12 -64,29 -20,14 -36,33 -49,56 -13,23 -21,45 -25,66 -5,20 -9,42 -15,64 -5,23 -10,39 -16,49 33,11 61,12 83,5l12 48c-57,-2 -111,-20 -161,-55 -10,-51 -7,-104 11,-159 17,-55 40,-93 68,-113 17,-12 40,-21 69,-27 29,-6 64,-5 105,2 41,7 80,24 116,49 7,34 7,72 0,114l-83 -43zm-21 527c27,13 49,19 68,18 19,0 41,-8 67,-21 21,-11 40,-26 56,-46 16,-20 28,-38 36,-57 8,-18 17,-38 26,-60 9,-22 17,-38 23,-47 -27,-15 -50,-23 -70,-23 -19,0 -41,7 -67,20 -22,11 -41,27 -57,49 -16,21 -28,41 -35,60 -7,20 -15,40 -23,62 -9,21 -17,36 -24,45zm336 -202c3,52 -8,104 -33,155 -26,52 -54,86 -85,101 -18,10 -42,16 -71,17 -30,2 -64,-4 -104,-17 -40,-13 -76,-35 -107,-65 -4,-52 7,-104 33,-156 25,-52 53,-85 84,-101 19,-10 43,-15 72,-17 29,-2 64,4 104,17 40,14 75,35 107,66zm229 467c-22,-78 -17,-121 13,-130 11,-3 21,-3 29,0 8,4 13,9 15,17 3,11 2,20 -5,27 -7,6 -19,12 -36,17 -4,17 -3,38 4,63 3,11 7,22 12,31 5,10 10,17 13,21l6 5c17,-5 30,-6 39,-4 9,2 15,8 18,19 2,8 1,16 -4,23 -5,7 -13,12 -24,15 -31,9 -57,-26 -80,-104zm-30 84l23 81 -407 116 -24 -82 269 -76 -204 -91 -104 30 -23 -83 407 -115 24 82 -264 75 204 91 99 -28zm-318 632l-29 -228c-17,-17 -39,-29 -65,-37 -27,-8 -50,-11 -72,-8l-2 -20c20,-3 41,-9 62,-19 21,-10 37,-20 47,-29l15 -12 20 -3 12 94 413 57 11 85 -386 158 11 85 -21 2c-4,-2 -11,-6 -20,-10 -8,-4 -24,-8 -48,-14 -24,-5 -46,-6 -67,-4l-2 -19c21,-3 44,-11 67,-26 23,-14 42,-32 54,-52zm-10 -242l25 194 348 -143 -373 -51zm465 648c0,-5 3,-8 8,-7l92 7c5,0 8,3 8,9l-4 50c-1,5 -4,8 -9,7l-92 -7c-5,0 -8,-3 -7,-8l4 -51zm9 -122c0,-2 1,-4 3,-6 2,-2 4,-3 6,-3l91 7c3,1 4,2 6,4 1,2 2,4 2,6l-4 50c0,5 -3,8 -9,7l-91 -7c-6,0 -8,-3 -8,-9l4 -49zm-75 192l-55 -145 -94 -7 34 92 -51 30 -49 -127 -100 -8c-18,-1 -27,4 -28,16 0,4 0,7 1,9l34 86 -45 51 -45 -120c-5,-14 -7,-28 -6,-42 2,-24 12,-45 30,-62 18,-17 41,-24 71,-22l244 19c25,2 41,14 48,35l47 125 -36 70zm-435 204l393 91c5,-22 8,-38 8,-48 1,-11 -1,-21 -6,-31 -5,-10 -14,-17 -27,-23 -13,-5 -32,-10 -57,-16l4 -20c20,5 40,7 58,7 19,0 32,-2 40,-4l12 -5 20 5 -84 361 -19 -4c-19,-23 -52,-40 -98,-51l4 -19c25,6 45,10 59,11 14,1 25,-2 34,-9 9,-7 15,-15 19,-25 4,-10 9,-25 14,-47l-393 -90 19 -83zm481 498l-29 87 -428 -162 19 -55 438 130zm-567 -174c2,-5 5,-7 11,-5l56 19c5,2 7,5 5,11l-19 55c-1,5 -5,7 -10,5l-57 -19c-5,-1 -6,-5 -5,-10l19 -56z"/>
  </g>
 </g>
</svg>
